Space-Mono-Bold_QUADRATIC.ufo
<glyph name="quotedbl" format="1">
  <advance width="612"/>
  <unicode hex="0022"/>
  <outline>
    <contour>
      <point x="459" y="408" type="line"/>
      <point x="379" y="408" type="line"/>
      <point x="379" y="533" type="line"/>
      <point x="355" y="544"/>
      <point x="324" y="591"/>
      <point x="324" y="620" type="qcurve"/>
      <point x="324" y="639"/>
      <point x="339" y="674"/>
      <point x="365" y="699"/>
      <point x="399" y="714"/>
      <point x="419" y="714" type="qcurve"/>
      <point x="438" y="714"/>
      <point x="473" y="699"/>
      <point x="499" y="674"/>
      <point x="514" y="639"/>
      <point x="514" y="620" type="qcurve"/>
      <point x="514" y="591"/>
      <point x="483" y="544"/>
      <point x="459" y="533" type="qcurve"/>
    </contour>
    <contour>
      <point x="233" y="408" type="line"/>
      <point x="153" y="408" type="line"/>
      <point x="153" y="533" type="line"/>
      <point x="129" y="544"/>
      <point x="98" y="591"/>
      <point x="98" y="620" type="qcurve"/>
      <point x="98" y="639"/>
      <point x="113" y="674"/>
      <point x="139" y="699"/>
      <point x="173" y="714"/>
      <point x="193" y="714" type="qcurve"/>
      <point x="212" y="714"/>
      <point x="247" y="699"/>
      <point x="273" y="674"/>
      <point x="288" y="639"/>
      <point x="288" y="620" type="qcurve"/>
      <point x="288" y="591"/>
      <point x="257" y="544"/>
      <point x="233" y="533" type="qcurve"/>
    </contour>
  </outline>
</glyph>
<glyph name="dollar" format="1">
  <advance width="612"/>
  <unicode hex="0024"/>
  <outline>
    <contour>
      <point x="354" y="606" type="line"/>
      <point x="422" y="592"/>
      <point x="496" y="508"/>
      <point x="496" y="450" type="qcurve"/>
      <point x="496" y="436" type="line"/>
      <point x="382" y="436" type="line"/>
      <point x="382" y="450" type="line"/>
      <point x="382" y="462"/>
      <point x="369" y="485"/>
      <point x="354" y="493" type="qcurve"/>
      <point x="354" y="403" type="line"/>
      <point x="508" y="382"/>
      <point x="508" y="256" type="qcurve"/>
      <point x="508" y="250" type="line"/>
      <point x="508" y="183"/>
      <point x="427" y="99"/>
      <point x="354" y="90" type="qcurve"/>
      <point x="354" y="28" type="line"/>
      <point x="258" y="28" type="line"/>
      <point x="258" y="93" type="line"/>
      <point x="217" y="100"/>
      <point x="159" y="133"/>
      <point x="122" y="179"/>
      <point x="104" y="236"/>
      <point x="104" y="266" type="qcurve"/>
      <point x="104" y="286" type="line"/>
      <point x="218" y="286" type="line"/>
      <point x="218" y="272" type="line"/>
      <point x="218" y="249"/>
      <point x="236" y="215"/>
      <point x="258" y="205" type="qcurve"/>
      <point x="258" y="313" type="line"/>
      <point x="189" y="325"/>
      <point x="110" y="391"/>
      <point x="110" y="454" type="qcurve"/>
      <point x="110" y="460" type="line"/>
      <point x="110" y="494"/>
      <point x="134" y="545"/>
      <point x="174" y="582"/>
      <point x="228" y="604"/>
      <point x="258" y="609" type="qcurve"/>
      <point x="258" y="672" type="line"/>
      <point x="354" y="672" type="line"/>
    </contour>
    <contour>
      <point x="394" y="248" type="qcurve"/>
      <point x="394" y="263"/>
      <point x="380" y="288"/>
      <point x="354" y="296" type="qcurve"/>
      <point x="354" y="201" type="line"/>
      <point x="377" y="208"/>
      <point x="394" y="234"/>
    </contour>
    <contour>
      <point x="224" y="460" type="qcurve"/>
      <point x="224" y="446"/>
      <point x="236" y="427"/>
      <point x="258" y="419" type="qcurve"/>
      <point x="258" y="498" type="line"/>
      <point x="240" y="492"/>
      <point x="224" y="471"/>
    </contour>
  </outline>
</glyph>
<glyph name="percent" format="1">
  <advance width="612"/>
  <unicode hex="0025"/>
  <outline>
    <contour>
      <point x="338" y="562" type="qcurve"/>
      <point x="338" y="526"/>
      <point x="312" y="471"/>
      <point x="269" y="432"/>
      <point x="214" y="412"/>
      <point x="185" y="412" type="qcurve"/>
      <point x="156" y="412"/>
      <point x="101" y="432"/>
      <point x="58" y="471"/>
      <point x="32" y="526"/>
      <point x="32" y="562" type="qcurve"/>
      <point x="32" y="598"/>
      <point x="58" y="653"/>
      <point x="101" y="692"/>
      <point x="156" y="712"/>
      <point x="185" y="712" type="qcurve"/>
      <point x="214" y="712"/>
      <point x="269" y="692"/>
      <point x="312" y="653"/>
      <point x="338" y="598"/>
    </contour>
    <contour>
      <point x="185" y="496" type="qcurve"/>
      <point x="210" y="496"/>
      <point x="248" y="530"/>
      <point x="248" y="562" type="qcurve"/>
      <point x="248" y="594"/>
      <point x="210" y="628"/>
      <point x="185" y="628" type="qcurve"/>
      <point x="160" y="628"/>
      <point x="122" y="594"/>
      <point x="122" y="562" type="qcurve"/>
      <point x="122" y="530"/>
      <point x="160" y="496"/>
    </contour>
    <contour>
      <point x="580" y="138" type="qcurve"/>
      <point x="580" y="102"/>
      <point x="554" y="47"/>
      <point x="511" y="8"/>
      <point x="456" y="-12"/>
      <point x="427" y="-12" type="qcurve"/>
      <point x="398" y="-12"/>
      <point x="343" y="8"/>
      <point x="300" y="47"/>
      <point x="274" y="102"/>
      <point x="274" y="138" type="qcurve"/>
      <point x="274" y="174"/>
      <point x="300" y="229"/>
      <point x="343" y="268"/>
      <point x="398" y="288"/>
      <point x="427" y="288" type="qcurve"/>
      <point x="456" y="288"/>
      <point x="511" y="268"/>
      <point x="554" y="229"/>
      <point x="580" y="174"/>
    </contour>
    <contour>
      <point x="427" y="72" type="qcurve"/>
      <point x="452" y="72"/>
      <point x="490" y="106"/>
      <point x="490" y="138" type="qcurve"/>
      <point x="490" y="170"/>
      <point x="452" y="204"/>
      <point x="427" y="204" type="qcurve"/>
      <point x="402" y="204"/>
      <point x="364" y="170"/>
      <point x="364" y="138" type="qcurve"/>
      <point x="364" y="106"/>
      <point x="402" y="72"/>
    </contour>
    <component base="fraction"/>
  </outline>
</glyph>
<glyph name="parenleft" format="1">
  <advance width="612"/>
  <unicode hex="0028"/>
  <outline>
    <contour>
      <point x="570" y="-30" type="line"/>
      <point x="570" y="-156" type="line"/>
      <point x="528" y="-156" type="line"/>
      <point x="454" y="-156"/>
      <point x="321" y="-113"/>
      <point x="221" y="-22"/>
      <point x="162" y="120"/>
      <point x="162" y="218" type="qcurve"/>
      <point x="162" y="482" type="line"/>
      <point x="162" y="580"/>
      <point x="221" y="722"/>
      <point x="321" y="813"/>
      <point x="454" y="856"/>
      <point x="528" y="856" type="qcurve"/>
      <point x="570" y="856" type="line"/>
      <point x="570" y="730" type="line"/>
      <point x="534" y="730" type="line"/>
      <point x="482" y="730"/>
      <point x="394" y="702"/>
      <point x="329" y="640"/>
      <point x="292" y="543"/>
      <point x="292" y="474" type="qcurve"/>
      <point x="292" y="226" type="line"/>
      <point x="292" y="157"/>
      <point x="329" y="60"/>
      <point x="394" y="-2"/>
      <point x="482" y="-30"/>
      <point x="534" y="-30" type="qcurve"/>
    </contour>
  </outline>
</glyph>
<glyph name="parenright" format="1">
  <advance width="612"/>
  <unicode hex="0029"/>
  <outline>
    <contour>
      <point x="78" y="-30" type="line"/>
      <point x="130" y="-30"/>
      <point x="218" y="-2"/>
      <point x="283" y="60"/>
      <point x="320" y="157"/>
      <point x="320" y="226" type="qcurve"/>
      <point x="320" y="474" type="line"/>
      <point x="320" y="543"/>
      <point x="283" y="640"/>
      <point x="218" y="702"/>
      <point x="130" y="730"/>
      <point x="78" y="730" type="qcurve"/>
      <point x="42" y="730" type="line"/>
      <point x="42" y="856" type="line"/>
      <point x="84" y="856" type="line"/>
      <point x="158" y="856"/>
      <point x="291" y="813"/>
      <point x="391" y="722"/>
      <point x="450" y="580"/>
      <point x="450" y="482" type="qcurve"/>
      <point x="450" y="218" type="line"/>
      <point x="450" y="120"/>
      <point x="391" y="-22"/>
      <point x="291" y="-113"/>
      <point x="158" y="-156"/>
      <point x="84" y="-156" type="qcurve"/>
      <point x="42" y="-156" type="line"/>
      <point x="42" y="-30" type="line"/>
    </contour>
  </outline>
</glyph>
<glyph name="asterisk" format="1">
  <advance width="612"/>
  <unicode hex="002A"/>
  <outline>
    <contour>
      <point x="448" y="141" type="line"/>
      <point x="375" y="214" type="line"/>
      <point x="342" y="288" type="line"/>
      <point x="326" y="281" type="line"/>
      <point x="354" y="208" type="line"/>
      <point x="354" y="102" type="line"/>
      <point x="258" y="102" type="line"/>
      <point x="258" y="208" type="line"/>
      <point x="286" y="281" type="line"/>
      <point x="270" y="288" type="line"/>
      <point x="237" y="214" type="line"/>
      <point x="164" y="141" type="line"/>
      <point x="97" y="208" type="line"/>
      <point x="170" y="281" type="line"/>
      <point x="244" y="314" type="line"/>
      <point x="237" y="330" type="line"/>
      <point x="164" y="302" type="line"/>
      <point x="58" y="302" type="line"/>
      <point x="58" y="398" type="line"/>
      <point x="164" y="398" type="line"/>
      <point x="237" y="370" type="line"/>
      <point x="244" y="386" type="line"/>
      <point x="170" y="419" type="line"/>
      <point x="97" y="492" type="line"/>
      <point x="164" y="559" type="line"/>
      <point x="237" y="486" type="line"/>
      <point x="270" y="412" type="line"/>
      <point x="286" y="419" type="line"/>
      <point x="258" y="492" type="line"/>
      <point x="258" y="598" type="line"/>
      <point x="354" y="598" type="line"/>
      <point x="354" y="492" type="line"/>
      <point x="326" y="419" type="line"/>
      <point x="342" y="412" type="line"/>
      <point x="375" y="486" type="line"/>
      <point x="448" y="559" type="line"/>
      <point x="515" y="492" type="line"/>
      <point x="442" y="419" type="line"/>
      <point x="368" y="386" type="line"/>
      <point x="375" y="370" type="line"/>
      <point x="448" y="398" type="line"/>
      <point x="554" y="398" type="line"/>
      <point x="554" y="302" type="line"/>
      <point x="448" y="302" type="line"/>
      <point x="375" y="330" type="line"/>
      <point x="368" y="314" type="line"/>
      <point x="442" y="281" type="line"/>
      <point x="515" y="208" type="line"/>
    </contour>
  </outline>
</glyph>
<glyph name="comma" format="1">
  <advance width="612"/>
  <unicode hex="002C"/>
  <outline>
    <contour>
      <point x="211" y="81" type="qcurve"/>
      <point x="211" y="100"/>
      <point x="226" y="135"/>
      <point x="252" y="160"/>
      <point x="286" y="175"/>
      <point x="306" y="175" type="qcurve"/>
      <point x="325" y="175"/>
      <point x="360" y="160"/>
      <point x="386" y="135"/>
      <point x="401" y="100"/>
      <point x="401" y="81" type="qcurve"/>
      <point x="401" y="-41" type="line"/>
      <point x="401" y="-79"/>
      <point x="350" y="-131"/>
      <point x="312" y="-131" type="qcurve"/>
      <point x="248" y="-131" type="line"/>
      <point x="248" y="-53" type="line"/>
      <point x="296" y="-53" type="line"/>
      <point x="323" y="-53"/>
      <point x="323" y="-23" type="qcurve"/>
      <point x="323" y="-11" type="line"/>
      <point x="315" y="-14"/>
      <point x="306" y="-14" type="qcurve"/>
      <point x="286" y="-14"/>
      <point x="252" y="1"/>
      <point x="226" y="27"/>
      <point x="211" y="61"/>
    </contour>
  </outline>
</glyph>
<glyph name="zero" format="1">
  <advance width="612"/>
  <unicode hex="0030"/>
  <outline>
    <contour>
      <point x="222" y="350" type="qcurve"/>
      <point x="222" y="384"/>
      <point x="272" y="434"/>
      <point x="306" y="434" type="qcurve"/>
      <point x="340" y="434"/>
      <point x="390" y="384"/>
      <point x="390" y="350" type="qcurve"/>
      <point x="390" y="316"/>
      <point x="340" y="266"/>
      <point x="306" y="266" type="qcurve"/>
      <point x="272" y="266"/>
      <point x="222" y="316"/>
    </contour>
    <contour>
      <point x="48" y="428" type="line"/>
      <point x="48" y="564"/>
      <point x="185" y="714"/>
      <point x="306" y="714" type="qcurve"/>
      <point x="427" y="714"/>
      <point x="564" y="564"/>
      <point x="564" y="428" type="qcurve"/>
      <point x="564" y="272" type="line"/>
      <point x="564" y="132"/>
      <point x="427" y="-14"/>
      <point x="306" y="-14" type="qcurve"/>
      <point x="185" y="-14"/>
      <point x="48" y="132"/>
      <point x="48" y="272" type="qcurve"/>
    </contour>
    <contour>
      <point x="306" y="106" type="qcurve"/>
      <point x="342" y="106"/>
      <point x="390" y="129"/>
      <point x="420" y="171"/>
      <point x="432" y="229"/>
      <point x="432" y="264" type="qcurve"/>
      <point x="432" y="436" type="line"/>
      <point x="432" y="469"/>
      <point x="418" y="527"/>
      <point x="388" y="569"/>
      <point x="340" y="594"/>
      <point x="306" y="594" type="qcurve"/>
      <point x="272" y="594"/>
      <point x="224" y="569"/>
      <point x="194" y="527"/>
      <point x="180" y="469"/>
      <point x="180" y="436" type="qcurve"/>
      <point x="180" y="264" type="line"/>
      <point x="180" y="229"/>
      <point x="192" y="171"/>
      <point x="222" y="129"/>
      <point x="270" y="106"/>
    </contour>
  </outline>
</glyph>
<glyph name="two" format="1">
  <advance width="612"/>
  <unicode hex="0032"/>
  <outline>
    <contour>
      <point x="557" y="126" type="line"/>
      <point x="557" y="0" type="line"/>
      <point x="65" y="0" type="line"/>
      <point x="65" y="138" type="line"/>
      <point x="65" y="193"/>
      <point x="98" y="271"/>
      <point x="159" y="325"/>
      <point x="245" y="360"/>
      <point x="299" y="372" type="qcurve"/>
      <point x="339" y="381"/>
      <point x="390" y="404"/>
      <point x="420" y="433"/>
      <point x="431" y="468"/>
      <point x="431" y="490" type="qcurve"/>
      <point x="431" y="532"/>
      <point x="370" y="588"/>
      <point x="316" y="588" type="qcurve"/>
      <point x="259" y="588"/>
      <point x="191" y="519"/>
      <point x="191" y="458" type="qcurve"/>
      <point x="191" y="414" type="line"/>
      <point x="59" y="414" type="line"/>
      <point x="59" y="470" type="line"/>
      <point x="59" y="519"/>
      <point x="94" y="608"/>
      <point x="159" y="675"/>
      <point x="253" y="714"/>
      <point x="312" y="714" type="qcurve"/>
      <point x="375" y="714"/>
      <point x="469" y="677"/>
      <point x="532" y="617"/>
      <point x="563" y="538"/>
      <point x="563" y="496" type="qcurve"/>
      <point x="563" y="484" type="line"/>
      <point x="563" y="396"/>
      <point x="464" y="280"/>
      <point x="352" y="254" type="qcurve"/>
      <point x="305" y="243"/>
      <point x="244" y="220"/>
      <point x="210" y="192"/>
      <point x="197" y="159"/>
      <point x="197" y="138" type="qcurve"/>
      <point x="197" y="126" type="line"/>
    </contour>
  </outline>
</glyph>
<glyph name="six" format="1">
  <advance width="612"/>
  <unicode hex="0036"/>
  <outline>
    <contour>
      <point x="411" y="502" type="line"/>
      <point x="411" y="537"/>
      <point x="360" y="588"/>
      <point x="306" y="588" type="qcurve"/>
      <point x="252" y="588"/>
      <point x="189" y="525"/>
      <point x="189" y="474" type="qcurve"/>
      <point x="189" y="384" type="line"/>
      <point x="207" y="384" type="line"/>
      <point x="224" y="419"/>
      <point x="300" y="462"/>
      <point x="348" y="462" type="qcurve"/>
      <point x="391" y="462"/>
      <point x="467" y="431"/>
      <point x="523" y="374"/>
      <point x="555" y="292"/>
      <point x="555" y="240" type="qcurve"/>
      <point x="555" y="228" type="line"/>
      <point x="555" y="175"/>
      <point x="520" y="86"/>
      <point x="455" y="22"/>
      <point x="363" y="-14"/>
      <point x="306" y="-14" type="qcurve"/>
      <point x="254" y="-14"/>
      <point x="163" y="20"/>
      <point x="96" y="81"/>
      <point x="57" y="166"/>
      <point x="57" y="217" type="qcurve"/>
      <point x="57" y="472" type="line"/>
      <point x="57" y="527"/>
      <point x="97" y="617"/>
      <point x="165" y="680"/>
      <point x="254" y="714"/>
      <point x="304" y="714" type="qcurve"/>
      <point x="354" y="714"/>
      <point x="441" y="685"/>
      <point x="506" y="630"/>
      <point x="543" y="551"/>
      <point x="543" y="502" type="qcurve"/>
    </contour>
    <contour>
      <point x="306" y="112" type="qcurve"/>
      <point x="357" y="112"/>
      <point x="423" y="173"/>
      <point x="423" y="224" type="qcurve"/>
      <point x="423" y="275"/>
      <point x="357" y="336"/>
      <point x="306" y="336" type="qcurve"/>
      <point x="255" y="336"/>
      <point x="189" y="275"/>
      <point x="189" y="224" type="qcurve"/>
      <point x="189" y="173"/>
      <point x="255" y="112"/>
    </contour>
  </outline>
</glyph>
<glyph name="seven" format="1">
  <advance width="612"/>
  <unicode hex="0037"/>
  <outline>
    <contour>
      <point x="60" y="700" type="line"/>
      <point x="552" y="700" type="line"/>
      <point x="552" y="494" type="line"/>
      <point x="299" y="124" type="line"/>
      <point x="279" y="94"/>
      <point x="256" y="51"/>
      <point x="256" y="24" type="qcurve"/>
      <point x="256" y="0" type="line"/>
      <point x="114" y="0" type="line"/>
      <point x="114" y="30" type="line"/>
      <point x="114" y="50"/>
      <point x="120" y="82"/>
      <point x="133" y="114"/>
      <point x="155" y="150"/>
      <point x="171" y="174" type="qcurve"/>
      <point x="432" y="556" type="line"/>
      <point x="432" y="574" type="line"/>
      <point x="60" y="574" type="line"/>
    </contour>
  </outline>
</glyph>
<glyph name="eight" format="1">
  <advance width="612"/>
  <unicode hex="0038"/>
  <outline>
    <contour>
      <point x="306" y="-14" type="qcurve"/>
      <point x="247" y="-14"/>
      <point x="153" y="15"/>
      <point x="87" y="67"/>
      <point x="51" y="138"/>
      <point x="51" y="182" type="qcurve"/>
      <point x="51" y="188" type="line"/>
      <point x="51" y="225"/>
      <point x="72" y="281"/>
      <point x="107" y="321"/>
      <point x="151" y="347"/>
      <point x="175" y="354" type="qcurve"/>
      <point x="175" y="372" type="line"/>
      <point x="154" y="380"/>
      <point x="115" y="406"/>
      <point x="86" y="443"/>
      <point x="69" y="494"/>
      <point x="69" y="526" type="qcurve"/>
      <point x="69" y="532" type="line"/>
      <point x="69" y="575"/>
      <point x="109" y="643"/>
      <point x="175" y="690"/>
      <point x="260" y="714"/>
      <point x="306" y="714" type="qcurve"/>
      <point x="352" y="714"/>
      <point x="437" y="690"/>
      <point x="503" y="643"/>
      <point x="543" y="575"/>
      <point x="543" y="532" type="qcurve"/>
      <point x="543" y="526" type="line"/>
      <point x="543" y="494"/>
      <point x="526" y="443"/>
      <point x="497" y="406"/>
      <point x="458" y="380"/>
      <point x="437" y="372" type="qcurve"/>
      <point x="437" y="354" type="line"/>
      <point x="461" y="347"/>
      <point x="505" y="321"/>
      <point x="540" y="281"/>
      <point x="561" y="225"/>
      <point x="561" y="188" type="qcurve"/>
      <point x="561" y="182" type="line"/>
      <point x="561" y="138"/>
      <point x="525" y="66"/>
      <point x="459" y="15"/>
      <point x="364" y="-14"/>
    </contour>
    <contour>
      <point x="306" y="112" type="qcurve"/>
      <point x="365" y="112"/>
      <point x="429" y="165"/>
      <point x="429" y="206" type="qcurve"/>
      <point x="429" y="247"/>
      <point x="365" y="300"/>
      <point x="306" y="300" type="qcurve"/>
      <point x="247" y="300"/>
      <point x="183" y="247"/>
      <point x="183" y="206" type="qcurve"/>
      <point x="183" y="165"/>
      <point x="247" y="112"/>
    </contour>
    <contour>
      <point x="306" y="588" type="qcurve"/>
      <point x="261" y="588"/>
      <point x="201" y="542"/>
      <point x="201" y="507" type="qcurve"/>
      <point x="201" y="472"/>
      <point x="261" y="426"/>
      <point x="306" y="426" type="qcurve"/>
      <point x="351" y="426"/>
      <point x="411" y="472"/>
      <point x="411" y="507" type="qcurve"/>
      <point x="411" y="542"/>
      <point x="351" y="588"/>
    </contour>
  </outline>
</glyph>
<glyph name="nine" format="1">
  <advance width="612"/>
  <unicode hex="0039"/>
  <outline>
    <contour>
      <point x="201" y="198" type="line"/>
      <point x="201" y="163"/>
      <point x="252" y="112"/>
      <point x="306" y="112" type="qcurve"/>
      <point x="360" y="112"/>
      <point x="423" y="175"/>
      <point x="423" y="226" type="qcurve"/>
      <point x="423" y="316" type="line"/>
      <point x="405" y="316" type="line"/>
      <point x="391" y="281"/>
      <point x="327" y="238"/>
      <point x="268" y="238" type="qcurve"/>
      <point x="223" y="238"/>
      <point x="146" y="271"/>
      <point x="89" y="331"/>
      <point x="57" y="415"/>
      <point x="57" y="466" type="qcurve"/>
      <point x="57" y="478" type="line"/>
      <point x="57" y="528"/>
      <point x="93" y="615"/>
      <point x="158" y="678"/>
      <point x="251" y="714"/>
      <point x="308" y="714" type="qcurve"/>
      <point x="360" y="714"/>
      <point x="451" y="680"/>
      <point x="517" y="619"/>
      <point x="555" y="534"/>
      <point x="555" y="483" type="qcurve"/>
      <point x="555" y="228" type="line"/>
      <point x="555" y="171"/>
      <point x="517" y="81"/>
      <point x="451" y="19"/>
      <point x="362" y="-14"/>
      <point x="310" y="-14" type="qcurve"/>
      <point x="259" y="-14"/>
      <point x="171" y="15"/>
      <point x="106" y="70"/>
      <point x="69" y="148"/>
      <point x="69" y="198" type="qcurve"/>
    </contour>
    <contour>
      <point x="306" y="588" type="qcurve"/>
      <point x="255" y="588"/>
      <point x="189" y="527"/>
      <point x="189" y="476" type="qcurve"/>
      <point x="189" y="425"/>
      <point x="255" y="364"/>
      <point x="306" y="364" type="qcurve"/>
      <point x="357" y="364"/>
      <point x="423" y="425"/>
      <point x="423" y="476" type="qcurve"/>
      <point x="423" y="527"/>
      <point x="357" y="588"/>
    </contour>
  </outline>
</glyph>
<glyph name="semicolon" format="1">
  <advance width="612"/>
  <unicode hex="003B"/>
  <outline>
    <contour>
      <point x="211" y="81" type="qcurve"/>
      <point x="211" y="101"/>
      <point x="226" y="136"/>
      <point x="252" y="161"/>
      <point x="286" y="176"/>
      <point x="306" y="176" type="qcurve"/>
      <point x="325" y="176"/>
      <point x="360" y="161"/>
      <point x="386" y="136"/>
      <point x="401" y="101"/>
      <point x="401" y="81" type="qcurve"/>
      <point x="401" y="-41" type="line"/>
      <point x="401" y="-79"/>
      <point x="350" y="-131"/>
      <point x="312" y="-131" type="qcurve"/>
      <point x="248" y="-131" type="line"/>
      <point x="248" y="-53" type="line"/>
      <point x="296" y="-53" type="line"/>
      <point x="323" y="-53"/>
      <point x="323" y="-23" type="qcurve"/>
      <point x="323" y="-11" type="line"/>
      <point x="315" y="-14"/>
      <point x="306" y="-14" type="qcurve"/>
      <point x="286" y="-14"/>
      <point x="252" y="1"/>
      <point x="226" y="26"/>
      <point x="211" y="61"/>
    </contour>
    <contour>
      <point x="401" y="415" type="qcurve"/>
      <point x="401" y="395"/>
      <point x="386" y="360"/>
      <point x="360" y="335"/>
      <point x="325" y="320"/>
      <point x="306" y="320" type="qcurve"/>
      <point x="286" y="320"/>
      <point x="252" y="335"/>
      <point x="226" y="360"/>
      <point x="211" y="395"/>
      <point x="211" y="415" type="qcurve"/>
      <point x="211" y="435"/>
      <point x="226" y="470"/>
      <point x="252" y="495"/>
      <point x="286" y="510"/>
      <point x="306" y="510" type="qcurve"/>
      <point x="325" y="510"/>
      <point x="360" y="495"/>
      <point x="386" y="470"/>
      <point x="401" y="435"/>
    </contour>
  </outline>
</glyph>
<glyph name="D" format="1">
  <advance width="612"/>
  <unicode hex="0044"/>
  <outline>
    <contour>
      <point x="46" y="700" type="line"/>
      <point x="300" y="700" type="line"/>
      <point x="430" y="700"/>
      <point x="556" y="579"/>
      <point x="556" y="452" type="qcurve"/>
      <point x="556" y="248" type="line"/>
      <point x="556" y="121"/>
      <point x="430" y="0"/>
      <point x="300" y="0" type="qcurve"/>
      <point x="46" y="0" type="line"/>
      <point x="46" y="127" type="line"/>
      <point x="112" y="127" type="line"/>
      <point x="112" y="574" type="line"/>
      <point x="46" y="574" type="line"/>
    </contour>
    <contour>
      <point x="300" y="126" type="line"/>
      <point x="369" y="126"/>
      <point x="424" y="191"/>
      <point x="424" y="260" type="qcurve"/>
      <point x="424" y="452" type="line"/>
      <point x="424" y="512"/>
      <point x="369" y="574"/>
      <point x="300" y="574" type="qcurve"/>
      <point x="244" y="574" type="line"/>
      <point x="244" y="126" type="line"/>
    </contour>
  </outline>
</glyph>
<glyph name="H" format="1">
  <advance width="612"/>
  <unicode hex="0048"/>
  <outline>
    <contour>
      <point x="61" y="700" type="line"/>
      <point x="193" y="700" type="line"/>
      <point x="193" y="414" type="line"/>
      <point x="419" y="414" type="line"/>
      <point x="419" y="700" type="line"/>
      <point x="551" y="700" type="line"/>
      <point x="551" y="0" type="line"/>
      <point x="419" y="0" type="line"/>
      <point x="419" y="288" type="line"/>
      <point x="193" y="288" type="line"/>
      <point x="193" y="0" type="line"/>
      <point x="61" y="0" type="line"/>
    </contour>
  </outline>
</glyph>
<glyph name="J" format="1">
  <advance width="612"/>
  <unicode hex="004A"/>
  <outline>
    <contour>
      <point x="517" y="210" type="line"/>
      <point x="517" y="101"/>
      <point x="399" y="-14"/>
      <point x="296" y="-14" type="qcurve"/>
      <point x="243" y="-14"/>
      <point x="157" y="15"/>
      <point x="95" y="72"/>
      <point x="61" y="155"/>
      <point x="61" y="210" type="qcurve"/>
      <point x="61" y="276" type="line"/>
      <point x="193" y="276" type="line"/>
      <point x="193" y="210" type="line"/>
      <point x="193" y="163"/>
      <point x="245" y="110"/>
      <point x="292" y="110" type="qcurve"/>
      <point x="336" y="110"/>
      <point x="385" y="162"/>
      <point x="385" y="210" type="qcurve"/>
      <point x="385" y="576" type="line"/>
      <point x="313" y="576" type="line"/>
      <point x="313" y="700" type="line"/>
      <point x="577" y="700" type="line"/>
      <point x="577" y="576" type="line"/>
      <point x="517" y="576" type="line"/>
    </contour>
  </outline>
</glyph>
<glyph name="K" format="1">
  <advance width="612"/>
  <unicode hex="004B"/>
  <outline>
    <contour>
      <point x="209" y="0" type="line"/>
      <point x="77" y="0" type="line"/>
      <point x="77" y="700" type="line"/>
      <point x="209" y="700" type="line"/>
      <point x="209" y="413" type="line"/>
      <point x="238" y="413" type="line"/>
      <point x="423" y="700" type="line"/>
      <point x="572" y="700" type="line"/>
      <point x="572" y="694" type="line"/>
      <point x="356" y="359" type="line"/>
      <point x="356" y="341" type="line"/>
      <point x="584" y="6" type="line"/>
      <point x="584" y="0" type="line"/>
      <point x="429" y="0" type="line"/>
      <point x="238" y="287" type="line"/>
      <point x="209" y="287" type="line"/>
    </contour>
  </outline>
</glyph>
<glyph name="Q" format="1">
  <advance width="612"/>
  <unicode hex="0051"/>
  <outline>
    <contour>
      <point x="243" y="-8" type="line"/>
      <point x="150" y="9"/>
      <point x="48" y="151"/>
      <point x="48" y="272" type="qcurve"/>
      <point x="48" y="428" type="line"/>
      <point x="48" y="564"/>
      <point x="185" y="714"/>
      <point x="306" y="714" type="qcurve"/>
      <point x="427" y="714"/>
      <point x="564" y="564"/>
      <point x="564" y="428" type="qcurve"/>
      <point x="564" y="272" type="line"/>
      <point x="564" y="151"/>
      <point x="461" y="9"/>
      <point x="369" y="-8" type="qcurve"/>
      <point x="369" y="-26" type="line"/>
      <point x="369" y="-54"/>
      <point x="394" y="-54" type="qcurve"/>
      <point x="456" y="-54" type="line"/>
      <point x="456" y="-174" type="line"/>
      <point x="338" y="-174" type="line"/>
      <point x="297" y="-174"/>
      <point x="243" y="-119"/>
      <point x="243" y="-78" type="qcurve"/>
    </contour>
    <contour>
      <point x="306" y="106" type="qcurve"/>
      <point x="342" y="106"/>
      <point x="390" y="130"/>
      <point x="420" y="172"/>
      <point x="432" y="231"/>
      <point x="432" y="266" type="qcurve"/>
      <point x="432" y="434" type="line"/>
      <point x="432" y="467"/>
      <point x="418" y="525"/>
      <point x="388" y="569"/>
      <point x="340" y="594"/>
      <point x="306" y="594" type="qcurve"/>
      <point x="272" y="594"/>
      <point x="224" y="569"/>
      <point x="194" y="525"/>
      <point x="180" y="467"/>
      <point x="180" y="434" type="qcurve"/>
      <point x="180" y="266" type="line"/>
      <point x="180" y="231"/>
      <point x="192" y="172"/>
      <point x="222" y="130"/>
      <point x="270" y="106"/>
    </contour>
  </outline>
</glyph>
<glyph name="S" format="1">
  <advance width="612"/>
  <unicode hex="0053"/>
  <outline>
    <contour>
      <point x="426" y="486" type="line"/>
      <point x="426" y="528"/>
      <point x="361" y="590"/>
      <point x="302" y="590" type="qcurve"/>
      <point x="252" y="590"/>
      <point x="194" y="549"/>
      <point x="194" y="514" type="qcurve"/>
      <point x="194" y="496"/>
      <point x="208" y="467"/>
      <point x="243" y="444"/>
      <point x="300" y="426"/>
      <point x="344" y="418" type="qcurve"/>
      <point x="454" y="398"/>
      <point x="570" y="304"/>
      <point x="570" y="212" type="qcurve"/>
      <point x="570" y="200" type="line"/>
      <point x="570" y="151"/>
      <point x="535" y="72"/>
      <point x="469" y="16"/>
      <point x="375" y="-14"/>
      <point x="316" y="-14" type="qcurve"/>
      <point x="247" y="-14"/>
      <point x="142" y="25"/>
      <point x="72" y="94"/>
      <point x="36" y="187"/>
      <point x="36" y="242" type="qcurve"/>
      <point x="36" y="272" type="line"/>
      <point x="168" y="272" type="line"/>
      <point x="168" y="248" type="line"/>
      <point x="168" y="185"/>
      <point x="241" y="110"/>
      <point x="318" y="110" type="qcurve"/>
      <point x="378" y="110"/>
      <point x="436" y="162"/>
      <point x="436" y="198" type="qcurve"/>
      <point x="436" y="215"/>
      <point x="424" y="246"/>
      <point x="394" y="271"/>
      <point x="342" y="291"/>
      <point x="302" y="298" type="qcurve"/>
      <point x="249" y="307"/>
      <point x="161" y="336"/>
      <point x="96" y="384"/>
      <point x="60" y="456"/>
      <point x="60" y="508" type="qcurve"/>
      <point x="60" y="514" type="line"/>
      <point x="60" y="557"/>
      <point x="95" y="630"/>
      <point x="158" y="684"/>
      <point x="247" y="714"/>
      <point x="302" y="714" type="qcurve"/>
      <point x="364" y="714"/>
      <point x="460" y="679"/>
      <point x="525" y="619"/>
      <point x="558" y="541"/>
      <point x="558" y="498" type="qcurve"/>
      <point x="558" y="462" type="line"/>
      <point x="426" y="462" type="line"/>
    </contour>
  </outline>
</glyph>
<glyph name="T" format="1">
  <advance width="612"/>
  <unicode hex="0054"/>
  <outline>
    <contour>
      <point x="54" y="700" type="line"/>
      <point x="558" y="700" type="line"/>
      <point x="558" y="574" type="line"/>
      <point x="372" y="574" type="line"/>
      <point x="372" y="0" type="line"/>
      <point x="240" y="0" type="line"/>
      <point x="240" y="574" type="line"/>
      <point x="54" y="574" type="line"/>
    </contour>
  </outline>
</glyph>
<glyph name="V" format="1">
  <advance width="612"/>
  <unicode hex="0056"/>
  <outline>
    <contour>
      <point x="24" y="700" type="line"/>
      <point x="160" y="700" type="line"/>
      <point x="297" y="66" type="line"/>
      <point x="315" y="66" type="line"/>
      <point x="452" y="700" type="line"/>
      <point x="588" y="700" type="line"/>
      <point x="430" y="0" type="line"/>
      <point x="182" y="0" type="line"/>
    </contour>
  </outline>
</glyph>
<glyph name="Y" format="1">
  <advance width="612"/>
  <unicode hex="0059"/>
  <outline>
    <contour>
      <point x="240" y="246" type="line"/>
      <point x="210" y="246" type="line"/>
      <point x="9" y="700" type="line"/>
      <point x="153" y="700" type="line"/>
      <point x="297" y="366" type="line"/>
      <point x="315" y="366" type="line"/>
      <point x="459" y="700" type="line"/>
      <point x="603" y="700" type="line"/>
      <point x="402" y="246" type="line"/>
      <point x="372" y="246" type="line"/>
      <point x="372" y="0" type="line"/>
      <point x="240" y="0" type="line"/>
    </contour>
  </outline>
</glyph>
<glyph name="bracketleft" format="1">
  <advance width="612"/>
  <unicode hex="005B"/>
  <outline>
    <contour>
      <point x="236" y="754" type="line"/>
      <point x="236" y="799"/>
      <point x="293" y="856"/>
      <point x="338" y="856" type="qcurve"/>
      <point x="470" y="856" type="line"/>
      <point x="470" y="736" type="line"/>
      <point x="389" y="736" type="line"/>
      <point x="362" y="736"/>
      <point x="362" y="706" type="qcurve"/>
      <point x="362" y="-6" type="line"/>
      <point x="362" y="-36"/>
      <point x="389" y="-36" type="qcurve"/>
      <point x="470" y="-36" type="line"/>
      <point x="470" y="-156" type="line"/>
      <point x="338" y="-156" type="line"/>
      <point x="293" y="-156"/>
      <point x="236" y="-99"/>
      <point x="236" y="-54" type="qcurve"/>
    </contour>
  </outline>
</glyph>
<glyph name="backslash" format="1">
  <advance width="612"/>
  <unicode hex="005C"/>
  <outline>
    <contour>
      <point x="513" y="-89" type="line"/>
      <point x="398" y="-125" type="line"/>
      <point x="99" y="789" type="line"/>
      <point x="213" y="825" type="line"/>
    </contour>
  </outline>
</glyph>
<glyph name="bracketright" format="1">
  <advance width="612"/>
  <unicode hex="005D"/>
  <outline>
    <contour>
      <point x="376" y="-54" type="line"/>
      <point x="376" y="-99"/>
      <point x="319" y="-156"/>
      <point x="274" y="-156" type="qcurve"/>
      <point x="142" y="-156" type="line"/>
      <point x="142" y="-36" type="line"/>
      <point x="223" y="-36" type="line"/>
      <point x="250" y="-36"/>
      <point x="250" y="-6" type="qcurve"/>
      <point x="250" y="706" type="line"/>
      <point x="250" y="736"/>
      <point x="223" y="736" type="qcurve"/>
      <point x="142" y="736" type="line"/>
      <point x="142" y="856" type="line"/>
      <point x="274" y="856" type="line"/>
      <point x="319" y="856"/>
      <point x="376" y="799"/>
      <point x="376" y="754" type="qcurve"/>
    </contour>
  </outline>
</glyph>
<glyph name="underscore" format="1">
  <advance width="612"/>
  <unicode hex="005F"/>
  <outline>
    <contour>
      <point x="61" y="-48" type="line"/>
      <point x="551" y="-48" type="line"/>
      <point x="551" y="-162" type="line"/>
      <point x="61" y="-162" type="line"/>
    </contour>
  </outline>
</glyph>
<glyph name="b" format="1">
  <advance width="612"/>
  <unicode hex="0062"/>
  <outline>
    <contour>
      <point x="183" y="0" type="line"/>
      <point x="57" y="0" type="line"/>
      <point x="57" y="700" type="line"/>
      <point x="183" y="700" type="line"/>
      <point x="183" y="424" type="line"/>
      <point x="201" y="424" type="line"/>
      <point x="221" y="465"/>
      <point x="297" y="510"/>
      <point x="356" y="510" type="qcurve"/>
      <point x="400" y="510"/>
      <point x="479" y="476"/>
      <point x="538" y="411"/>
      <point x="573" y="317"/>
      <point x="573" y="257" type="qcurve"/>
      <point x="573" y="239" type="line"/>
      <point x="573" y="178"/>
      <point x="539" y="84"/>
      <point x="481" y="19"/>
      <point x="402" y="-14"/>
      <point x="356" y="-14" type="qcurve"/>
      <point x="322" y="-14"/>
      <point x="272" y="0"/>
      <point x="235" y="24"/>
      <point x="210" y="55"/>
      <point x="201" y="72" type="qcurve"/>
      <point x="183" y="72" type="line"/>
    </contour>
    <contour>
      <point x="315" y="106" type="qcurve"/>
      <point x="374" y="106"/>
      <point x="447" y="179"/>
      <point x="447" y="242" type="qcurve"/>
      <point x="447" y="254" type="line"/>
      <point x="447" y="317"/>
      <point x="374" y="390"/>
      <point x="315" y="390" type="qcurve"/>
      <point x="256" y="390"/>
      <point x="183" y="315"/>
      <point x="183" y="254" type="qcurve"/>
      <point x="183" y="242" type="line"/>
      <point x="183" y="181"/>
      <point x="256" y="106"/>
    </contour>
  </outline>
</glyph>
<glyph name="c" format="1">
  <advance width="612"/>
  <unicode hex="0063"/>
  <outline>
    <contour>
      <point x="562" y="182" type="line"/>
      <point x="545" y="94"/>
      <point x="418" y="-14"/>
      <point x="312" y="-14" type="qcurve"/>
      <point x="257" y="-14"/>
      <point x="162" y="20"/>
      <point x="92" y="84"/>
      <point x="52" y="178"/>
      <point x="52" y="238" type="qcurve"/>
      <point x="52" y="250" type="line"/>
      <point x="52" y="310"/>
      <point x="92" y="406"/>
      <point x="163" y="474"/>
      <point x="258" y="510"/>
      <point x="312" y="510" type="qcurve"/>
      <point x="416" y="510"/>
      <point x="545" y="402"/>
      <point x="562" y="314" type="qcurve"/>
      <point x="438" y="282" type="line"/>
      <point x="432" y="326"/>
      <point x="368" y="390"/>
      <point x="310" y="390" type="qcurve"/>
      <point x="283" y="390"/>
      <point x="235" y="370"/>
      <point x="199" y="333"/>
      <point x="178" y="280"/>
      <point x="178" y="247" type="qcurve"/>
      <point x="178" y="241" type="line"/>
      <point x="178" y="208"/>
      <point x="199" y="157"/>
      <point x="235" y="123"/>
      <point x="283" y="106"/>
      <point x="310" y="106" type="qcurve"/>
      <point x="368" y="106"/>
      <point x="429" y="164"/>
      <point x="438" y="213" type="qcurve"/>
    </contour>
  </outline>
</glyph>
<glyph name="j" format="1">
  <advance width="612"/>
  <unicode hex="006A"/>
  <outline>
    <contour>
      <point x="126" y="496" type="line"/>
      <point x="444" y="496" type="line"/>
      <point x="444" y="-98" type="line"/>
      <point x="444" y="-150"/>
      <point x="388" y="-200"/>
      <point x="343" y="-200" type="qcurve"/>
      <point x="108" y="-200" type="line"/>
      <point x="108" y="-80" type="line"/>
      <point x="288" y="-80" type="line"/>
      <point x="318" y="-80"/>
      <point x="318" y="-47" type="qcurve"/>
      <point x="318" y="376" type="line"/>
      <point x="126" y="376" type="line"/>
    </contour>
    <contour>
      <point x="474" y="643" type="qcurve"/>
      <point x="474" y="623"/>
      <point x="459" y="588"/>
      <point x="433" y="563"/>
      <point x="398" y="548"/>
      <point x="379" y="548" type="qcurve"/>
      <point x="359" y="548"/>
      <point x="325" y="563"/>
      <point x="299" y="588"/>
      <point x="284" y="623"/>
      <point x="284" y="643" type="qcurve"/>
      <point x="284" y="663"/>
      <point x="299" y="698"/>
      <point x="325" y="723"/>
      <point x="359" y="738"/>
      <point x="379" y="738" type="qcurve"/>
      <point x="398" y="738"/>
      <point x="433" y="723"/>
      <point x="459" y="698"/>
      <point x="474" y="663"/>
    </contour>
  </outline>
</glyph>
<glyph name="o" format="1">
  <advance width="612"/>
  <unicode hex="006F"/>
  <outline>
    <contour>
      <point x="564" y="242" type="line"/>
      <point x="564" y="180"/>
      <point x="522" y="85"/>
      <point x="450" y="20"/>
      <point x="357" y="-14"/>
      <point x="306" y="-14" type="qcurve"/>
      <point x="255" y="-14"/>
      <point x="162" y="20"/>
      <point x="90" y="85"/>
      <point x="48" y="180"/>
      <point x="48" y="242" type="qcurve"/>
      <point x="48" y="254" type="line"/>
      <point x="48" y="315"/>
      <point x="90" y="410"/>
      <point x="162" y="476"/>
      <point x="255" y="510"/>
      <point x="306" y="510" type="qcurve"/>
      <point x="357" y="510"/>
      <point x="450" y="476"/>
      <point x="522" y="410"/>
      <point x="564" y="315"/>
      <point x="564" y="254" type="qcurve"/>
    </contour>
    <contour>
      <point x="306" y="106" type="qcurve"/>
      <point x="333" y="106"/>
      <point x="381" y="124"/>
      <point x="417" y="158"/>
      <point x="438" y="207"/>
      <point x="438" y="238" type="qcurve"/>
      <point x="438" y="258" type="line"/>
      <point x="438" y="289"/>
      <point x="417" y="338"/>
      <point x="381" y="372"/>
      <point x="333" y="390"/>
      <point x="306" y="390" type="qcurve"/>
      <point x="279" y="390"/>
      <point x="231" y="372"/>
      <point x="195" y="338"/>
      <point x="174" y="289"/>
      <point x="174" y="258" type="qcurve"/>
      <point x="174" y="238" type="line"/>
      <point x="174" y="207"/>
      <point x="195" y="158"/>
      <point x="231" y="124"/>
      <point x="279" y="106"/>
    </contour>
  </outline>
</glyph>
<glyph name="r" format="1">
  <advance width="612"/>
  <unicode hex="0072"/>
  <outline>
    <contour>
      <point x="54" y="496" type="line"/>
      <point x="264" y="496" type="line"/>
      <point x="264" y="424" type="line"/>
      <point x="282" y="424" type="line"/>
      <point x="296" y="465"/>
      <point x="363" y="510"/>
      <point x="410" y="510" type="qcurve"/>
      <point x="484" y="510"/>
      <point x="574" y="417"/>
      <point x="574" y="322" type="qcurve"/>
      <point x="574" y="300" type="line"/>
      <point x="444" y="288" type="line"/>
      <point x="444" y="302" type="line"/>
      <point x="444" y="343"/>
      <point x="402" y="392"/>
      <point x="360" y="392" type="qcurve"/>
      <point x="318" y="392"/>
      <point x="270" y="334"/>
      <point x="270" y="280" type="qcurve"/>
      <point x="270" y="120" type="line"/>
      <point x="384" y="120" type="line"/>
      <point x="384" y="0" type="line"/>
      <point x="42" y="0" type="line"/>
      <point x="42" y="120" type="line"/>
      <point x="144" y="120" type="line"/>
      <point x="144" y="376" type="line"/>
      <point x="54" y="376" type="line"/>
    </contour>
  </outline>
</glyph>
<glyph name="t" format="1">
  <advance width="612"/>
  <unicode hex="0074"/>
  <outline>
    <contour>
      <point x="64" y="496" type="line"/>
      <point x="211" y="496" type="line"/>
      <point x="211" y="700" type="line"/>
      <point x="337" y="700" type="line"/>
      <point x="337" y="496" type="line"/>
      <point x="516" y="496" type="line"/>
      <point x="516" y="376" type="line"/>
      <point x="337" y="376" type="line"/>
      <point x="337" y="150" type="line"/>
      <point x="337" y="120"/>
      <point x="364" y="120" type="qcurve"/>
      <point x="498" y="120" type="line"/>
      <point x="498" y="0" type="line"/>
      <point x="288" y="0" type="line"/>
      <point x="254" y="0"/>
      <point x="211" y="44"/>
      <point x="211" y="78" type="qcurve"/>
      <point x="211" y="376" type="line"/>
      <point x="64" y="376" type="line"/>
    </contour>
  </outline>
</glyph>
<glyph name="braceleft" format="1">
  <advance width="612"/>
  <unicode hex="007B"/>
  <outline>
    <contour>
      <point x="256" y="754" type="line"/>
      <point x="256" y="799"/>
      <point x="313" y="856"/>
      <point x="358" y="856" type="qcurve"/>
      <point x="490" y="856" type="line"/>
      <point x="490" y="736" type="line"/>
      <point x="409" y="736" type="line"/>
      <point x="382" y="736"/>
      <point x="382" y="706" type="qcurve"/>
      <point x="382" y="437" type="line"/>
      <point x="382" y="403"/>
      <point x="339" y="359"/>
      <point x="304" y="359" type="qcurve"/>
      <point x="298" y="359" type="line"/>
      <point x="298" y="341" type="line"/>
      <point x="304" y="341" type="line"/>
      <point x="339" y="341"/>
      <point x="382" y="297"/>
      <point x="382" y="263" type="qcurve"/>
      <point x="382" y="-6" type="line"/>
      <point x="382" y="-36"/>
      <point x="409" y="-36" type="qcurve"/>
      <point x="490" y="-36" type="line"/>
      <point x="490" y="-156" type="line"/>
      <point x="358" y="-156" type="line"/>
      <point x="313" y="-156"/>
      <point x="256" y="-99"/>
      <point x="256" y="-54" type="qcurve"/>
      <point x="256" y="249" type="line"/>
      <point x="256" y="278"/>
      <point x="229" y="278" type="qcurve"/>
      <point x="166" y="278" type="line"/>
      <point x="166" y="422" type="line"/>
      <point x="229" y="422" type="line"/>
      <point x="256" y="422"/>
      <point x="256" y="451" type="qcurve"/>
    </contour>
  </outline>
</glyph>
<glyph name="cent" format="1">
  <advance width="612"/>
  <unicode hex="00A2"/>
  <outline>
    <contour>
      <point x="360" y="608" type="line"/>
      <point x="438" y="596"/>
      <point x="542" y="496"/>
      <point x="554" y="422" type="qcurve"/>
      <point x="442" y="396" type="line"/>
      <point x="436" y="431"/>
      <point x="398" y="487"/>
      <point x="360" y="498" type="qcurve"/>
      <point x="360" y="202" type="line"/>
      <point x="398" y="213"/>
      <point x="436" y="272"/>
      <point x="444" y="304" type="qcurve"/>
      <point x="556" y="278" type="line"/>
      <point x="542" y="204"/>
      <point x="440" y="104"/>
      <point x="360" y="91" type="qcurve"/>
      <point x="360" y="28" type="line"/>
      <point x="264" y="28" type="line"/>
      <point x="264" y="91" type="line"/>
      <point x="220" y="98"/>
      <point x="144" y="138"/>
      <point x="88" y="202"/>
      <point x="56" y="288"/>
      <point x="56" y="342" type="qcurve"/>
      <point x="56" y="354" type="line"/>
      <point x="56" y="406"/>
      <point x="88" y="493"/>
      <point x="144" y="558"/>
      <point x="220" y="599"/>
      <point x="264" y="607" type="qcurve"/>
      <point x="264" y="672" type="line"/>
      <point x="360" y="672" type="line"/>
    </contour>
    <contour>
      <point x="170" y="345" type="line"/>
      <point x="170" y="289"/>
      <point x="222" y="218"/>
      <point x="264" y="204" type="qcurve"/>
      <point x="264" y="495" type="line"/>
      <point x="222" y="480"/>
      <point x="170" y="405"/>
      <point x="170" y="351" type="qcurve"/>
    </contour>
  </outline>
</glyph>
<glyph name="currency" format="1">
  <advance width="612"/>
  <unicode hex="00A4"/>
  <outline>
    <contour>
      <point x="56" y="350" type="qcurve"/>
      <point x="56" y="387"/>
      <point x="76" y="455"/>
      <point x="95" y="484" type="qcurve"/>
      <point x="34" y="545" type="line"/>
      <point x="111" y="622" type="line"/>
      <point x="172" y="561" type="line"/>
      <point x="201" y="579"/>
      <point x="268" y="600"/>
      <point x="306" y="600" type="qcurve"/>
      <point x="343" y="600"/>
      <point x="411" y="579"/>
      <point x="440" y="561" type="qcurve"/>
      <point x="501" y="622" type="line"/>
      <point x="578" y="545" type="line"/>
      <point x="517" y="484" type="line"/>
      <point x="535" y="455"/>
      <point x="556" y="387"/>
      <point x="556" y="350" type="qcurve"/>
      <point x="556" y="312"/>
      <point x="535" y="245"/>
      <point x="517" y="216" type="qcurve"/>
      <point x="578" y="155" type="line"/>
      <point x="501" y="78" type="line"/>
      <point x="440" y="139" type="line"/>
      <point x="411" y="120"/>
      <point x="343" y="100"/>
      <point x="306" y="100" type="qcurve"/>
      <point x="268" y="100"/>
      <point x="201" y="120"/>
      <point x="172" y="139" type="qcurve"/>
      <point x="111" y="78" type="line"/>
      <point x="34" y="155" type="line"/>
      <point x="95" y="216" type="line"/>
      <point x="76" y="245"/>
      <point x="56" y="312"/>
    </contour>
    <contour>
      <point x="164" y="350" type="qcurve"/>
      <point x="164" y="320"/>
      <point x="186" y="268"/>
      <point x="224" y="230"/>
      <point x="276" y="208"/>
      <point x="306" y="208" type="qcurve"/>
      <point x="336" y="208"/>
      <point x="388" y="230"/>
      <point x="426" y="268"/>
      <point x="448" y="320"/>
      <point x="448" y="350" type="qcurve"/>
      <point x="448" y="380"/>
      <point x="426" y="432"/>
      <point x="388" y="470"/>
      <point x="336" y="492"/>
      <point x="306" y="492" type="qcurve"/>
      <point x="276" y="492"/>
      <point x="224" y="470"/>
      <point x="186" y="432"/>
      <point x="164" y="380"/>
    </contour>
  </outline>
</glyph>
<glyph name="yen" format="1">
  <advance width="612"/>
  <unicode hex="00A5"/>
  <outline>
    <contour>
      <point x="115" y="390" type="line"/>
      <point x="172" y="390" type="line"/>
      <point x="85" y="598" type="line"/>
      <point x="219" y="598" type="line"/>
      <point x="300" y="390" type="line"/>
      <point x="312" y="390" type="line"/>
      <point x="393" y="598" type="line"/>
      <point x="527" y="598" type="line"/>
      <point x="440" y="390" type="line"/>
      <point x="497" y="390" type="line"/>
      <point x="497" y="294" type="line"/>
      <point x="369" y="294" type="line"/>
      <point x="369" y="264" type="line"/>
      <point x="497" y="264" type="line"/>
      <point x="497" y="168" type="line"/>
      <point x="369" y="168" type="line"/>
      <point x="369" y="102" type="line"/>
      <point x="243" y="102" type="line"/>
      <point x="243" y="168" type="line"/>
      <point x="115" y="168" type="line"/>
      <point x="115" y="264" type="line"/>
      <point x="243" y="264" type="line"/>
      <point x="243" y="294" type="line"/>
      <point x="115" y="294" type="line"/>
    </contour>
  </outline>
</glyph>
<glyph name="section" format="1">
  <advance width="612"/>
  <unicode hex="00A7"/>
  <outline>
    <contour>
      <point x="352" y="598" type="line"/>
      <point x="352" y="612"/>
      <point x="333" y="630"/>
      <point x="310" y="630" type="qcurve"/>
      <point x="292" y="630"/>
      <point x="274" y="616"/>
      <point x="274" y="606" type="qcurve"/>
      <point x="274" y="592"/>
      <point x="298" y="577"/>
      <point x="340" y="569" type="qcurve"/>
      <point x="394" y="559"/>
      <point x="452" y="503"/>
      <point x="452" y="452" type="qcurve"/>
      <point x="452" y="436"/>
      <point x="444" y="402"/>
      <point x="434" y="388" type="qcurve"/>
      <point x="439" y="379"/>
      <point x="446" y="353"/>
      <point x="446" y="336" type="qcurve"/>
      <point x="446" y="285"/>
      <point x="375" y="218"/>
      <point x="312" y="218" type="qcurve"/>
      <point x="241" y="218"/>
      <point x="168" y="292"/>
      <point x="168" y="347" type="qcurve"/>
      <point x="168" y="353" type="line"/>
      <point x="258" y="353" type="line"/>
      <point x="258" y="347" type="line"/>
      <point x="258" y="325"/>
      <point x="288" y="302"/>
      <point x="312" y="302" type="qcurve"/>
      <point x="336" y="302"/>
      <point x="356" y="320"/>
      <point x="356" y="332" type="qcurve"/>
      <point x="356" y="338"/>
      <point x="352" y="349"/>
      <point x="340" y="359"/>
      <point x="315" y="367"/>
      <point x="294" y="371" type="qcurve"/>
      <point x="272" y="375"/>
      <point x="230" y="391"/>
      <point x="198" y="418"/>
      <point x="178" y="458"/>
      <point x="178" y="486" type="qcurve"/>
      <point x="178" y="507"/>
      <point x="189" y="540"/>
      <point x="197" y="551" type="qcurve"/>
      <point x="191" y="563"/>
      <point x="184" y="588"/>
      <point x="184" y="606" type="qcurve"/>
      <point x="184" y="658"/>
      <point x="257" y="714"/>
      <point x="310" y="714" type="qcurve"/>
      <point x="342" y="714"/>
      <point x="392" y="696"/>
      <point x="425" y="665"/>
      <point x="442" y="623"/>
      <point x="442" y="600" type="qcurve"/>
      <point x="442" y="594" type="line"/>
      <point x="352" y="594" type="line"/>
    </contour>
    <contour>
      <point x="356" y="441" type="line"/>
      <point x="358" y="445"/>
      <point x="358" y="451" type="qcurve"/>
      <point x="358" y="465"/>
      <point x="340" y="484"/>
      <point x="311" y="491" type="qcurve"/>
      <point x="275" y="499" type="line"/>
      <point x="272" y="494"/>
      <point x="272" y="487" type="qcurve"/>
      <point x="272" y="477"/>
      <point x="288" y="458"/>
      <point x="320" y="450" type="qcurve"/>
    </contour>
  </outline>
</glyph>
<glyph name="dieresis" format="1">
  <advance width="612"/>
  <unicode hex="00A8"/>
  <outline>
    <contour>
      <point x="282" y="643" type="qcurve"/>
      <point x="282" y="623"/>
      <point x="267" y="588"/>
      <point x="241" y="563"/>
      <point x="206" y="548"/>
      <point x="187" y="548" type="qcurve"/>
      <point x="167" y="548"/>
      <point x="133" y="563"/>
      <point x="107" y="588"/>
      <point x="92" y="623"/>
      <point x="92" y="643" type="qcurve"/>
      <point x="92" y="663"/>
      <point x="107" y="698"/>
      <point x="133" y="723"/>
      <point x="167" y="738"/>
      <point x="187" y="738" type="qcurve"/>
      <point x="206" y="738"/>
      <point x="241" y="723"/>
      <point x="267" y="698"/>
      <point x="282" y="663"/>
    </contour>
    <contour>
      <point x="520" y="643" type="qcurve"/>
      <point x="520" y="623"/>
      <point x="505" y="588"/>
      <point x="479" y="563"/>
      <point x="444" y="548"/>
      <point x="425" y="548" type="qcurve"/>
      <point x="405" y="548"/>
      <point x="371" y="563"/>
      <point x="345" y="588"/>
      <point x="330" y="623"/>
      <point x="330" y="643" type="qcurve"/>
      <point x="330" y="663"/>
      <point x="345" y="698"/>
      <point x="371" y="723"/>
      <point x="405" y="738"/>
      <point x="425" y="738" type="qcurve"/>
      <point x="444" y="738"/>
      <point x="479" y="723"/>
      <point x="505" y="698"/>
      <point x="520" y="663"/>
    </contour>
  </outline>
</glyph>
<glyph name="ordfeminine" format="1">
  <advance width="612"/>
  <unicode hex="00AA"/>
  <outline>
    <contour>
      <point x="347" y="446" type="line"/>
      <point x="337" y="428"/>
      <point x="299" y="406"/>
      <point x="270" y="406" type="qcurve"/>
      <point x="243" y="406"/>
      <point x="195" y="426"/>
      <point x="159" y="464"/>
      <point x="138" y="520"/>
      <point x="138" y="556" type="qcurve"/>
      <point x="138" y="592"/>
      <point x="159" y="647"/>
      <point x="195" y="686"/>
      <point x="244" y="706"/>
      <point x="272" y="706" type="qcurve"/>
      <point x="302" y="706"/>
      <point x="336" y="687"/>
      <point x="347" y="672" type="qcurve"/>
      <point x="356" y="672" type="line"/>
      <point x="356" y="700" type="line"/>
      <point x="436" y="700" type="line"/>
      <point x="436" y="507" type="line"/>
      <point x="436" y="490"/>
      <point x="452" y="490" type="qcurve"/>
      <point x="472" y="490" type="line"/>
      <point x="472" y="412" type="line"/>
      <point x="396" y="412" type="line"/>
      <point x="378" y="412"/>
      <point x="358" y="431"/>
      <point x="356" y="446" type="qcurve"/>
    </contour>
    <contour>
      <point x="287" y="484" type="qcurve"/>
      <point x="317" y="484"/>
      <point x="352" y="523"/>
      <point x="352" y="556" type="qcurve"/>
      <point x="352" y="589"/>
      <point x="317" y="628"/>
      <point x="287" y="628" type="qcurve"/>
      <point x="257" y="628"/>
      <point x="222" y="589"/>
      <point x="222" y="556" type="qcurve"/>
      <point x="222" y="523"/>
      <point x="257" y="484"/>
    </contour>
  </outline>
</glyph>
<glyph name="macron" format="1">
  <advance width="612"/>
  <unicode hex="00AF"/>
  <outline>
    <contour>
      <point x="453" y="570" type="line"/>
      <point x="159" y="570" type="line"/>
      <point x="159" y="672" type="line"/>
      <point x="453" y="672" type="line"/>
    </contour>
  </outline>
</glyph>
<glyph name="plusminus" format="1">
  <advance width="612"/>
  <unicode hex="00B1"/>
  <outline>
    <contour>
      <point x="97" y="407" type="line"/>
      <point x="249" y="407" type="line"/>
      <point x="249" y="559" type="line"/>
      <point x="363" y="559" type="line"/>
      <point x="363" y="407" type="line"/>
      <point x="515" y="407" type="line"/>
      <point x="515" y="293" type="line"/>
      <point x="363" y="293" type="line"/>
      <point x="363" y="162" type="line"/>
      <point x="249" y="162" type="line"/>
      <point x="249" y="293" type="line"/>
      <point x="97" y="293" type="line"/>
    </contour>
    <contour>
      <point x="97" y="114" type="line"/>
      <point x="515" y="114" type="line"/>
      <point x="515" y="0" type="line"/>
      <point x="97" y="0" type="line"/>
    </contour>
  </outline>
</glyph>
<glyph name="paragraph" format="1">
  <advance width="612"/>
  <unicode hex="00B6"/>
  <outline>
    <contour>
      <point x="261" y="424" type="line"/>
      <point x="249" y="424" type="line"/>
      <point x="219" y="424"/>
      <point x="166" y="447"/>
      <point x="127" y="486"/>
      <point x="105" y="539"/>
      <point x="105" y="569" type="qcurve"/>
      <point x="105" y="599"/>
      <point x="127" y="652"/>
      <point x="166" y="691"/>
      <point x="219" y="714"/>
      <point x="249" y="714" type="qcurve"/>
      <point x="507" y="714" type="line"/>
      <point x="507" y="218" type="line"/>
      <point x="399" y="218" type="line"/>
      <point x="399" y="612" type="line"/>
      <point x="369" y="612" type="line"/>
      <point x="369" y="218" type="line"/>
      <point x="261" y="218" type="line"/>
    </contour>
    <contour>
      <point x="261" y="526" type="line"/>
      <point x="261" y="612" type="line"/>
      <point x="249" y="612" type="line"/>
      <point x="232" y="612"/>
      <point x="207" y="591"/>
      <point x="207" y="569" type="qcurve"/>
      <point x="207" y="547"/>
      <point x="232" y="526"/>
      <point x="249" y="526" type="qcurve"/>
    </contour>
  </outline>
</glyph>
<glyph name="periodcentered" format="1">
  <advance width="612"/>
  <unicode hex="00B7"/>
  <outline>
    <contour>
      <point x="401" y="350" type="qcurve"/>
      <point x="401" y="330"/>
      <point x="386" y="295"/>
      <point x="360" y="270"/>
      <point x="325" y="255"/>
      <point x="306" y="255" type="qcurve"/>
      <point x="286" y="255"/>
      <point x="252" y="270"/>
      <point x="226" y="295"/>
      <point x="211" y="330"/>
      <point x="211" y="350" type="qcurve"/>
      <point x="211" y="370"/>
      <point x="226" y="405"/>
      <point x="252" y="430"/>
      <point x="286" y="445"/>
      <point x="306" y="445" type="qcurve"/>
      <point x="325" y="445"/>
      <point x="360" y="430"/>
      <point x="386" y="405"/>
      <point x="401" y="370"/>
    </contour>
  </outline>
</glyph>
<glyph name="cedilla" format="1">
  <advance width="612"/>
  <unicode hex="00B8"/>
  <outline>
    <contour>
      <point x="300" y="0" type="line"/>
      <point x="290" y="-46" type="line"/>
      <point x="302" y="-46" type="line"/>
      <point x="307" y="-37"/>
      <point x="329" y="-24"/>
      <point x="348" y="-24" type="qcurve"/>
      <point x="390" y="-24"/>
      <point x="431" y="-76"/>
      <point x="431" y="-112" type="qcurve"/>
      <point x="431" y="-159"/>
      <point x="368" y="-212"/>
      <point x="321" y="-212" type="qcurve"/>
      <point x="292" y="-212"/>
      <point x="254" y="-201"/>
      <point x="237" y="-192" type="qcurve"/>
      <point x="263" y="-124" type="line"/>
      <point x="286" y="-138"/>
      <point x="313" y="-138" type="qcurve"/>
      <point x="328" y="-138"/>
      <point x="347" y="-124"/>
      <point x="347" y="-112" type="qcurve"/>
      <point x="347" y="-103"/>
      <point x="337" y="-90"/>
      <point x="327" y="-90" type="qcurve"/>
      <point x="310" y="-90"/>
      <point x="307" y="-104" type="qcurve"/>
      <point x="210" y="-104" type="line"/>
      <point x="210" y="-92" type="line"/>
      <point x="230" y="0" type="line"/>
    </contour>
  </outline>
</glyph>
<glyph name="ordmasculine" format="1">
  <advance width="612"/>
  <unicode hex="00BA"/>
  <outline>
    <contour>
      <point x="157" y="556" type="qcurve"/>
      <point x="157" y="593"/>
      <point x="181" y="649"/>
      <point x="222" y="687"/>
      <point x="276" y="706"/>
      <point x="306" y="706" type="qcurve"/>
      <point x="336" y="706"/>
      <point x="390" y="687"/>
      <point x="431" y="649"/>
      <point x="455" y="593"/>
      <point x="455" y="556" type="qcurve"/>
      <point x="455" y="519"/>
      <point x="431" y="463"/>
      <point x="390" y="425"/>
      <point x="336" y="406"/>
      <point x="306" y="406" type="qcurve"/>
      <point x="276" y="406"/>
      <point x="222" y="425"/>
      <point x="181" y="463"/>
      <point x="157" y="519"/>
    </contour>
    <contour>
      <point x="306" y="484" type="qcurve"/>
      <point x="337" y="484"/>
      <point x="371" y="523"/>
      <point x="371" y="556" type="qcurve"/>
      <point x="371" y="589"/>
      <point x="337" y="628"/>
      <point x="306" y="628" type="qcurve"/>
      <point x="275" y="628"/>
      <point x="241" y="589"/>
      <point x="241" y="556" type="qcurve"/>
      <point x="241" y="523"/>
      <point x="275" y="484"/>
    </contour>
  </outline>
</glyph>
<glyph name="Ccedilla" format="1">
  <advance width="612"/>
  <unicode hex="00C7"/>
  <outline>
    <contour>
      <point x="308" y="106" type="qcurve"/>
      <point x="346" y="106"/>
      <point x="395" y="129"/>
      <point x="422" y="168"/>
      <point x="432" y="219"/>
      <point x="432" y="246" type="qcurve"/>
      <point x="432" y="264" type="line"/>
      <point x="564" y="264" type="line"/>
      <point x="564" y="246" type="line"/>
      <point x="564" y="129"/>
      <point x="449" y="-4"/>
      <point x="340" y="-13" type="qcurve"/>
      <point x="333" y="-46" type="line"/>
      <point x="345" y="-46" type="line"/>
      <point x="350" y="-37"/>
      <point x="372" y="-24"/>
      <point x="391" y="-24" type="qcurve"/>
      <point x="433" y="-24"/>
      <point x="474" y="-76"/>
      <point x="474" y="-112" type="qcurve"/>
      <point x="474" y="-159"/>
      <point x="411" y="-212"/>
      <point x="364" y="-212" type="qcurve"/>
      <point x="335" y="-212"/>
      <point x="297" y="-201"/>
      <point x="280" y="-192" type="qcurve"/>
      <point x="306" y="-124" type="line"/>
      <point x="329" y="-138"/>
      <point x="356" y="-138" type="qcurve"/>
      <point x="371" y="-138"/>
      <point x="390" y="-124"/>
      <point x="390" y="-112" type="qcurve"/>
      <point x="390" y="-103"/>
      <point x="380" y="-90"/>
      <point x="370" y="-90" type="qcurve"/>
      <point x="353" y="-90"/>
      <point x="350" y="-104" type="qcurve"/>
      <point x="253" y="-104" type="line"/>
      <point x="253" y="-92" type="line"/>
      <point x="270" y="-12" type="line"/>
      <point x="166" y="-1"/>
      <point x="48" y="143"/>
      <point x="48" y="272" type="qcurve"/>
      <point x="48" y="428" type="line"/>
      <point x="48" y="495"/>
      <point x="84" y="602"/>
      <point x="152" y="675"/>
      <point x="248" y="714"/>
      <point x="308" y="714" type="qcurve"/>
      <point x="370" y="714"/>
      <point x="466" y="678"/>
      <point x="531" y="610"/>
      <point x="564" y="514"/>
      <point x="564" y="454" type="qcurve"/>
      <point x="564" y="436" type="line"/>
      <point x="432" y="436" type="line"/>
      <point x="432" y="454" type="line"/>
      <point x="432" y="479"/>
      <point x="420" y="529"/>
      <point x="392" y="569"/>
      <point x="344" y="594"/>
      <point x="308" y="594" type="qcurve"/>
      <point x="275" y="594"/>
      <point x="227" y="569"/>
      <point x="195" y="526"/>
      <point x="180" y="469"/>
      <point x="180" y="438" type="qcurve"/>
      <point x="180" y="262" type="line"/>
      <point x="180" y="228"/>
      <point x="194" y="171"/>
      <point x="224" y="129"/>
      <point x="273" y="106"/>
    </contour>
  </outline>
</glyph>
<glyph name="Oslash" format="1">
  <advance width="612"/>
  <unicode hex="00D8"/>
  <outline>
    <contour>
      <point x="48" y="428" type="line"/>
      <point x="48" y="564"/>
      <point x="185" y="714"/>
      <point x="306" y="714" type="qcurve"/>
      <point x="337" y="714"/>
      <point x="366" y="708" type="qcurve"/>
      <point x="390" y="781" type="line"/>
      <point x="499" y="747" type="line"/>
      <point x="471" y="661" type="line"/>
      <point x="516" y="624"/>
      <point x="564" y="507"/>
      <point x="564" y="428" type="qcurve"/>
      <point x="564" y="272" type="line"/>
      <point x="564" y="132"/>
      <point x="427" y="-14"/>
      <point x="306" y="-14" type="qcurve"/>
      <point x="274" y="-14"/>
      <point x="251" y="-10" type="qcurve"/>
      <point x="224" y="-93" type="line"/>
      <point x="114" y="-59" type="line"/>
      <point x="144" y="34" type="line"/>
      <point x="97" y="69"/>
      <point x="48" y="188"/>
      <point x="48" y="272" type="qcurve"/>
    </contour>
    <contour>
      <point x="180" y="264" type="line"/>
      <point x="180" y="239"/>
      <point x="185" y="197"/>
      <point x="192" y="179" type="qcurve"/>
      <point x="328" y="592" type="line"/>
      <point x="323" y="593"/>
      <point x="311" y="594"/>
      <point x="306" y="594" type="qcurve"/>
      <point x="272" y="594"/>
      <point x="224" y="569"/>
      <point x="194" y="527"/>
      <point x="180" y="469"/>
      <point x="180" y="436" type="qcurve"/>
    </contour>
    <contour>
      <point x="306" y="106" type="line"/>
      <point x="342" y="106"/>
      <point x="390" y="129"/>
      <point x="420" y="171"/>
      <point x="432" y="229"/>
      <point x="432" y="264" type="qcurve"/>
      <point x="432" y="436" type="line"/>
      <point x="432" y="456"/>
      <point x="427" y="493"/>
      <point x="421" y="510" type="qcurve"/>
      <point x="289" y="106" type="line"/>
    </contour>
  </outline>
</glyph>
<glyph name="germandbls" format="1">
  <advance width="612"/>
  <unicode hex="00DF"/>
  <outline>
    <contour>
      <point x="350" y="346" type="line"/>
      <point x="394" y="346" type="line"/>
      <point x="429" y="346"/>
      <point x="497" y="326"/>
      <point x="550" y="282"/>
      <point x="582" y="214"/>
      <point x="582" y="166" type="qcurve"/>
      <point x="582" y="160" type="line"/>
      <point x="582" y="122"/>
      <point x="558" y="59"/>
      <point x="512" y="12"/>
      <point x="444" y="-14"/>
      <point x="400" y="-14" type="qcurve"/>
      <point x="360" y="-14"/>
      <point x="299" y="10"/>
      <point x="257" y="51"/>
      <point x="233" y="103"/>
      <point x="230" y="132" type="qcurve"/>
      <point x="352" y="156" type="line"/>
      <point x="354" y="135"/>
      <point x="378" y="106"/>
      <point x="404" y="106" type="qcurve"/>
      <point x="430" y="106"/>
      <point x="456" y="138"/>
      <point x="456" y="164" type="qcurve"/>
      <point x="456" y="203"/>
      <point x="405" y="238"/>
      <point x="360" y="238" type="qcurve"/>
      <point x="266" y="238" type="line"/>
      <point x="266" y="466" type="line"/>
      <point x="304" y="466" type="line"/>
      <point x="334" y="466"/>
      <point x="374" y="496"/>
      <point x="374" y="528" type="qcurve"/>
      <point x="374" y="557"/>
      <point x="330" y="594"/>
      <point x="294" y="594" type="qcurve"/>
      <point x="252" y="594"/>
      <point x="200" y="544"/>
      <point x="200" y="496" type="qcurve"/>
      <point x="200" y="0" type="line"/>
      <point x="74" y="0" type="line"/>
      <point x="74" y="376" type="line"/>
      <point x="14" y="376" type="line"/>
      <point x="14" y="496" type="line"/>
      <point x="74" y="496" type="line"/>
      <point x="74" y="514" type="line"/>
      <point x="74" y="563"/>
      <point x="109" y="638"/>
      <point x="168" y="689"/>
      <point x="246" y="714"/>
      <point x="290" y="714" type="qcurve"/>
      <point x="333" y="714"/>
      <point x="410" y="689"/>
      <point x="467" y="641"/>
      <point x="500" y="574"/>
      <point x="500" y="532" type="qcurve"/>
      <point x="500" y="526" type="line"/>
      <point x="500" y="487"/>
      <point x="477" y="428"/>
      <point x="436" y="388"/>
      <point x="381" y="365"/>
      <point x="350" y="364" type="qcurve"/>
    </contour>
  </outline>
</glyph>
<glyph name="eth" format="1">
  <advance width="612"/>
  <unicode hex="00F0"/>
  <outline>
    <contour>
      <point x="358" y="723" type="line"/>
      <point x="345" y="681" type="line"/>
      <point x="403" y="653"/>
      <point x="487" y="572"/>
      <point x="540" y="472"/>
      <point x="565" y="355"/>
      <point x="565" y="291" type="qcurve"/>
      <point x="565" y="215"/>
      <point x="525" y="101"/>
      <point x="455" y="24"/>
      <point x="358" y="-14"/>
      <point x="301" y="-14" type="qcurve"/>
      <point x="249" y="-14"/>
      <point x="157" y="21"/>
      <point x="88" y="87"/>
      <point x="47" y="182"/>
      <point x="47" y="242" type="qcurve"/>
      <point x="47" y="254" type="line"/>
      <point x="47" y="315"/>
      <point x="83" y="410"/>
      <point x="144" y="476"/>
      <point x="223" y="510"/>
      <point x="267" y="510" type="qcurve"/>
      <point x="314" y="510"/>
      <point x="371" y="488"/>
      <point x="391" y="464" type="qcurve"/>
      <point x="409" y="464" type="line"/>
      <point x="395" y="499"/>
      <point x="345" y="551"/>
      <point x="310" y="570" type="qcurve"/>
      <point x="298" y="532" type="line"/>
      <point x="200" y="561" type="line"/>
      <point x="213" y="603" type="line"/>
      <point x="197" y="607"/>
      <point x="164" y="612"/>
      <point x="147" y="614" type="qcurve"/>
      <point x="167" y="728" type="line"/>
      <point x="188" y="726"/>
      <point x="228" y="719"/>
      <point x="248" y="714" type="qcurve"/>
      <point x="260" y="752" type="line"/>
    </contour>
    <contour>
      <point x="302" y="106" type="qcurve"/>
      <point x="360" y="106"/>
      <point x="432" y="179"/>
      <point x="432" y="254" type="qcurve"/>
      <point x="432" y="317"/>
      <point x="360" y="390"/>
      <point x="302" y="390" type="qcurve"/>
      <point x="244" y="390"/>
      <point x="173" y="314"/>
      <point x="173" y="251" type="qcurve"/>
      <point x="173" y="245" type="line"/>
      <point x="173" y="179"/>
      <point x="244" y="106"/>
    </contour>
  </outline>
</glyph>
<glyph name="aogonek" format="1">
  <advance width="612"/>
  <unicode hex="0105"/>
  <outline>
    <contour>
      <point x="399" y="72" type="line"/>
      <point x="379" y="25"/>
      <point x="307" y="-14"/>
      <point x="259" y="-14" type="qcurve"/>
      <point x="214" y="-14"/>
      <point x="135" y="20"/>
      <point x="75" y="86"/>
      <point x="40" y="180"/>
      <point x="40" y="240" type="qcurve"/>
      <point x="40" y="256" type="line"/>
      <point x="40" y="315"/>
      <point x="74" y="409"/>
      <point x="132" y="475"/>
      <point x="209" y="510"/>
      <point x="253" y="510" type="qcurve"/>
      <point x="306" y="510"/>
      <point x="371" y="474"/>
      <point x="390" y="436" type="qcurve"/>
      <point x="408" y="436" type="line"/>
      <point x="408" y="496" type="line"/>
      <point x="534" y="496" type="line"/>
      <point x="534" y="150" type="line"/>
      <point x="534" y="120"/>
      <point x="561" y="120" type="qcurve"/>
      <point x="580" y="120" type="line"/>
      <point x="580" y="0" type="line"/>
      <point x="525" y="0" type="line"/>
      <point x="512" y="-56" type="line"/>
      <point x="511" y="-61"/>
      <point x="511" y="-64" type="qcurve"/>
      <point x="511" y="-86"/>
      <point x="534" y="-86" type="qcurve"/>
      <point x="580" y="-86" type="line"/>
      <point x="580" y="-170" type="line"/>
      <point x="500" y="-170" type="line"/>
      <point x="470" y="-170"/>
      <point x="420" y="-132"/>
      <point x="420" y="-95" type="qcurve"/>
      <point x="420" y="-86"/>
      <point x="423" y="-72" type="qcurve"/>
      <point x="443" y="16" type="line"/>
      <point x="417" y="37"/>
      <point x="417" y="72" type="qcurve"/>
    </contour>
    <contour>
      <point x="287" y="106" type="qcurve"/>
      <point x="342" y="106"/>
      <point x="408" y="179"/>
      <point x="408" y="242" type="qcurve"/>
      <point x="408" y="254" type="line"/>
      <point x="408" y="317"/>
      <point x="342" y="390"/>
      <point x="287" y="390" type="qcurve"/>
      <point x="232" y="390"/>
      <point x="166" y="317"/>
      <point x="166" y="254" type="qcurve"/>
      <point x="166" y="242" type="line"/>
      <point x="166" y="179"/>
      <point x="232" y="106"/>
    </contour>
  </outline>
</glyph>
<glyph name="Dcroat" format="1">
  <advance width="612"/>
  <unicode hex="0110"/>
  <outline>
    <contour>
      <point x="46" y="410" type="line"/>
      <point x="112" y="410" type="line"/>
      <point x="112" y="574" type="line"/>
      <point x="46" y="574" type="line"/>
      <point x="46" y="700" type="line"/>
      <point x="300" y="700" type="line"/>
      <point x="430" y="700"/>
      <point x="556" y="579"/>
      <point x="556" y="452" type="qcurve"/>
      <point x="556" y="248" type="line"/>
      <point x="556" y="121"/>
      <point x="430" y="0"/>
      <point x="300" y="0" type="qcurve"/>
      <point x="46" y="0" type="line"/>
      <point x="46" y="126" type="line"/>
      <point x="112" y="126" type="line"/>
      <point x="112" y="290" type="line"/>
      <point x="46" y="290" type="line"/>
    </contour>
    <contour>
      <point x="300" y="126" type="line"/>
      <point x="369" y="126"/>
      <point x="424" y="191"/>
      <point x="424" y="260" type="qcurve"/>
      <point x="424" y="452" type="line"/>
      <point x="424" y="512"/>
      <point x="369" y="574"/>
      <point x="300" y="574" type="qcurve"/>
      <point x="244" y="574" type="line"/>
      <point x="244" y="410" type="line"/>
      <point x="342" y="410" type="line"/>
      <point x="342" y="290" type="line"/>
      <point x="244" y="290" type="line"/>
      <point x="244" y="126" type="line"/>
    </contour>
  </outline>
</glyph>
<glyph name="dcroat" format="1">
  <advance width="612"/>
  <unicode hex="0111"/>
  <outline>
    <contour>
      <point x="426" y="72" type="line"/>
      <point x="408" y="72" type="line"/>
      <point x="400" y="55"/>
      <point x="377" y="24"/>
      <point x="340" y="0"/>
      <point x="289" y="-14"/>
      <point x="253" y="-14" type="qcurve"/>
      <point x="207" y="-14"/>
      <point x="128" y="19"/>
      <point x="69" y="84"/>
      <point x="36" y="178"/>
      <point x="36" y="239" type="qcurve"/>
      <point x="36" y="257" type="line"/>
      <point x="36" y="317"/>
      <point x="71" y="411"/>
      <point x="132" y="476"/>
      <point x="213" y="510"/>
      <point x="258" y="510" type="qcurve"/>
      <point x="318" y="510"/>
      <point x="388" y="465"/>
      <point x="408" y="424" type="qcurve"/>
      <point x="426" y="424" type="line"/>
      <point x="426" y="538" type="line"/>
      <point x="270" y="538" type="line"/>
      <point x="270" y="652" type="line"/>
      <point x="426" y="652" type="line"/>
      <point x="426" y="700" type="line"/>
      <point x="552" y="700" type="line"/>
      <point x="552" y="652" type="line"/>
      <point x="612" y="652" type="line"/>
      <point x="612" y="538" type="line"/>
      <point x="552" y="538" type="line"/>
      <point x="552" y="0" type="line"/>
      <point x="426" y="0" type="line"/>
    </contour>
    <contour>
      <point x="294" y="106" type="qcurve"/>
      <point x="353" y="106"/>
      <point x="426" y="181"/>
      <point x="426" y="242" type="qcurve"/>
      <point x="426" y="254" type="line"/>
      <point x="426" y="315"/>
      <point x="353" y="390"/>
      <point x="294" y="390" type="qcurve"/>
      <point x="235" y="390"/>
      <point x="162" y="317"/>
      <point x="162" y="254" type="qcurve"/>
      <point x="162" y="242" type="line"/>
      <point x="162" y="179"/>
      <point x="235" y="106"/>
    </contour>
  </outline>
</glyph>
<glyph name="Eogonek" format="1">
  <advance width="612"/>
  <unicode hex="0118"/>
  <outline>
    <contour>
      <point x="82" y="700" type="line"/>
      <point x="524" y="700" type="line"/>
      <point x="524" y="574" type="line"/>
      <point x="214" y="574" type="line"/>
      <point x="214" y="414" type="line"/>
      <point x="512" y="414" type="line"/>
      <point x="512" y="288" type="line"/>
      <point x="214" y="288" type="line"/>
      <point x="214" y="126" type="line"/>
      <point x="536" y="126" type="line"/>
      <point x="536" y="0" type="line"/>
      <point x="523" y="-56" type="line"/>
      <point x="522" y="-61"/>
      <point x="522" y="-64" type="qcurve"/>
      <point x="522" y="-86"/>
      <point x="545" y="-86" type="qcurve"/>
      <point x="591" y="-86" type="line"/>
      <point x="591" y="-170" type="line"/>
      <point x="511" y="-170" type="line"/>
      <point x="481" y="-170"/>
      <point x="431" y="-132"/>
      <point x="431" y="-95" type="qcurve"/>
      <point x="431" y="-86"/>
      <point x="434" y="-72" type="qcurve"/>
      <point x="450" y="0" type="line"/>
      <point x="82" y="0" type="line"/>
    </contour>
  </outline>
</glyph>
<glyph name="uni0122" format="1">
  <advance width="612"/>
  <unicode hex="0122"/>
  <outline>
    <contour>
      <point x="361" y="-248" type="line"/>
      <point x="361" y="-286"/>
      <point x="309" y="-338"/>
      <point x="271" y="-338" type="qcurve"/>
      <point x="211" y="-338" type="line"/>
      <point x="211" y="-260" type="line"/>
      <point x="256" y="-260" type="line"/>
      <point x="283" y="-260"/>
      <point x="283" y="-230" type="qcurve"/>
      <point x="283" y="-218" type="line"/>
      <point x="274" y="-218" type="line"/>
      <point x="256" y="-218"/>
      <point x="225" y="-204"/>
      <point x="201" y="-180"/>
      <point x="187" y="-149"/>
      <point x="187" y="-131" type="qcurve"/>
      <point x="187" y="-113"/>
      <point x="201" y="-82"/>
      <point x="225" y="-58"/>
      <point x="256" y="-44"/>
      <point x="274" y="-44" type="qcurve"/>
      <point x="292" y="-44"/>
      <point x="323" y="-58"/>
      <point x="347" y="-82"/>
      <point x="361" y="-113"/>
      <point x="361" y="-131" type="qcurve"/>
    </contour>
    <component base="G"/>
  </outline>
</glyph>
<glyph name="Iogonek" format="1">
  <advance width="612"/>
  <unicode hex="012E"/>
  <outline>
    <contour>
      <point x="72" y="700" type="line"/>
      <point x="540" y="700" type="line"/>
      <point x="540" y="574" type="line"/>
      <point x="372" y="574" type="line"/>
      <point x="372" y="126" type="line"/>
      <point x="540" y="126" type="line"/>
      <point x="540" y="0" type="line"/>
      <point x="527" y="-56" type="line"/>
      <point x="526" y="-61"/>
      <point x="526" y="-64" type="qcurve"/>
      <point x="526" y="-86"/>
      <point x="549" y="-86" type="qcurve"/>
      <point x="595" y="-86" type="line"/>
      <point x="595" y="-170" type="line"/>
      <point x="515" y="-170" type="line"/>
      <point x="485" y="-170"/>
      <point x="435" y="-132"/>
      <point x="435" y="-95" type="qcurve"/>
      <point x="435" y="-86"/>
      <point x="438" y="-72" type="qcurve"/>
      <point x="454" y="0" type="line"/>
      <point x="72" y="0" type="line"/>
      <point x="72" y="126" type="line"/>
      <point x="240" y="126" type="line"/>
      <point x="240" y="574" type="line"/>
      <point x="72" y="574" type="line"/>
    </contour>
  </outline>
</glyph>
<glyph name="iogonek" format="1">
  <advance width="612"/>
  <unicode hex="012F"/>
  <outline>
    <contour>
      <point x="87" y="120" type="line"/>
      <point x="255" y="120" type="line"/>
      <point x="255" y="376" type="line"/>
      <point x="99" y="376" type="line"/>
      <point x="99" y="496" type="line"/>
      <point x="381" y="496" type="line"/>
      <point x="381" y="120" type="line"/>
      <point x="525" y="120" type="line"/>
      <point x="525" y="0" type="line"/>
      <point x="512" y="-56" type="line"/>
      <point x="511" y="-61"/>
      <point x="511" y="-64" type="qcurve"/>
      <point x="511" y="-86"/>
      <point x="534" y="-86" type="qcurve"/>
      <point x="580" y="-86" type="line"/>
      <point x="580" y="-170" type="line"/>
      <point x="500" y="-170" type="line"/>
      <point x="470" y="-170"/>
      <point x="420" y="-132"/>
      <point x="420" y="-95" type="qcurve"/>
      <point x="420" y="-86"/>
      <point x="423" y="-72" type="qcurve"/>
      <point x="439" y="0" type="line"/>
      <point x="87" y="0" type="line"/>
    </contour>
    <contour>
      <point x="412" y="643" type="qcurve"/>
      <point x="412" y="623"/>
      <point x="397" y="588"/>
      <point x="371" y="563"/>
      <point x="336" y="548"/>
      <point x="317" y="548" type="qcurve"/>
      <point x="297" y="548"/>
      <point x="263" y="563"/>
      <point x="237" y="588"/>
      <point x="222" y="623"/>
      <point x="222" y="643" type="qcurve"/>
      <point x="222" y="663"/>
      <point x="237" y="698"/>
      <point x="263" y="723"/>
      <point x="297" y="738"/>
      <point x="317" y="738" type="qcurve"/>
      <point x="336" y="738"/>
      <point x="371" y="723"/>
      <point x="397" y="698"/>
      <point x="412" y="663"/>
    </contour>
  </outline>
</glyph>
<glyph name="ij" format="1">
  <advance width="612"/>
  <unicode hex="0133"/>
  <outline>
    <contour>
      <point x="411" y="496" type="line"/>
      <point x="537" y="496" type="line"/>
      <point x="537" y="-122" type="line"/>
      <point x="537" y="-156"/>
      <point x="494" y="-200"/>
      <point x="460" y="-200" type="qcurve"/>
      <point x="201" y="-200" type="line"/>
      <point x="201" y="-80" type="line"/>
      <point x="384" y="-80" type="line"/>
      <point x="411" y="-80"/>
      <point x="411" y="-50" type="qcurve"/>
      <point x="411" y="72" type="line"/>
      <point x="393" y="72" type="line"/>
      <point x="360" y="-14"/>
      <point x="251" y="-14" type="qcurve"/>
      <point x="214" y="-14"/>
      <point x="150" y="10"/>
      <point x="102" y="60"/>
      <point x="75" y="135"/>
      <point x="75" y="186" type="qcurve"/>
      <point x="75" y="496" type="line"/>
      <point x="201" y="496" type="line"/>
      <point x="201" y="212" type="line"/>
      <point x="201" y="159"/>
      <point x="251" y="100"/>
      <point x="301" y="100" type="qcurve"/>
      <point x="358" y="100"/>
      <point x="411" y="173"/>
      <point x="411" y="236" type="qcurve"/>
    </contour>
    <contour>
      <point x="569" y="643" type="qcurve"/>
      <point x="569" y="623"/>
      <point x="554" y="588"/>
      <point x="528" y="563"/>
      <point x="493" y="548"/>
      <point x="474" y="548" type="qcurve"/>
      <point x="454" y="548"/>
      <point x="420" y="563"/>
      <point x="394" y="588"/>
      <point x="379" y="623"/>
      <point x="379" y="643" type="qcurve"/>
      <point x="379" y="663"/>
      <point x="394" y="698"/>
      <point x="420" y="723"/>
      <point x="454" y="738"/>
      <point x="474" y="738" type="qcurve"/>
      <point x="493" y="738"/>
      <point x="528" y="723"/>
      <point x="554" y="698"/>
      <point x="569" y="663"/>
    </contour>
    <contour>
      <point x="233" y="643" type="qcurve"/>
      <point x="233" y="623"/>
      <point x="218" y="588"/>
      <point x="192" y="563"/>
      <point x="157" y="548"/>
      <point x="138" y="548" type="qcurve"/>
      <point x="118" y="548"/>
      <point x="84" y="563"/>
      <point x="58" y="588"/>
      <point x="43" y="623"/>
      <point x="43" y="643" type="qcurve"/>
      <point x="43" y="663"/>
      <point x="58" y="698"/>
      <point x="84" y="723"/>
      <point x="118" y="738"/>
      <point x="138" y="738" type="qcurve"/>
      <point x="157" y="738"/>
      <point x="192" y="723"/>
      <point x="218" y="698"/>
      <point x="233" y="663"/>
    </contour>
  </outline>
</glyph>
<glyph name="jcircumflex" format="1">
  <advance width="612"/>
  <unicode hex="0135"/>
  <outline>
    <contour>
      <point x="138" y="496" type="line"/>
      <point x="456" y="496" type="line"/>
      <point x="456" y="-98" type="line"/>
      <point x="456" y="-150"/>
      <point x="400" y="-200"/>
      <point x="355" y="-200" type="qcurve"/>
      <point x="120" y="-200" type="line"/>
      <point x="120" y="-80" type="line"/>
      <point x="300" y="-80" type="line"/>
      <point x="330" y="-80"/>
      <point x="330" y="-47" type="qcurve"/>
      <point x="330" y="376" type="line"/>
      <point x="138" y="376" type="line"/>
    </contour>
    <component base="circumflex" xOffset="-9"/>
  </outline>
</glyph>
<glyph name="uni0136" format="1">
  <advance width="612"/>
  <unicode hex="0136"/>
  <outline>
    <contour>
      <point x="408" y="-248" type="line"/>
      <point x="408" y="-286"/>
      <point x="356" y="-338"/>
      <point x="318" y="-338" type="qcurve"/>
      <point x="258" y="-338" type="line"/>
      <point x="258" y="-260" type="line"/>
      <point x="303" y="-260" type="line"/>
      <point x="330" y="-260"/>
      <point x="330" y="-230" type="qcurve"/>
      <point x="330" y="-218" type="line"/>
      <point x="321" y="-218" type="line"/>
      <point x="303" y="-218"/>
      <point x="272" y="-204"/>
      <point x="248" y="-180"/>
      <point x="234" y="-149"/>
      <point x="234" y="-131" type="qcurve"/>
      <point x="234" y="-113"/>
      <point x="248" y="-82"/>
      <point x="272" y="-58"/>
      <point x="303" y="-44"/>
      <point x="321" y="-44" type="qcurve"/>
      <point x="339" y="-44"/>
      <point x="370" y="-58"/>
      <point x="394" y="-82"/>
      <point x="408" y="-113"/>
      <point x="408" y="-131" type="qcurve"/>
    </contour>
    <component base="K"/>
  </outline>
</glyph>
<glyph name="uni013B" format="1">
  <advance width="612"/>
  <unicode hex="013B"/>
  <outline>
    <contour>
      <point x="394" y="-248" type="line"/>
      <point x="394" y="-286"/>
      <point x="342" y="-338"/>
      <point x="304" y="-338" type="qcurve"/>
      <point x="244" y="-338" type="line"/>
      <point x="244" y="-260" type="line"/>
      <point x="289" y="-260" type="line"/>
      <point x="316" y="-260"/>
      <point x="316" y="-230" type="qcurve"/>
      <point x="316" y="-218" type="line"/>
      <point x="307" y="-218" type="line"/>
      <point x="289" y="-218"/>
      <point x="258" y="-204"/>
      <point x="234" y="-180"/>
      <point x="220" y="-149"/>
      <point x="220" y="-131" type="qcurve"/>
      <point x="220" y="-113"/>
      <point x="234" y="-82"/>
      <point x="258" y="-58"/>
      <point x="289" y="-44"/>
      <point x="307" y="-44" type="qcurve"/>
      <point x="325" y="-44"/>
      <point x="356" y="-58"/>
      <point x="380" y="-82"/>
      <point x="394" y="-113"/>
      <point x="394" y="-131" type="qcurve"/>
    </contour>
    <component base="L"/>
  </outline>
</glyph>
<glyph name="uni013C" format="1">
  <advance width="612"/>
  <unicode hex="013C"/>
  <outline>
    <contour>
      <point x="399" y="-248" type="line"/>
      <point x="399" y="-286"/>
      <point x="347" y="-338"/>
      <point x="309" y="-338" type="qcurve"/>
      <point x="249" y="-338" type="line"/>
      <point x="249" y="-260" type="line"/>
      <point x="294" y="-260" type="line"/>
      <point x="321" y="-260"/>
      <point x="321" y="-230" type="qcurve"/>
      <point x="321" y="-218" type="line"/>
      <point x="312" y="-218" type="line"/>
      <point x="294" y="-218"/>
      <point x="263" y="-204"/>
      <point x="239" y="-180"/>
      <point x="225" y="-149"/>
      <point x="225" y="-131" type="qcurve"/>
      <point x="225" y="-113"/>
      <point x="239" y="-82"/>
      <point x="263" y="-58"/>
      <point x="294" y="-44"/>
      <point x="312" y="-44" type="qcurve"/>
      <point x="330" y="-44"/>
      <point x="361" y="-58"/>
      <point x="385" y="-82"/>
      <point x="399" y="-113"/>
      <point x="399" y="-131" type="qcurve"/>
    </contour>
    <component base="l"/>
  </outline>
</glyph>
<glyph name="Lcaron" format="1">
  <advance width="612"/>
  <unicode hex="013D"/>
  <outline>
    <contour>
      <point x="531" y="496" type="line"/>
      <point x="531" y="458"/>
      <point x="479" y="406"/>
      <point x="441" y="406" type="qcurve"/>
      <point x="381" y="406" type="line"/>
      <point x="381" y="484" type="line"/>
      <point x="426" y="484" type="line"/>
      <point x="453" y="484"/>
      <point x="453" y="514" type="qcurve"/>
      <point x="453" y="526" type="line"/>
      <point x="444" y="526" type="line"/>
      <point x="426" y="526"/>
      <point x="395" y="540"/>
      <point x="371" y="564"/>
      <point x="357" y="595"/>
      <point x="357" y="613" type="qcurve"/>
      <point x="357" y="631"/>
      <point x="371" y="662"/>
      <point x="395" y="686"/>
      <point x="426" y="700"/>
      <point x="444" y="700" type="qcurve"/>
      <point x="462" y="700"/>
      <point x="493" y="686"/>
      <point x="517" y="662"/>
      <point x="531" y="631"/>
      <point x="531" y="613" type="qcurve"/>
    </contour>
    <component base="L"/>
  </outline>
</glyph>
<glyph name="lcaron" format="1">
  <advance width="612"/>
  <unicode hex="013E"/>
  <outline>
    <contour>
      <point x="547" y="496" type="line"/>
      <point x="547" y="458"/>
      <point x="495" y="406"/>
      <point x="457" y="406" type="qcurve"/>
      <point x="397" y="406" type="line"/>
      <point x="397" y="484" type="line"/>
      <point x="442" y="484" type="line"/>
      <point x="469" y="484"/>
      <point x="469" y="514" type="qcurve"/>
      <point x="469" y="526" type="line"/>
      <point x="460" y="526" type="line"/>
      <point x="442" y="526"/>
      <point x="411" y="540"/>
      <point x="387" y="564"/>
      <point x="373" y="595"/>
      <point x="373" y="613" type="qcurve"/>
      <point x="373" y="631"/>
      <point x="387" y="662"/>
      <point x="411" y="686"/>
      <point x="442" y="700"/>
      <point x="460" y="700" type="qcurve"/>
      <point x="478" y="700"/>
      <point x="509" y="686"/>
      <point x="533" y="662"/>
      <point x="547" y="631"/>
      <point x="547" y="613" type="qcurve"/>
    </contour>
    <component base="l" xOffset="-32"/>
  </outline>
</glyph>
<glyph name="uni0146" format="1">
  <advance width="612"/>
  <unicode hex="0146"/>
  <outline>
    <contour>
      <point x="402" y="-248" type="line"/>
      <point x="402" y="-286"/>
      <point x="350" y="-338"/>
      <point x="312" y="-338" type="qcurve"/>
      <point x="252" y="-338" type="line"/>
      <point x="252" y="-260" type="line"/>
      <point x="297" y="-260" type="line"/>
      <point x="324" y="-260"/>
      <point x="324" y="-230" type="qcurve"/>
      <point x="324" y="-218" type="line"/>
      <point x="315" y="-218" type="line"/>
      <point x="297" y="-218"/>
      <point x="266" y="-204"/>
      <point x="242" y="-180"/>
      <point x="228" y="-149"/>
      <point x="228" y="-131" type="qcurve"/>
      <point x="228" y="-113"/>
      <point x="242" y="-82"/>
      <point x="266" y="-58"/>
      <point x="297" y="-44"/>
      <point x="315" y="-44" type="qcurve"/>
      <point x="333" y="-44"/>
      <point x="364" y="-58"/>
      <point x="388" y="-82"/>
      <point x="402" y="-113"/>
      <point x="402" y="-131" type="qcurve"/>
    </contour>
    <component base="n"/>
  </outline>
</glyph>
<glyph name="Eng" format="1">
  <advance width="612"/>
  <unicode hex="014A"/>
  <outline>
    <contour>
      <point x="401" y="66" type="line"/>
      <point x="419" y="66" type="line"/>
      <point x="419" y="700" type="line"/>
      <point x="551" y="700" type="line"/>
      <point x="551" y="-98" type="line"/>
      <point x="551" y="-150"/>
      <point x="495" y="-200"/>
      <point x="450" y="-200" type="qcurve"/>
      <point x="244" y="-200" type="line"/>
      <point x="244" y="-74" type="line"/>
      <point x="389" y="-74" type="line"/>
      <point x="419" y="-74"/>
      <point x="419" y="-41" type="qcurve"/>
      <point x="419" y="0" type="line"/>
      <point x="295" y="0" type="line"/>
      <point x="211" y="634" type="line"/>
      <point x="193" y="634" type="line"/>
      <point x="193" y="0" type="line"/>
      <point x="61" y="0" type="line"/>
      <point x="61" y="700" type="line"/>
      <point x="317" y="700" type="line"/>
    </contour>
  </outline>
</glyph>
<glyph name="eng" format="1">
  <advance width="612"/>
  <unicode hex="014B"/>
  <outline>
    <contour>
      <point x="201" y="0" type="line"/>
      <point x="75" y="0" type="line"/>
      <point x="75" y="496" type="line"/>
      <point x="201" y="496" type="line"/>
      <point x="201" y="422" type="line"/>
      <point x="219" y="422" type="line"/>
      <point x="236" y="464"/>
      <point x="312" y="510"/>
      <point x="363" y="510" type="qcurve"/>
      <point x="399" y="510"/>
      <point x="462" y="487"/>
      <point x="510" y="439"/>
      <point x="537" y="365"/>
      <point x="537" y="314" type="qcurve"/>
      <point x="537" y="-98" type="line"/>
      <point x="537" y="-150"/>
      <point x="481" y="-200"/>
      <point x="436" y="-200" type="qcurve"/>
      <point x="312" y="-200" type="line"/>
      <point x="312" y="-80" type="line"/>
      <point x="381" y="-80" type="line"/>
      <point x="411" y="-80"/>
      <point x="411" y="-47" type="qcurve"/>
      <point x="411" y="282" type="line"/>
      <point x="411" y="335"/>
      <point x="360" y="396"/>
      <point x="312" y="396" type="qcurve"/>
      <point x="256" y="396"/>
      <point x="201" y="321"/>
      <point x="201" y="258" type="qcurve"/>
    </contour>
  </outline>
</glyph>
<glyph name="OE" format="1">
  <advance width="612"/>
  <unicode hex="0152"/>
  <outline>
    <contour>
      <point x="282" y="0" type="line"/>
      <point x="161" y="0"/>
      <point x="24" y="146"/>
      <point x="24" y="286" type="qcurve"/>
      <point x="24" y="414" type="line"/>
      <point x="24" y="550"/>
      <point x="161" y="700"/>
      <point x="282" y="700" type="qcurve"/>
      <point x="586" y="700" type="line"/>
      <point x="586" y="574" type="line"/>
      <point x="414" y="574" type="line"/>
      <point x="414" y="414" type="line"/>
      <point x="580" y="414" type="line"/>
      <point x="580" y="288" type="line"/>
      <point x="414" y="288" type="line"/>
      <point x="414" y="126" type="line"/>
      <point x="592" y="126" type="line"/>
      <point x="592" y="0" type="line"/>
    </contour>
    <contour>
      <point x="282" y="574" type="line"/>
      <point x="248" y="574"/>
      <point x="200" y="551"/>
      <point x="170" y="511"/>
      <point x="156" y="455"/>
      <point x="156" y="422" type="qcurve"/>
      <point x="156" y="278" type="line"/>
      <point x="156" y="207"/>
      <point x="210" y="126"/>
      <point x="282" y="126" type="qcurve"/>
    </contour>
  </outline>
</glyph>
<glyph name="uni0162" format="1">
  <advance width="612"/>
  <unicode hex="0162"/>
  <outline>
    <contour>
      <point x="240" y="574" type="line"/>
      <point x="54" y="574" type="line"/>
      <point x="54" y="700" type="line"/>
      <point x="558" y="700" type="line"/>
      <point x="558" y="574" type="line"/>
      <point x="372" y="574" type="line"/>
      <point x="372" y="0" type="line"/>
      <point x="310" y="0" type="line"/>
      <point x="300" y="-46" type="line"/>
      <point x="312" y="-46" type="line"/>
      <point x="317" y="-37"/>
      <point x="339" y="-24"/>
      <point x="358" y="-24" type="qcurve"/>
      <point x="400" y="-24"/>
      <point x="441" y="-76"/>
      <point x="441" y="-112" type="qcurve"/>
      <point x="441" y="-159"/>
      <point x="378" y="-212"/>
      <point x="331" y="-212" type="qcurve"/>
      <point x="302" y="-212"/>
      <point x="264" y="-201"/>
      <point x="247" y="-192" type="qcurve"/>
      <point x="273" y="-124" type="line"/>
      <point x="296" y="-138"/>
      <point x="323" y="-138" type="qcurve"/>
      <point x="338" y="-138"/>
      <point x="357" y="-124"/>
      <point x="357" y="-112" type="qcurve"/>
      <point x="357" y="-103"/>
      <point x="347" y="-90"/>
      <point x="337" y="-90" type="qcurve"/>
      <point x="320" y="-90"/>
      <point x="317" y="-104" type="qcurve"/>
      <point x="220" y="-104" type="line"/>
      <point x="220" y="-92" type="line"/>
      <point x="240" y="0" type="line"/>
    </contour>
  </outline>
</glyph>
<glyph name="uni0163" format="1">
  <advance width="612"/>
  <unicode hex="0163"/>
  <outline>
    <contour>
      <point x="288" y="0" type="line"/>
      <point x="254" y="0"/>
      <point x="211" y="44"/>
      <point x="211" y="78" type="qcurve"/>
      <point x="211" y="376" type="line"/>
      <point x="64" y="376" type="line"/>
      <point x="64" y="496" type="line"/>
      <point x="211" y="496" type="line"/>
      <point x="211" y="700" type="line"/>
      <point x="337" y="700" type="line"/>
      <point x="337" y="496" type="line"/>
      <point x="516" y="496" type="line"/>
      <point x="516" y="376" type="line"/>
      <point x="337" y="376" type="line"/>
      <point x="337" y="150" type="line"/>
      <point x="337" y="120"/>
      <point x="364" y="120" type="qcurve"/>
      <point x="498" y="120" type="line"/>
      <point x="498" y="0" type="line"/>
      <point x="358" y="0" type="line"/>
      <point x="348" y="-46" type="line"/>
      <point x="360" y="-46" type="line"/>
      <point x="365" y="-37"/>
      <point x="387" y="-24"/>
      <point x="406" y="-24" type="qcurve"/>
      <point x="448" y="-24"/>
      <point x="489" y="-76"/>
      <point x="489" y="-112" type="qcurve"/>
      <point x="489" y="-159"/>
      <point x="426" y="-212"/>
      <point x="379" y="-212" type="qcurve"/>
      <point x="350" y="-212"/>
      <point x="312" y="-201"/>
      <point x="295" y="-192" type="qcurve"/>
      <point x="321" y="-124" type="line"/>
      <point x="344" y="-138"/>
      <point x="371" y="-138" type="qcurve"/>
      <point x="386" y="-138"/>
      <point x="405" y="-124"/>
      <point x="405" y="-112" type="qcurve"/>
      <point x="405" y="-103"/>
      <point x="395" y="-90"/>
      <point x="385" y="-90" type="qcurve"/>
      <point x="368" y="-90"/>
      <point x="365" y="-104" type="qcurve"/>
      <point x="268" y="-104" type="line"/>
      <point x="268" y="-92" type="line"/>
    </contour>
  </outline>
</glyph>
<glyph name="tcaron" format="1">
  <advance width="612"/>
  <unicode hex="0165"/>
  <outline>
    <contour>
      <point x="45" y="496" type="line"/>
      <point x="190" y="496" type="line"/>
      <point x="190" y="700" type="line"/>
      <point x="318" y="700" type="line"/>
      <point x="318" y="496" type="line"/>
      <point x="356" y="496" type="line"/>
      <point x="356" y="376" type="line"/>
      <point x="318" y="376" type="line"/>
      <point x="318" y="150" type="line"/>
      <point x="318" y="120"/>
      <point x="345" y="120" type="qcurve"/>
      <point x="542" y="120" type="line"/>
      <point x="542" y="0" type="line"/>
      <point x="267" y="0" type="line"/>
      <point x="233" y="0"/>
      <point x="190" y="44"/>
      <point x="190" y="78" type="qcurve"/>
      <point x="190" y="376" type="line"/>
      <point x="45" y="376" type="line"/>
    </contour>
    <contour>
      <point x="542" y="466" type="line"/>
      <point x="542" y="428"/>
      <point x="490" y="376"/>
      <point x="452" y="376" type="qcurve"/>
      <point x="392" y="376" type="line"/>
      <point x="392" y="454" type="line"/>
      <point x="437" y="454" type="line"/>
      <point x="464" y="454"/>
      <point x="464" y="484" type="qcurve"/>
      <point x="464" y="526" type="line"/>
      <point x="455" y="526" type="line"/>
      <point x="437" y="526"/>
      <point x="406" y="540"/>
      <point x="382" y="564"/>
      <point x="368" y="595"/>
      <point x="368" y="613" type="qcurve"/>
      <point x="368" y="631"/>
      <point x="382" y="662"/>
      <point x="406" y="686"/>
      <point x="437" y="700"/>
      <point x="455" y="700" type="qcurve"/>
      <point x="473" y="700"/>
      <point x="504" y="686"/>
      <point x="528" y="662"/>
      <point x="542" y="631"/>
      <point x="542" y="613" type="qcurve"/>
    </contour>
  </outline>
</glyph>
<glyph name="tbar" format="1">
  <advance width="612"/>
  <unicode hex="0167"/>
  <outline>
    <contour>
      <point x="64" y="496" type="line"/>
      <point x="211" y="496" type="line"/>
      <point x="211" y="700" type="line"/>
      <point x="337" y="700" type="line"/>
      <point x="337" y="496" type="line"/>
      <point x="516" y="496" type="line"/>
      <point x="516" y="376" type="line"/>
      <point x="337" y="376" type="line"/>
      <point x="337" y="316" type="line"/>
      <point x="481" y="316" type="line"/>
      <point x="481" y="202" type="line"/>
      <point x="337" y="202" type="line"/>
      <point x="337" y="150" type="line"/>
      <point x="337" y="120"/>
      <point x="364" y="120" type="qcurve"/>
      <point x="498" y="120" type="line"/>
      <point x="498" y="0" type="line"/>
      <point x="288" y="0" type="line"/>
      <point x="254" y="0"/>
      <point x="211" y="44"/>
      <point x="211" y="78" type="qcurve"/>
      <point x="211" y="202" type="line"/>
      <point x="103" y="202" type="line"/>
      <point x="103" y="316" type="line"/>
      <point x="211" y="316" type="line"/>
      <point x="211" y="376" type="line"/>
      <point x="64" y="376" type="line"/>
    </contour>
  </outline>
</glyph>
<glyph name="Uogonek" format="1">
  <advance width="612"/>
  <unicode hex="0172"/>
  <outline>
    <contour>
      <point x="558" y="700" type="line"/>
      <point x="558" y="242" type="line"/>
      <point x="558" y="133"/>
      <point x="452" y="-1"/>
      <point x="347" y="-12" type="qcurve"/>
      <point x="337" y="-56" type="line"/>
      <point x="336" y="-61"/>
      <point x="336" y="-64" type="qcurve"/>
      <point x="336" y="-86"/>
      <point x="359" y="-86" type="qcurve"/>
      <point x="405" y="-86" type="line"/>
      <point x="405" y="-170" type="line"/>
      <point x="325" y="-170" type="line"/>
      <point x="295" y="-170"/>
      <point x="245" y="-132"/>
      <point x="245" y="-95" type="qcurve"/>
      <point x="245" y="-86"/>
      <point x="248" y="-72" type="qcurve"/>
      <point x="261" y="-11" type="line"/>
      <point x="158" y="0"/>
      <point x="54" y="133"/>
      <point x="54" y="242" type="qcurve"/>
      <point x="54" y="700" type="line"/>
      <point x="186" y="700" type="line"/>
      <point x="186" y="242" type="line"/>
      <point x="186" y="180"/>
      <point x="244" y="110"/>
      <point x="306" y="110" type="qcurve"/>
      <point x="368" y="110"/>
      <point x="426" y="180"/>
      <point x="426" y="242" type="qcurve"/>
      <point x="426" y="700" type="line"/>
    </contour>
  </outline>
</glyph>
<glyph name="uogonek" format="1">
  <advance width="612"/>
  <unicode hex="0173"/>
  <outline>
    <contour>
      <point x="414" y="496" type="line"/>
      <point x="540" y="496" type="line"/>
      <point x="540" y="0" type="line"/>
      <point x="483" y="0" type="line"/>
      <point x="470" y="-56" type="line"/>
      <point x="469" y="-61"/>
      <point x="469" y="-64" type="qcurve"/>
      <point x="469" y="-86"/>
      <point x="492" y="-86" type="qcurve"/>
      <point x="540" y="-86" type="line"/>
      <point x="540" y="-170" type="line"/>
      <point x="458" y="-170" type="line"/>
      <point x="428" y="-170"/>
      <point x="378" y="-132"/>
      <point x="378" y="-95" type="qcurve"/>
      <point x="378" y="-86"/>
      <point x="381" y="-72" type="qcurve"/>
      <point x="414" y="72" type="line"/>
      <point x="396" y="72" type="line"/>
      <point x="363" y="-14"/>
      <point x="254" y="-14" type="qcurve"/>
      <point x="217" y="-14"/>
      <point x="153" y="10"/>
      <point x="105" y="60"/>
      <point x="78" y="135"/>
      <point x="78" y="186" type="qcurve"/>
      <point x="78" y="496" type="line"/>
      <point x="204" y="496" type="line"/>
      <point x="204" y="212" type="line"/>
      <point x="204" y="159"/>
      <point x="254" y="100"/>
      <point x="304" y="100" type="qcurve"/>
      <point x="361" y="100"/>
      <point x="414" y="173"/>
      <point x="414" y="236" type="qcurve"/>
    </contour>
  </outline>
</glyph>
<glyph name="florin" format="1">
  <advance width="612"/>
  <unicode hex="0192"/>
  <outline>
    <contour>
      <point x="165" y="438" type="line"/>
      <point x="249" y="438" type="line"/>
      <point x="249" y="502" type="line"/>
      <point x="249" y="545"/>
      <point x="307" y="604"/>
      <point x="350" y="604" type="qcurve"/>
      <point x="492" y="604" type="line"/>
      <point x="492" y="496" type="line"/>
      <point x="390" y="496" type="line"/>
      <point x="363" y="496"/>
      <point x="363" y="466" type="qcurve"/>
      <point x="363" y="438" type="line"/>
      <point x="447" y="438" type="line"/>
      <point x="447" y="330" type="line"/>
      <point x="363" y="330" type="line"/>
      <point x="363" y="198" type="line"/>
      <point x="363" y="155"/>
      <point x="305" y="96"/>
      <point x="262" y="96" type="qcurve"/>
      <point x="120" y="96" type="line"/>
      <point x="120" y="204" type="line"/>
      <point x="222" y="204" type="line"/>
      <point x="249" y="204"/>
      <point x="249" y="234" type="qcurve"/>
      <point x="249" y="330" type="line"/>
      <point x="165" y="330" type="line"/>
    </contour>
  </outline>
</glyph>
<glyph name="uni01EA" format="1">
  <advance width="612"/>
  <unicode hex="01EA"/>
  <outline>
    <contour>
      <point x="48" y="428" type="line"/>
      <point x="48" y="564"/>
      <point x="185" y="714"/>
      <point x="306" y="714" type="qcurve"/>
      <point x="427" y="714"/>
      <point x="564" y="564"/>
      <point x="564" y="428" type="qcurve"/>
      <point x="564" y="272" type="line"/>
      <point x="564" y="144"/>
      <point x="449" y="0"/>
      <point x="347" y="-11" type="qcurve"/>
      <point x="337" y="-56" type="line"/>
      <point x="336" y="-61"/>
      <point x="336" y="-64" type="qcurve"/>
      <point x="336" y="-86"/>
      <point x="359" y="-86" type="qcurve"/>
      <point x="405" y="-86" type="line"/>
      <point x="405" y="-170" type="line"/>
      <point x="325" y="-170" type="line"/>
      <point x="295" y="-170"/>
      <point x="245" y="-132"/>
      <point x="245" y="-95" type="qcurve"/>
      <point x="245" y="-86"/>
      <point x="248" y="-72" type="qcurve"/>
      <point x="261" y="-11" type="line"/>
      <point x="161" y="2"/>
      <point x="48" y="145"/>
      <point x="48" y="272" type="qcurve"/>
    </contour>
    <contour>
      <point x="306" y="106" type="qcurve"/>
      <point x="342" y="106"/>
      <point x="390" y="129"/>
      <point x="420" y="171"/>
      <point x="432" y="229"/>
      <point x="432" y="264" type="qcurve"/>
      <point x="432" y="436" type="line"/>
      <point x="432" y="469"/>
      <point x="418" y="527"/>
      <point x="388" y="569"/>
      <point x="340" y="594"/>
      <point x="306" y="594" type="qcurve"/>
      <point x="272" y="594"/>
      <point x="224" y="569"/>
      <point x="194" y="527"/>
      <point x="180" y="469"/>
      <point x="180" y="436" type="qcurve"/>
      <point x="180" y="264" type="line"/>
      <point x="180" y="229"/>
      <point x="192" y="171"/>
      <point x="222" y="129"/>
      <point x="270" y="106"/>
    </contour>
  </outline>
</glyph>
<glyph name="uni01EB" format="1">
  <advance width="612"/>
  <unicode hex="01EB"/>
  <outline>
    <contour>
      <point x="564" y="242" type="line"/>
      <point x="564" y="187"/>
      <point x="530" y="99"/>
      <point x="471" y="35"/>
      <point x="392" y="-5"/>
      <point x="348" y="-11" type="qcurve"/>
      <point x="338" y="-56" type="line"/>
      <point x="337" y="-61"/>
      <point x="337" y="-64" type="qcurve"/>
      <point x="337" y="-86"/>
      <point x="360" y="-86" type="qcurve"/>
      <point x="406" y="-86" type="line"/>
      <point x="406" y="-170" type="line"/>
      <point x="326" y="-170" type="line"/>
      <point x="296" y="-170"/>
      <point x="246" y="-132"/>
      <point x="246" y="-95" type="qcurve"/>
      <point x="246" y="-86"/>
      <point x="249" y="-72" type="qcurve"/>
      <point x="263" y="-11" type="line"/>
      <point x="219" y="-5"/>
      <point x="140" y="35"/>
      <point x="82" y="99"/>
      <point x="48" y="187"/>
      <point x="48" y="242" type="qcurve"/>
      <point x="48" y="254" type="line"/>
      <point x="48" y="315"/>
      <point x="90" y="410"/>
      <point x="162" y="476"/>
      <point x="255" y="510"/>
      <point x="306" y="510" type="qcurve"/>
      <point x="357" y="510"/>
      <point x="450" y="476"/>
      <point x="522" y="410"/>
      <point x="564" y="315"/>
      <point x="564" y="254" type="qcurve"/>
    </contour>
    <contour>
      <point x="306" y="106" type="qcurve"/>
      <point x="333" y="106"/>
      <point x="381" y="124"/>
      <point x="417" y="158"/>
      <point x="438" y="207"/>
      <point x="438" y="238" type="qcurve"/>
      <point x="438" y="258" type="line"/>
      <point x="438" y="289"/>
      <point x="417" y="338"/>
      <point x="381" y="372"/>
      <point x="333" y="390"/>
      <point x="306" y="390" type="qcurve"/>
      <point x="279" y="390"/>
      <point x="231" y="372"/>
      <point x="195" y="338"/>
      <point x="174" y="289"/>
      <point x="174" y="258" type="qcurve"/>
      <point x="174" y="238" type="line"/>
      <point x="174" y="207"/>
      <point x="195" y="158"/>
      <point x="231" y="124"/>
      <point x="279" y="106"/>
    </contour>
  </outline>
</glyph>
<glyph name="uni0243" format="1">
  <advance width="612"/>
  <unicode hex="0243"/>
  <outline>
    <contour>
      <point x="46" y="126" type="line"/>
      <point x="112" y="126" type="line"/>
      <point x="112" y="156" type="line"/>
      <point x="46" y="156" type="line"/>
      <point x="46" y="258" type="line"/>
      <point x="112" y="258" type="line"/>
      <point x="112" y="574" type="line"/>
      <point x="46" y="574" type="line"/>
      <point x="46" y="700" type="line"/>
      <point x="353" y="700" type="line"/>
      <point x="403" y="700"/>
      <point x="480" y="672"/>
      <point x="533" y="624"/>
      <point x="560" y="557"/>
      <point x="560" y="518" type="qcurve"/>
      <point x="560" y="506" type="line"/>
      <point x="560" y="446"/>
      <point x="493" y="374"/>
      <point x="442" y="360" type="qcurve"/>
      <point x="442" y="342" type="line"/>
      <point x="493" y="328"/>
      <point x="560" y="255"/>
      <point x="560" y="195" type="qcurve"/>
      <point x="560" y="183" type="line"/>
      <point x="560" y="144"/>
      <point x="533" y="77"/>
      <point x="480" y="28"/>
      <point x="403" y="0"/>
      <point x="353" y="0" type="qcurve"/>
      <point x="46" y="0" type="line"/>
    </contour>
    <contour>
      <point x="244" y="414" type="line"/>
      <point x="340" y="414" type="line"/>
      <point x="382" y="414"/>
      <point x="434" y="449"/>
      <point x="434" y="491" type="qcurve"/>
      <point x="434" y="497" type="line"/>
      <point x="434" y="539"/>
      <point x="382" y="574"/>
      <point x="340" y="574" type="qcurve"/>
      <point x="244" y="574" type="line"/>
    </contour>
    <contour>
      <point x="244" y="258" type="line"/>
      <point x="322" y="258" type="line"/>
      <point x="322" y="156" type="line"/>
      <point x="244" y="156" type="line"/>
      <point x="244" y="126" type="line"/>
      <point x="340" y="126" type="line"/>
      <point x="382" y="126"/>
      <point x="434" y="162"/>
      <point x="434" y="204" type="qcurve"/>
      <point x="434" y="210" type="line"/>
      <point x="434" y="252"/>
      <point x="382" y="288"/>
      <point x="340" y="288" type="qcurve"/>
      <point x="244" y="288" type="line"/>
    </contour>
  </outline>
</glyph>
<glyph name="uni0254" format="1">
  <advance width="612"/>
  <unicode hex="0254"/>
  <outline>
    <contour>
      <point x="52" y="314" type="line"/>
      <point x="69" y="402"/>
      <point x="196" y="510"/>
      <point x="302" y="510" type="qcurve"/>
      <point x="357" y="510"/>
      <point x="452" y="476"/>
      <point x="522" y="412"/>
      <point x="562" y="318"/>
      <point x="562" y="258" type="qcurve"/>
      <point x="562" y="246" type="line"/>
      <point x="562" y="186"/>
      <point x="522" y="90"/>
      <point x="451" y="22"/>
      <point x="356" y="-14"/>
      <point x="302" y="-14" type="qcurve"/>
      <point x="198" y="-14"/>
      <point x="69" y="94"/>
      <point x="52" y="182" type="qcurve"/>
      <point x="176" y="214" type="line"/>
      <point x="182" y="170"/>
      <point x="246" y="106"/>
      <point x="304" y="106" type="qcurve"/>
      <point x="331" y="106"/>
      <point x="379" y="126"/>
      <point x="415" y="163"/>
      <point x="436" y="216"/>
      <point x="436" y="249" type="qcurve"/>
      <point x="436" y="255" type="line"/>
      <point x="436" y="288"/>
      <point x="415" y="339"/>
      <point x="379" y="373"/>
      <point x="331" y="390"/>
      <point x="304" y="390" type="qcurve"/>
      <point x="246" y="390"/>
      <point x="185" y="332"/>
      <point x="176" y="283" type="qcurve"/>
    </contour>
  </outline>
</glyph>
<glyph name="uni0258" format="1">
  <advance width="612"/>
  <unicode hex="0258"/>
  <outline>
    <contour>
      <point x="62" y="207" type="line"/>
      <point x="62" y="274" type="line"/>
      <point x="62" y="313"/>
      <point x="90" y="396"/>
      <point x="150" y="465"/>
      <point x="242" y="510"/>
      <point x="306" y="510" type="qcurve"/>
      <point x="358" y="510"/>
      <point x="449" y="473"/>
      <point x="517" y="407"/>
      <point x="556" y="313"/>
      <point x="556" y="256" type="qcurve"/>
      <point x="556" y="250" type="line"/>
      <point x="556" y="188"/>
      <point x="519" y="90"/>
      <point x="452" y="22"/>
      <point x="359" y="-14"/>
      <point x="304" y="-14" type="qcurve"/>
      <point x="254" y="-14"/>
      <point x="182" y="8"/>
      <point x="131" y="42"/>
      <point x="99" y="83"/>
      <point x="90" y="102" type="qcurve"/>
      <point x="198" y="162" type="line"/>
      <point x="209" y="139"/>
      <point x="259" y="106"/>
      <point x="306" y="106" type="qcurve"/>
      <point x="330" y="106"/>
      <point x="373" y="121"/>
      <point x="406" y="148"/>
      <point x="425" y="185"/>
      <point x="426" y="207" type="qcurve"/>
    </contour>
    <contour>
      <point x="307" y="396" type="qcurve"/>
      <point x="259" y="396"/>
      <point x="196" y="350"/>
      <point x="190" y="315" type="qcurve"/>
      <point x="424" y="315" type="line"/>
      <point x="415" y="347"/>
      <point x="355" y="396"/>
    </contour>
  </outline>
</glyph>
<glyph name="caron" format="1">
  <advance width="612"/>
  <unicode hex="02C7"/>
  <outline>
    <contour>
      <point x="476" y="706" type="line"/>
      <point x="392" y="570" type="line"/>
      <point x="220" y="570" type="line"/>
      <point x="136" y="706" type="line"/>
      <point x="257" y="706" type="line"/>
      <point x="300" y="618" type="line"/>
      <point x="312" y="618" type="line"/>
      <point x="355" y="706" type="line"/>
    </contour>
  </outline>
</glyph>
<glyph name="breve" format="1">
  <advance width="612"/>
  <unicode hex="02D8"/>
  <outline>
    <contour>
      <point x="438" y="700" type="line"/>
      <point x="438" y="686" type="line"/>
      <point x="438" y="629"/>
      <point x="365" y="564"/>
      <point x="306" y="564" type="qcurve"/>
      <point x="247" y="564"/>
      <point x="174" y="629"/>
      <point x="174" y="686" type="qcurve"/>
      <point x="174" y="700" type="line"/>
      <point x="264" y="700" type="line"/>
      <point x="264" y="694" type="line"/>
      <point x="264" y="676"/>
      <point x="285" y="652"/>
      <point x="306" y="652" type="qcurve"/>
      <point x="327" y="652"/>
      <point x="348" y="676"/>
      <point x="348" y="694" type="qcurve"/>
      <point x="348" y="700" type="line"/>
    </contour>
  </outline>
</glyph>
<glyph name="tilde" format="1">
  <advance width="612"/>
  <unicode hex="02DC"/>
  <outline>
    <contour>
      <point x="322" y="695" type="qcurve"/>
      <point x="330" y="686"/>
      <point x="346" y="671"/>
      <point x="360" y="671" type="qcurve"/>
      <point x="374" y="671"/>
      <point x="391" y="684"/>
      <point x="399" y="695" type="qcurve"/>
      <point x="429" y="733" type="line"/>
      <point x="506" y="672" type="line"/>
      <point x="450" y="600" type="line"/>
      <point x="432" y="577"/>
      <point x="390" y="556"/>
      <point x="364" y="556" type="qcurve"/>
      <point x="344" y="556"/>
      <point x="307" y="574"/>
      <point x="290" y="594" type="qcurve"/>
      <point x="282" y="603"/>
      <point x="266" y="618"/>
      <point x="252" y="618" type="qcurve"/>
      <point x="238" y="618"/>
      <point x="221" y="605"/>
      <point x="213" y="594" type="qcurve"/>
      <point x="183" y="556" type="line"/>
      <point x="106" y="617" type="line"/>
      <point x="162" y="689" type="line"/>
      <point x="181" y="713"/>
      <point x="223" y="733"/>
      <point x="248" y="733" type="qcurve"/>
      <point x="268" y="733"/>
      <point x="305" y="715"/>
    </contour>
  </outline>
</glyph>
<glyph name="acutecomb" format="1">
  <advance width="612"/>
  <unicode hex="0301"/>
  <outline>
    <contour>
      <point x="265" y="836" type="line"/>
      <point x="399" y="836" type="line"/>
      <point x="315" y="700" type="line"/>
      <point x="213" y="700" type="line"/>
    </contour>
  </outline>
</glyph>
<glyph name="uni0309" format="1">
  <advance width="612"/>
  <unicode hex="0309"/>
  <outline>
    <contour>
      <point x="215" y="546" type="line"/>
      <point x="195" y="638" type="line"/>
      <point x="195" y="650" type="line"/>
      <point x="292" y="650" type="line"/>
      <point x="295" y="636"/>
      <point x="312" y="636" type="qcurve"/>
      <point x="322" y="636"/>
      <point x="332" y="649"/>
      <point x="332" y="658" type="qcurve"/>
      <point x="332" y="670"/>
      <point x="313" y="684"/>
      <point x="298" y="684" type="qcurve"/>
      <point x="271" y="684"/>
      <point x="248" y="670" type="qcurve"/>
      <point x="222" y="738" type="line"/>
      <point x="239" y="747"/>
      <point x="277" y="758"/>
      <point x="306" y="758" type="qcurve"/>
      <point x="353" y="758"/>
      <point x="416" y="705"/>
      <point x="416" y="658" type="qcurve"/>
      <point x="416" y="622"/>
      <point x="375" y="570"/>
      <point x="333" y="570" type="qcurve"/>
      <point x="314" y="570"/>
      <point x="292" y="583"/>
      <point x="287" y="592" type="qcurve"/>
      <point x="275" y="592" type="line"/>
      <point x="285" y="546" type="line"/>
    </contour>
  </outline>
</glyph>
<glyph name="uni1E5F" format="1">
  <advance width="612"/>
  <unicode hex="1E5F"/>
  <outline>
    <contour>
      <point x="384" y="-166" type="line"/>
      <point x="42" y="-166" type="line"/>
      <point x="42" y="-64" type="line"/>
      <point x="384" y="-64" type="line"/>
    </contour>
    <component base="r"/>
  </outline>
</glyph>
<glyph name="uni1E6F" format="1">
  <advance width="612"/>
  <unicode hex="1E6F"/>
  <outline>
    <contour>
      <point x="498" y="-166" type="line"/>
      <point x="211" y="-166" type="line"/>
      <point x="211" y="-64" type="line"/>
      <point x="498" y="-64" type="line"/>
    </contour>
    <component base="t"/>
  </outline>
</glyph>
<glyph name="quoteleft" format="1">
  <advance width="612"/>
  <unicode hex="2018"/>
  <outline>
    <contour>
      <point x="401" y="502" type="qcurve"/>
      <point x="401" y="482"/>
      <point x="386" y="448"/>
      <point x="360" y="423"/>
      <point x="325" y="408"/>
      <point x="306" y="408" type="qcurve"/>
      <point x="286" y="408"/>
      <point x="252" y="423"/>
      <point x="226" y="448"/>
      <point x="211" y="482"/>
      <point x="211" y="502" type="qcurve"/>
      <point x="211" y="624" type="line"/>
      <point x="211" y="662"/>
      <point x="262" y="714"/>
      <point x="300" y="714" type="qcurve"/>
      <point x="364" y="714" type="line"/>
      <point x="364" y="636" type="line"/>
      <point x="316" y="636" type="line"/>
      <point x="289" y="636"/>
      <point x="289" y="606" type="qcurve"/>
      <point x="289" y="594" type="line"/>
      <point x="293" y="596"/>
      <point x="303" y="597"/>
      <point x="308" y="597" type="qcurve"/>
      <point x="350" y="597"/>
      <point x="401" y="544"/>
    </contour>
  </outline>
</glyph>
<glyph name="quoteright" format="1">
  <advance width="612"/>
  <unicode hex="2019"/>
  <outline>
    <contour>
      <point x="211" y="620" type="qcurve"/>
      <point x="211" y="639"/>
      <point x="226" y="674"/>
      <point x="252" y="699"/>
      <point x="286" y="714"/>
      <point x="306" y="714" type="qcurve"/>
      <point x="325" y="714"/>
      <point x="360" y="699"/>
      <point x="386" y="674"/>
      <point x="401" y="639"/>
      <point x="401" y="620" type="qcurve"/>
      <point x="401" y="498" type="line"/>
      <point x="401" y="460"/>
      <point x="350" y="408"/>
      <point x="312" y="408" type="qcurve"/>
      <point x="248" y="408" type="line"/>
      <point x="248" y="486" type="line"/>
      <point x="296" y="486" type="line"/>
      <point x="323" y="486"/>
      <point x="323" y="516" type="qcurve"/>
      <point x="323" y="528" type="line"/>
      <point x="315" y="525"/>
      <point x="306" y="525" type="qcurve"/>
      <point x="286" y="525"/>
      <point x="252" y="540"/>
      <point x="226" y="566"/>
      <point x="211" y="600"/>
    </contour>
  </outline>
</glyph>
<glyph name="quotesinglbase" format="1">
  <advance width="612"/>
  <unicode hex="201A"/>
  <outline>
    <contour>
      <point x="211" y="95" type="qcurve"/>
      <point x="211" y="114"/>
      <point x="226" y="149"/>
      <point x="252" y="174"/>
      <point x="286" y="189"/>
      <point x="306" y="189" type="qcurve"/>
      <point x="325" y="189"/>
      <point x="360" y="174"/>
      <point x="386" y="149"/>
      <point x="401" y="114"/>
      <point x="401" y="95" type="qcurve"/>
      <point x="401" y="-27" type="line"/>
      <point x="401" y="-65"/>
      <point x="350" y="-117"/>
      <point x="312" y="-117" type="qcurve"/>
      <point x="248" y="-117" type="line"/>
      <point x="248" y="-39" type="line"/>
      <point x="296" y="-39" type="line"/>
      <point x="323" y="-39"/>
      <point x="323" y="-9" type="qcurve"/>
      <point x="323" y="3" type="line"/>
      <point x="315" y="0"/>
      <point x="306" y="0" type="qcurve"/>
      <point x="286" y="0"/>
      <point x="252" y="15"/>
      <point x="226" y="41"/>
      <point x="211" y="75"/>
    </contour>
  </outline>
</glyph>
<glyph name="quotedblleft" format="1">
  <advance width="612"/>
  <unicode hex="201C"/>
  <outline>
    <contour>
      <point x="514" y="502" type="qcurve"/>
      <point x="514" y="482"/>
      <point x="499" y="448"/>
      <point x="473" y="423"/>
      <point x="438" y="408"/>
      <point x="419" y="408" type="qcurve"/>
      <point x="399" y="408"/>
      <point x="365" y="423"/>
      <point x="339" y="448"/>
      <point x="324" y="482"/>
      <point x="324" y="502" type="qcurve"/>
      <point x="324" y="624" type="line"/>
      <point x="324" y="662"/>
      <point x="375" y="714"/>
      <point x="413" y="714" type="qcurve"/>
      <point x="477" y="714" type="line"/>
      <point x="477" y="636" type="line"/>
      <point x="429" y="636" type="line"/>
      <point x="402" y="636"/>
      <point x="402" y="606" type="qcurve"/>
      <point x="402" y="594" type="line"/>
      <point x="406" y="596"/>
      <point x="416" y="597"/>
      <point x="421" y="597" type="qcurve"/>
      <point x="463" y="597"/>
      <point x="514" y="544"/>
    </contour>
    <contour>
      <point x="288" y="502" type="qcurve"/>
      <point x="288" y="482"/>
      <point x="273" y="448"/>
      <point x="247" y="423"/>
      <point x="212" y="408"/>
      <point x="193" y="408" type="qcurve"/>
      <point x="173" y="408"/>
      <point x="139" y="423"/>
      <point x="113" y="448"/>
      <point x="98" y="482"/>
      <point x="98" y="502" type="qcurve"/>
      <point x="98" y="624" type="line"/>
      <point x="98" y="662"/>
      <point x="149" y="714"/>
      <point x="187" y="714" type="qcurve"/>
      <point x="251" y="714" type="line"/>
      <point x="251" y="636" type="line"/>
      <point x="203" y="636" type="line"/>
      <point x="176" y="636"/>
      <point x="176" y="606" type="qcurve"/>
      <point x="176" y="594" type="line"/>
      <point x="180" y="596"/>
      <point x="190" y="597"/>
      <point x="195" y="597" type="qcurve"/>
      <point x="237" y="597"/>
      <point x="288" y="544"/>
    </contour>
  </outline>
</glyph>
<glyph name="uni2033" format="1">
  <advance width="612"/>
  <unicode hex="2033"/>
  <outline>
    <contour>
      <point x="137" y="543" type="line"/>
      <point x="119" y="556"/>
      <point x="98" y="597"/>
      <point x="98" y="620" type="qcurve"/>
      <point x="98" y="639"/>
      <point x="113" y="674"/>
      <point x="139" y="699"/>
      <point x="173" y="714"/>
      <point x="193" y="714" type="qcurve"/>
      <point x="212" y="714"/>
      <point x="247" y="699"/>
      <point x="272" y="674"/>
      <point x="287" y="639"/>
      <point x="287" y="620" type="qcurve"/>
      <point x="287" y="587"/>
      <point x="245" y="533"/>
      <point x="213" y="526" type="qcurve"/>
      <point x="187" y="404" type="line"/>
      <point x="111" y="420" type="line"/>
    </contour>
    <contour>
      <point x="368" y="543" type="line"/>
      <point x="350" y="556"/>
      <point x="329" y="597"/>
      <point x="329" y="620" type="qcurve"/>
      <point x="329" y="639"/>
      <point x="344" y="674"/>
      <point x="370" y="699"/>
      <point x="404" y="714"/>
      <point x="424" y="714" type="qcurve"/>
      <point x="443" y="714"/>
      <point x="478" y="699"/>
      <point x="503" y="674"/>
      <point x="518" y="639"/>
      <point x="518" y="620" type="qcurve"/>
      <point x="518" y="587"/>
      <point x="476" y="533"/>
      <point x="444" y="526" type="qcurve"/>
      <point x="418" y="404" type="line"/>
      <point x="342" y="420" type="line"/>
    </contour>
  </outline>
</glyph>
<glyph name="guilsinglright" format="1">
  <advance width="612"/>
  <unicode hex="203A"/>
  <outline>
    <contour>
      <point x="180" y="0" type="line"/>
      <point x="180" y="142" type="line"/>
      <point x="354" y="239" type="line"/>
      <point x="354" y="257" type="line"/>
      <point x="180" y="354" type="line"/>
      <point x="180" y="496" type="line"/>
      <point x="186" y="496" type="line"/>
      <point x="432" y="344" type="line"/>
      <point x="432" y="152" type="line"/>
      <point x="186" y="0" type="line"/>
    </contour>
  </outline>
</glyph>
<glyph name="uni2070" format="1">
  <advance width="612"/>
  <unicode hex="2070"/>
  <outline>
    <contour>
      <point x="416" y="511" type="line"/>
      <point x="416" y="465"/>
      <point x="357" y="406"/>
      <point x="306" y="406" type="qcurve"/>
      <point x="255" y="406"/>
      <point x="196" y="465"/>
      <point x="196" y="511" type="qcurve"/>
      <point x="196" y="601" type="line"/>
      <point x="196" y="647"/>
      <point x="255" y="706"/>
      <point x="306" y="706" type="qcurve"/>
      <point x="357" y="706"/>
      <point x="416" y="647"/>
      <point x="416" y="601" type="qcurve"/>
    </contour>
    <contour>
      <point x="306" y="634" type="qcurve"/>
      <point x="289" y="634"/>
      <point x="274" y="613"/>
      <point x="274" y="596" type="qcurve"/>
      <point x="274" y="516" type="line"/>
      <point x="274" y="499"/>
      <point x="289" y="478"/>
      <point x="306" y="478" type="qcurve"/>
      <point x="323" y="478"/>
      <point x="338" y="499"/>
      <point x="338" y="516" type="qcurve"/>
      <point x="338" y="596" type="line"/>
      <point x="338" y="613"/>
      <point x="323" y="634"/>
    </contour>
  </outline>
</glyph>
<glyph name="uni2071" format="1">
  <advance width="612"/>
  <unicode hex="2071"/>
  <outline>
    <contour>
      <point x="191" y="484" type="line"/>
      <point x="281" y="484" type="line"/>
      <point x="281" y="628" type="line"/>
      <point x="199" y="628" type="line"/>
      <point x="199" y="700" type="line"/>
      <point x="359" y="700" type="line"/>
      <point x="359" y="484" type="line"/>
      <point x="443" y="484" type="line"/>
      <point x="443" y="412" type="line"/>
      <point x="191" y="412" type="line"/>
    </contour>
    <contour>
      <point x="260" y="790" type="qcurve"/>
      <point x="260" y="816"/>
      <point x="294" y="850"/>
      <point x="320" y="850" type="qcurve"/>
      <point x="346" y="850"/>
      <point x="380" y="816"/>
      <point x="380" y="790" type="qcurve"/>
      <point x="380" y="764"/>
      <point x="346" y="730"/>
      <point x="320" y="730" type="qcurve"/>
      <point x="294" y="730"/>
      <point x="260" y="764"/>
    </contour>
  </outline>
</glyph>
<glyph name="uni2075" format="1">
  <advance width="612"/>
  <unicode hex="2075"/>
  <outline>
    <contour>
      <point x="282" y="500" type="line"/>
      <point x="283" y="491"/>
      <point x="298" y="476"/>
      <point x="313" y="476" type="qcurve"/>
      <point x="330" y="476"/>
      <point x="344" y="495"/>
      <point x="344" y="508" type="qcurve"/>
      <point x="344" y="520"/>
      <point x="331" y="537"/>
      <point x="317" y="537" type="qcurve"/>
      <point x="301" y="537"/>
      <point x="296" y="526" type="qcurve"/>
      <point x="204" y="526" type="line"/>
      <point x="204" y="700" type="line"/>
      <point x="404" y="700" type="line"/>
      <point x="404" y="630" type="line"/>
      <point x="282" y="630" type="line"/>
      <point x="282" y="584" type="line"/>
      <point x="291" y="584" type="line"/>
      <point x="307" y="608"/>
      <point x="344" y="608" type="qcurve"/>
      <point x="376" y="608"/>
      <point x="422" y="561"/>
      <point x="422" y="516" type="qcurve"/>
      <point x="422" y="468"/>
      <point x="368" y="406"/>
      <point x="314" y="406" type="qcurve"/>
      <point x="257" y="406"/>
      <point x="204" y="464"/>
      <point x="204" y="500" type="qcurve"/>
    </contour>
  </outline>
</glyph>
<glyph name="uni207E" format="1">
  <advance width="612"/>
  <unicode hex="207E"/>
  <outline>
    <contour>
      <point x="231" y="375" type="line"/>
      <point x="281" y="375"/>
      <point x="341" y="438"/>
      <point x="341" y="488" type="qcurve"/>
      <point x="341" y="624" type="line"/>
      <point x="341" y="674"/>
      <point x="281" y="737"/>
      <point x="231" y="737" type="qcurve"/>
      <point x="199" y="737" type="line"/>
      <point x="199" y="809" type="line"/>
      <point x="235" y="809" type="line"/>
      <point x="274" y="809"/>
      <point x="339" y="783"/>
      <point x="387" y="735"/>
      <point x="413" y="665"/>
      <point x="413" y="622" type="qcurve"/>
      <point x="413" y="490" type="line"/>
      <point x="413" y="446"/>
      <point x="387" y="377"/>
      <point x="339" y="329"/>
      <point x="274" y="303"/>
      <point x="235" y="303" type="qcurve"/>
      <point x="199" y="303" type="line"/>
      <point x="199" y="375" type="line"/>
    </contour>
  </outline>
</glyph>
<glyph name="uni2094" format="1">
  <advance width="612"/>
  <unicode hex="2094"/>
  <outline>
    <contour>
      <point x="365" y="-34" type="line"/>
      <point x="363" y="-5"/>
      <point x="329" y="22"/>
      <point x="304" y="22" type="qcurve"/>
      <point x="281" y="22"/>
      <point x="254" y="2"/>
      <point x="246" y="-12" type="qcurve"/>
      <point x="184" y="24" type="line"/>
      <point x="199" y="54"/>
      <point x="258" y="94"/>
      <point x="303" y="94" type="qcurve"/>
      <point x="364" y="94"/>
      <point x="443" y="17"/>
      <point x="443" y="-50" type="qcurve"/>
      <point x="443" y="-64" type="line"/>
      <point x="443" y="-95"/>
      <point x="422" y="-147"/>
      <point x="385" y="-185"/>
      <point x="334" y="-206"/>
      <point x="303" y="-206" type="qcurve"/>
      <point x="268" y="-206"/>
      <point x="217" y="-181"/>
      <point x="184" y="-142"/>
      <point x="169" y="-95"/>
      <point x="169" y="-74" type="qcurve"/>
      <point x="169" y="-34" type="line"/>
    </contour>
    <contour>
      <point x="305" y="-136" type="qcurve"/>
      <point x="333" y="-136"/>
      <point x="360" y="-113"/>
      <point x="364" y="-96" type="qcurve"/>
      <point x="247" y="-96" type="line"/>
      <point x="249" y="-114"/>
      <point x="279" y="-136"/>
    </contour>
  </outline>
</glyph>
<glyph name="uni20A1" format="1">
  <advance width="612"/>
  <unicode hex="20A1"/>
  <outline>
    <contour>
      <point x="169" y="125" type="line"/>
      <point x="117" y="156"/>
      <point x="54" y="265"/>
      <point x="54" y="342" type="qcurve"/>
      <point x="54" y="354" type="line"/>
      <point x="54" y="408"/>
      <point x="88" y="497"/>
      <point x="147" y="563"/>
      <point x="227" y="603"/>
      <point x="273" y="609" type="qcurve"/>
      <point x="289" y="682" type="line"/>
      <point x="359" y="667" type="line"/>
      <point x="346" y="610" type="line"/>
      <point x="380" y="604" type="line"/>
      <point x="397" y="682" type="line"/>
      <point x="467" y="667" type="line"/>
      <point x="447" y="577" type="line"/>
      <point x="489" y="551"/>
      <point x="544" y="473"/>
      <point x="552" y="422" type="qcurve"/>
      <point x="440" y="396" type="line"/>
      <point x="437" y="410"/>
      <point x="428" y="438"/>
      <point x="420" y="450" type="qcurve"/>
      <point x="367" y="205" type="line"/>
      <point x="401" y="219"/>
      <point x="435" y="273"/>
      <point x="442" y="304" type="qcurve"/>
      <point x="554" y="278" type="line"/>
      <point x="547" y="239"/>
      <point x="511" y="174"/>
      <point x="457" y="125"/>
      <point x="385" y="94"/>
      <point x="342" y="90" type="qcurve"/>
      <point x="327" y="18" type="line"/>
      <point x="257" y="33" type="line"/>
      <point x="269" y="90" type="line"/>
      <point x="261" y="92"/>
      <point x="244" y="95"/>
      <point x="236" y="97" type="qcurve"/>
      <point x="219" y="18" type="line"/>
      <point x="149" y="33" type="line"/>
    </contour>
    <contour>
      <point x="259" y="205" type="line"/>
      <point x="267" y="202"/>
      <point x="283" y="199"/>
      <point x="292" y="197" type="qcurve"/>
      <point x="357" y="498" type="line"/>
      <point x="349" y="500"/>
      <point x="333" y="502"/>
      <point x="323" y="503" type="qcurve"/>
    </contour>
    <contour>
      <point x="168" y="345" type="line"/>
      <point x="168" y="288"/>
      <point x="196" y="251" type="qcurve"/>
      <point x="247" y="489" type="line"/>
      <point x="212" y="471"/>
      <point x="168" y="399"/>
      <point x="168" y="351" type="qcurve"/>
    </contour>
  </outline>
</glyph>
<glyph name="uni20A4" format="1">
  <advance width="612"/>
  <unicode hex="20A4"/>
  <outline>
    <contour>
      <point x="104" y="320" type="line"/>
      <point x="164" y="320" type="line"/>
      <point x="164" y="350" type="line"/>
      <point x="104" y="350" type="line"/>
      <point x="104" y="428" type="line"/>
      <point x="164" y="428" type="line"/>
      <point x="164" y="438" type="line"/>
      <point x="164" y="523"/>
      <point x="259" y="612"/>
      <point x="336" y="612" type="qcurve"/>
      <point x="373" y="612"/>
      <point x="437" y="589"/>
      <point x="482" y="545"/>
      <point x="508" y="481"/>
      <point x="508" y="440" type="qcurve"/>
      <point x="508" y="428" type="line"/>
      <point x="394" y="428" type="line"/>
      <point x="394" y="442" type="line"/>
      <point x="394" y="466"/>
      <point x="368" y="504"/>
      <point x="336" y="504" type="qcurve"/>
      <point x="304" y="504"/>
      <point x="278" y="466"/>
      <point x="278" y="442" type="qcurve"/>
      <point x="278" y="428" type="line"/>
      <point x="350" y="428" type="line"/>
      <point x="350" y="350" type="line"/>
      <point x="278" y="350" type="line"/>
      <point x="278" y="320" type="line"/>
      <point x="350" y="320" type="line"/>
      <point x="350" y="242" type="line"/>
      <point x="278" y="242" type="line"/>
      <point x="278" y="210" type="line"/>
      <point x="496" y="210" type="line"/>
      <point x="496" y="102" type="line"/>
      <point x="104" y="102" type="line"/>
      <point x="104" y="210" type="line"/>
      <point x="164" y="210" type="line"/>
      <point x="164" y="242" type="line"/>
      <point x="104" y="242" type="line"/>
    </contour>
  </outline>
</glyph>
<glyph name="uni20A6" format="1">
  <advance width="612"/>
  <unicode hex="20A6"/>
  <outline>
    <contour>
      <point x="54" y="459" type="line"/>
      <point x="114" y="459" type="line"/>
      <point x="114" y="598" type="line"/>
      <point x="326" y="598" type="line"/>
      <point x="342" y="459" type="line"/>
      <point x="390" y="459" type="line"/>
      <point x="390" y="598" type="line"/>
      <point x="498" y="598" type="line"/>
      <point x="498" y="459" type="line"/>
      <point x="558" y="459" type="line"/>
      <point x="558" y="363" type="line"/>
      <point x="498" y="363" type="line"/>
      <point x="498" y="333" type="line"/>
      <point x="558" y="333" type="line"/>
      <point x="558" y="237" type="line"/>
      <point x="498" y="237" type="line"/>
      <point x="498" y="102" type="line"/>
      <point x="286" y="102" type="line"/>
      <point x="270" y="237" type="line"/>
      <point x="222" y="237" type="line"/>
      <point x="222" y="102" type="line"/>
      <point x="114" y="102" type="line"/>
      <point x="114" y="237" type="line"/>
      <point x="54" y="237" type="line"/>
      <point x="54" y="333" type="line"/>
      <point x="114" y="333" type="line"/>
      <point x="114" y="363" type="line"/>
      <point x="54" y="363" type="line"/>
    </contour>
    <contour>
      <point x="222" y="459" type="line"/>
      <point x="243" y="459" type="line"/>
      <point x="234" y="538" type="line"/>
      <point x="222" y="538" type="line"/>
    </contour>
    <contour>
      <point x="390" y="162" type="line"/>
      <point x="390" y="237" type="line"/>
      <point x="369" y="237" type="line"/>
      <point x="378" y="162" type="line"/>
    </contour>
    <contour>
      <point x="222" y="333" type="line"/>
      <point x="258" y="333" type="line"/>
      <point x="255" y="363" type="line"/>
      <point x="222" y="363" type="line"/>
    </contour>
    <contour>
      <point x="357" y="333" type="line"/>
      <point x="390" y="333" type="line"/>
      <point x="390" y="363" type="line"/>
      <point x="354" y="363" type="line"/>
    </contour>
  </outline>
</glyph>
<glyph name="uni20A7" format="1">
  <advance width="612"/>
  <unicode hex="20A7"/>
  <outline>
    <contour>
      <point x="70" y="467" type="line"/>
      <point x="130" y="467" type="line"/>
      <point x="130" y="598" type="line"/>
      <point x="324" y="598" type="line"/>
      <point x="358" y="598"/>
      <point x="412" y="576"/>
      <point x="451" y="540"/>
      <point x="475" y="492"/>
      <point x="479" y="467" type="qcurve"/>
      <point x="542" y="467" type="line"/>
      <point x="542" y="383" type="line"/>
      <point x="477" y="383" type="line"/>
      <point x="471" y="358"/>
      <point x="446" y="311"/>
      <point x="408" y="274"/>
      <point x="357" y="252"/>
      <point x="326" y="252" type="qcurve"/>
      <point x="244" y="252" type="line"/>
      <point x="244" y="102" type="line"/>
      <point x="130" y="102" type="line"/>
      <point x="130" y="383" type="line"/>
      <point x="70" y="383" type="line"/>
    </contour>
    <contour>
      <point x="244" y="467" type="line"/>
      <point x="355" y="467" type="line"/>
      <point x="339" y="490"/>
      <point x="306" y="490" type="qcurve"/>
      <point x="244" y="490" type="line"/>
    </contour>
    <contour>
      <point x="306" y="360" type="line"/>
      <point x="339" y="360"/>
      <point x="355" y="383" type="qcurve"/>
      <point x="244" y="383" type="line"/>
      <point x="244" y="360" type="line"/>
    </contour>
  </outline>
</glyph>
<glyph name="uni20AB" format="1">
  <advance width="612"/>
  <unicode hex="20AB"/>
  <outline>
    <contour>
      <point x="252" y="574" type="line"/>
      <point x="356" y="574" type="line"/>
      <point x="356" y="606" type="line"/>
      <point x="470" y="606" type="line"/>
      <point x="470" y="574" type="line"/>
      <point x="518" y="574" type="line"/>
      <point x="518" y="484" type="line"/>
      <point x="470" y="484" type="line"/>
      <point x="470" y="102" type="line"/>
      <point x="356" y="102" type="line"/>
      <point x="356" y="139" type="line"/>
      <point x="344" y="139" type="line"/>
      <point x="336" y="117"/>
      <point x="288" y="90"/>
      <point x="248" y="90" type="qcurve"/>
      <point x="217" y="90"/>
      <point x="160" y="114"/>
      <point x="116" y="159"/>
      <point x="90" y="226"/>
      <point x="90" y="270" type="qcurve"/>
      <point x="90" y="283" type="line"/>
      <point x="90" y="326"/>
      <point x="117" y="393"/>
      <point x="162" y="440"/>
      <point x="220" y="464"/>
      <point x="252" y="464" type="qcurve"/>
      <point x="288" y="464"/>
      <point x="333" y="438"/>
      <point x="344" y="420" type="qcurve"/>
      <point x="356" y="420" type="line"/>
      <point x="356" y="484" type="line"/>
      <point x="252" y="484" type="line"/>
    </contour>
    <contour>
      <point x="192" y="66" type="line"/>
      <point x="470" y="66" type="line"/>
      <point x="470" y="-30" type="line"/>
      <point x="192" y="-30" type="line"/>
    </contour>
    <contour>
      <point x="282" y="198" type="qcurve"/>
      <point x="312" y="198"/>
      <point x="356" y="237"/>
      <point x="356" y="277" type="qcurve"/>
      <point x="356" y="314"/>
      <point x="312" y="356"/>
      <point x="282" y="356" type="qcurve"/>
      <point x="250" y="356"/>
      <point x="204" y="314"/>
      <point x="204" y="277" type="qcurve"/>
      <point x="204" y="237"/>
      <point x="250" y="198"/>
    </contour>
  </outline>
</glyph>
<glyph name="uni20B1" format="1">
  <advance width="612"/>
  <unicode hex="20B1"/>
  <outline>
    <contour>
      <point x="70" y="455" type="line"/>
      <point x="130" y="455" type="line"/>
      <point x="130" y="598" type="line"/>
      <point x="324" y="598" type="line"/>
      <point x="360" y="598"/>
      <point x="415" y="573"/>
      <point x="454" y="533"/>
      <point x="477" y="482"/>
      <point x="480" y="455" type="qcurve"/>
      <point x="542" y="455" type="line"/>
      <point x="542" y="371" type="line"/>
      <point x="474" y="371" type="line"/>
      <point x="471" y="354"/>
      <point x="456" y="342" type="qcurve"/>
      <point x="456" y="336" type="line"/>
      <point x="542" y="336" type="line"/>
      <point x="542" y="252" type="line"/>
      <point x="244" y="252" type="line"/>
      <point x="244" y="102" type="line"/>
      <point x="130" y="102" type="line"/>
      <point x="130" y="252" type="line"/>
      <point x="70" y="252" type="line"/>
      <point x="70" y="336" type="line"/>
      <point x="130" y="336" type="line"/>
      <point x="130" y="371" type="line"/>
      <point x="70" y="371" type="line"/>
    </contour>
    <contour>
      <point x="296" y="336" type="line"/>
      <point x="318" y="336"/>
      <point x="349" y="355"/>
      <point x="357" y="371" type="qcurve"/>
      <point x="244" y="371" type="line"/>
      <point x="244" y="336" type="line"/>
    </contour>
    <contour>
      <point x="244" y="455" type="line"/>
      <point x="357" y="455" type="line"/>
      <point x="349" y="471"/>
      <point x="318" y="490"/>
      <point x="296" y="490" type="qcurve"/>
      <point x="244" y="490" type="line"/>
    </contour>
  </outline>
</glyph>
<glyph name="uni20B2" format="1">
  <advance width="612"/>
  <unicode hex="20B2"/>
  <outline>
    <contour>
      <point x="348" y="608" type="line"/>
      <point x="416" y="595"/>
      <point x="488" y="498"/>
      <point x="488" y="432" type="qcurve"/>
      <point x="488" y="420" type="line"/>
      <point x="374" y="420" type="line"/>
      <point x="374" y="428" type="line"/>
      <point x="374" y="471"/>
      <point x="348" y="491" type="qcurve"/>
      <point x="348" y="358" type="line"/>
      <point x="488" y="358" type="line"/>
      <point x="488" y="98" type="line"/>
      <point x="386" y="98" type="line"/>
      <point x="386" y="136" type="line"/>
      <point x="374" y="136" type="line"/>
      <point x="366" y="116"/>
      <point x="348" y="104" type="qcurve"/>
      <point x="348" y="28" type="line"/>
      <point x="264" y="28" type="line"/>
      <point x="264" y="88" type="line"/>
      <point x="234" y="90"/>
      <point x="180" y="117"/>
      <point x="141" y="166"/>
      <point x="118" y="237"/>
      <point x="118" y="284" type="qcurve"/>
      <point x="118" y="408" type="line"/>
      <point x="118" y="495"/>
      <point x="197" y="596"/>
      <point x="264" y="608" type="qcurve"/>
      <point x="264" y="672" type="line"/>
      <point x="348" y="672" type="line"/>
    </contour>
    <contour>
      <point x="232" y="284" type="line"/>
      <point x="232" y="228"/>
      <point x="264" y="207" type="qcurve"/>
      <point x="264" y="491" type="line"/>
      <point x="232" y="469"/>
      <point x="232" y="410" type="qcurve"/>
    </contour>
    <contour>
      <point x="348" y="262" type="line"/>
      <point x="348" y="204" type="line"/>
      <point x="380" y="220"/>
      <point x="380" y="262" type="qcurve"/>
    </contour>
  </outline>
</glyph>
<glyph name="uni20B5" format="1">
  <advance width="612"/>
  <unicode hex="20B5"/>
  <outline>
    <contour>
      <point x="350" y="608" type="line"/>
      <point x="419" y="596"/>
      <point x="492" y="500"/>
      <point x="492" y="425" type="qcurve"/>
      <point x="492" y="412" type="line"/>
      <point x="378" y="412" type="line"/>
      <point x="378" y="426" type="line"/>
      <point x="378" y="448"/>
      <point x="364" y="482"/>
      <point x="350" y="492" type="qcurve"/>
      <point x="350" y="207" type="line"/>
      <point x="378" y="225"/>
      <point x="378" y="274" type="qcurve"/>
      <point x="378" y="288" type="line"/>
      <point x="492" y="288" type="line"/>
      <point x="492" y="274" type="line"/>
      <point x="492" y="196"/>
      <point x="419" y="102"/>
      <point x="350" y="91" type="qcurve"/>
      <point x="350" y="28" type="line"/>
      <point x="266" y="28" type="line"/>
      <point x="266" y="91" type="line"/>
      <point x="197" y="102"/>
      <point x="120" y="205"/>
      <point x="120" y="294" type="qcurve"/>
      <point x="120" y="412" type="line"/>
      <point x="120" y="495"/>
      <point x="199" y="596"/>
      <point x="266" y="608" type="qcurve"/>
      <point x="266" y="672" type="line"/>
      <point x="350" y="672" type="line"/>
    </contour>
    <contour>
      <point x="234" y="281" type="line"/>
      <point x="234" y="224"/>
      <point x="266" y="206" type="qcurve"/>
      <point x="266" y="492" type="line"/>
      <point x="234" y="472"/>
      <point x="234" y="420" type="qcurve"/>
    </contour>
  </outline>
</glyph>
<glyph name="uni20B9" format="1">
  <advance width="612"/>
  <unicode hex="20B9"/>
  <outline>
    <contour>
      <point x="114" y="485" type="line"/>
      <point x="314" y="485" type="line"/>
      <point x="298" y="514"/>
      <point x="255" y="514" type="qcurve"/>
      <point x="114" y="514" type="line"/>
      <point x="114" y="598" type="line"/>
      <point x="498" y="598" type="line"/>
      <point x="498" y="514" type="line"/>
      <point x="423" y="514" type="line"/>
      <point x="423" y="508" type="line"/>
      <point x="431" y="498"/>
      <point x="434" y="485" type="qcurve"/>
      <point x="498" y="485" type="line"/>
      <point x="498" y="401" type="line"/>
      <point x="430" y="401" type="line"/>
      <point x="422" y="378"/>
      <point x="394" y="338"/>
      <point x="372" y="328" type="qcurve"/>
      <point x="372" y="316" type="line"/>
      <point x="399" y="313"/>
      <point x="426" y="279"/>
      <point x="426" y="252" type="qcurve"/>
      <point x="426" y="102" type="line"/>
      <point x="318" y="102" type="line"/>
      <point x="318" y="232" type="line"/>
      <point x="318" y="249"/>
      <point x="300" y="270"/>
      <point x="280" y="270" type="qcurve"/>
      <point x="114" y="270" type="line"/>
      <point x="114" y="372" type="line"/>
      <point x="255" y="372" type="line"/>
      <point x="296" y="372"/>
      <point x="311" y="401" type="qcurve"/>
      <point x="114" y="401" type="line"/>
    </contour>
  </outline>
</glyph>
<glyph name="uni2120" format="1">
  <advance width="612"/>
  <unicode hex="2120"/>
  <outline>
    <contour>
      <point x="278" y="700" type="line"/>
      <point x="410" y="700" type="line"/>
      <point x="422" y="502" type="line"/>
      <point x="422" y="466" type="line"/>
      <point x="434" y="466" type="line"/>
      <point x="434" y="502" type="line"/>
      <point x="446" y="700" type="line"/>
      <point x="578" y="700" type="line"/>
      <point x="578" y="412" type="line"/>
      <point x="502" y="412" type="line"/>
      <point x="502" y="646" type="line"/>
      <point x="490" y="646" type="line"/>
      <point x="490" y="610" type="line"/>
      <point x="476" y="412" type="line"/>
      <point x="380" y="412" type="line"/>
      <point x="366" y="610" type="line"/>
      <point x="366" y="646" type="line"/>
      <point x="354" y="646" type="line"/>
      <point x="354" y="412" type="line"/>
      <point x="278" y="412" type="line"/>
    </contour>
    <contour>
      <point x="172" y="614" type="line"/>
      <point x="172" y="623"/>
      <point x="157" y="636"/>
      <point x="143" y="636" type="qcurve"/>
      <point x="129" y="636"/>
      <point x="116" y="624"/>
      <point x="116" y="616" type="qcurve"/>
      <point x="116" y="605"/>
      <point x="136" y="595"/>
      <point x="162" y="590" type="qcurve"/>
      <point x="213" y="580"/>
      <point x="254" y="536"/>
      <point x="254" y="498" type="qcurve"/>
      <point x="254" y="456"/>
      <point x="197" y="406"/>
      <point x="144" y="406" type="qcurve"/>
      <point x="88" y="406"/>
      <point x="32" y="461"/>
      <point x="32" y="502" type="qcurve"/>
      <point x="32" y="514" type="line"/>
      <point x="108" y="514" type="line"/>
      <point x="108" y="508" type="line"/>
      <point x="108" y="476"/>
      <point x="145" y="476" type="qcurve"/>
      <point x="162" y="476"/>
      <point x="176" y="489"/>
      <point x="176" y="500" type="qcurve"/>
      <point x="176" y="512"/>
      <point x="156" y="525"/>
      <point x="125" y="530" type="qcurve"/>
      <point x="109" y="533"/>
      <point x="78" y="544"/>
      <point x="53" y="564"/>
      <point x="38" y="594"/>
      <point x="38" y="616" type="qcurve"/>
      <point x="38" y="660"/>
      <point x="98" y="706"/>
      <point x="142" y="706" type="qcurve"/>
      <point x="193" y="706"/>
      <point x="248" y="656"/>
      <point x="248" y="620" type="qcurve"/>
      <point x="248" y="608" type="line"/>
      <point x="172" y="608" type="line"/>
    </contour>
  </outline>
</glyph>
<glyph name="uni2126" format="1">
  <advance width="612"/>
  <unicode hex="2126"/>
  <outline>
    <contour>
      <point x="36" y="126" type="line"/>
      <point x="140" y="126" type="line"/>
      <point x="140" y="144" type="line"/>
      <point x="120" y="154"/>
      <point x="86" y="185"/>
      <point x="62" y="229"/>
      <point x="48" y="288"/>
      <point x="48" y="326" type="qcurve"/>
      <point x="48" y="434" type="line"/>
      <point x="48" y="499"/>
      <point x="84" y="603"/>
      <point x="150" y="675"/>
      <point x="246" y="714"/>
      <point x="306" y="714" type="qcurve"/>
      <point x="366" y="714"/>
      <point x="462" y="675"/>
      <point x="528" y="603"/>
      <point x="564" y="499"/>
      <point x="564" y="434" type="qcurve"/>
      <point x="564" y="326" type="line"/>
      <point x="564" y="249"/>
      <point x="512" y="165"/>
      <point x="472" y="144" type="qcurve"/>
      <point x="472" y="126" type="line"/>
      <point x="576" y="126" type="line"/>
      <point x="576" y="0" type="line"/>
      <point x="342" y="0" type="line"/>
      <point x="342" y="138" type="line"/>
      <point x="372" y="148"/>
      <point x="408" y="179"/>
      <point x="426" y="228"/>
      <point x="432" y="297"/>
      <point x="432" y="344" type="qcurve"/>
      <point x="432" y="426" type="line"/>
      <point x="432" y="509"/>
      <point x="365" y="588"/>
      <point x="306" y="588" type="qcurve"/>
      <point x="247" y="588"/>
      <point x="180" y="509"/>
      <point x="180" y="426" type="qcurve"/>
      <point x="180" y="344" type="line"/>
      <point x="180" y="297"/>
      <point x="186" y="228"/>
      <point x="204" y="179"/>
      <point x="240" y="148"/>
      <point x="270" y="138" type="qcurve"/>
      <point x="270" y="0" type="line"/>
      <point x="36" y="0" type="line"/>
    </contour>
  </outline>
</glyph>
<glyph name="uni2198" format="1">
  <advance width="612"/>
  <unicode hex="2198"/>
  <outline>
    <contour>
      <point x="198" y="110" type="line"/>
      <point x="198" y="225" type="line"/>
      <point x="336" y="225" type="line"/>
      <point x="404" y="196" type="line"/>
      <point x="411" y="213" type="line"/>
      <point x="350" y="240" type="line"/>
      <point x="51" y="539" type="line"/>
      <point x="132" y="620" type="line"/>
      <point x="431" y="321" type="line"/>
      <point x="458" y="260" type="line"/>
      <point x="475" y="267" type="line"/>
      <point x="446" y="335" type="line"/>
      <point x="446" y="473" type="line"/>
      <point x="561" y="473" type="line"/>
      <point x="561" y="251" type="line"/>
      <point x="420" y="110" type="line"/>
    </contour>
  </outline>
</glyph>
<glyph name="uni2199" format="1">
  <advance width="612"/>
  <unicode hex="2199"/>
  <outline>
    <contour>
      <point x="192" y="110" type="line"/>
      <point x="51" y="251" type="line"/>
      <point x="51" y="473" type="line"/>
      <point x="166" y="473" type="line"/>
      <point x="166" y="335" type="line"/>
      <point x="137" y="267" type="line"/>
      <point x="154" y="260" type="line"/>
      <point x="181" y="321" type="line"/>
      <point x="480" y="620" type="line"/>
      <point x="561" y="539" type="line"/>
      <point x="262" y="240" type="line"/>
      <point x="201" y="213" type="line"/>
      <point x="208" y="196" type="line"/>
      <point x="276" y="225" type="line"/>
      <point x="414" y="225" type="line"/>
      <point x="414" y="110" type="line"/>
    </contour>
  </outline>
</glyph>
<glyph name="infinity" format="1">
  <advance width="612"/>
  <unicode hex="221E"/>
  <outline>
    <contour>
      <point x="34" y="350" type="qcurve"/>
      <point x="34" y="384"/>
      <point x="59" y="443"/>
      <point x="102" y="487"/>
      <point x="160" y="513"/>
      <point x="192" y="513" type="qcurve"/>
      <point x="225" y="513"/>
      <point x="280" y="490"/>
      <point x="297" y="465" type="qcurve"/>
      <point x="315" y="465" type="line"/>
      <point x="332" y="490"/>
      <point x="387" y="513"/>
      <point x="420" y="513" type="qcurve"/>
      <point x="452" y="513"/>
      <point x="510" y="487"/>
      <point x="553" y="443"/>
      <point x="578" y="384"/>
      <point x="578" y="350" type="qcurve"/>
      <point x="578" y="316"/>
      <point x="553" y="257"/>
      <point x="510" y="213"/>
      <point x="452" y="187"/>
      <point x="420" y="187" type="qcurve"/>
      <point x="387" y="187"/>
      <point x="332" y="210"/>
      <point x="315" y="235" type="qcurve"/>
      <point x="297" y="235" type="line"/>
      <point x="280" y="210"/>
      <point x="225" y="187"/>
      <point x="192" y="187" type="qcurve"/>
      <point x="160" y="187"/>
      <point x="102" y="213"/>
      <point x="59" y="257"/>
      <point x="34" y="316"/>
    </contour>
    <contour>
      <point x="252" y="350" type="qcurve"/>
      <point x="252" y="373"/>
      <point x="220" y="405"/>
      <point x="197" y="405" type="qcurve"/>
      <point x="174" y="405"/>
      <point x="142" y="373"/>
      <point x="142" y="350" type="qcurve"/>
      <point x="142" y="327"/>
      <point x="174" y="295"/>
      <point x="197" y="295" type="qcurve"/>
      <point x="220" y="295"/>
      <point x="252" y="327"/>
    </contour>
    <contour>
      <point x="360" y="350" type="qcurve"/>
      <point x="360" y="327"/>
      <point x="392" y="295"/>
      <point x="415" y="295" type="qcurve"/>
      <point x="438" y="295"/>
      <point x="470" y="327"/>
      <point x="470" y="350" type="qcurve"/>
      <point x="470" y="373"/>
      <point x="438" y="405"/>
      <point x="415" y="405" type="qcurve"/>
      <point x="392" y="405"/>
      <point x="360" y="373"/>
    </contour>
  </outline>
</glyph>
<glyph name="integral" format="1">
  <advance width="612"/>
  <unicode hex="222B"/>
  <outline>
    <contour>
      <point x="369" y="-98" type="line"/>
      <point x="369" y="-141"/>
      <point x="311" y="-200"/>
      <point x="268" y="-200" type="qcurve"/>
      <point x="129" y="-200" type="line"/>
      <point x="129" y="-80" type="line"/>
      <point x="216" y="-80" type="line"/>
      <point x="243" y="-80"/>
      <point x="243" y="-50" type="qcurve"/>
      <point x="243" y="598" type="line"/>
      <point x="243" y="641"/>
      <point x="301" y="700"/>
      <point x="344" y="700" type="qcurve"/>
      <point x="483" y="700" type="line"/>
      <point x="483" y="580" type="line"/>
      <point x="396" y="580" type="line"/>
      <point x="369" y="580"/>
      <point x="369" y="550" type="qcurve"/>
    </contour>
  </outline>
</glyph>
<glyph name="approxequal" format="1">
  <advance width="612"/>
  <unicode hex="2248"/>
  <outline>
    <contour>
      <point x="337" y="510" type="qcurve"/>
      <point x="349" y="490"/>
      <point x="365" y="475"/>
      <point x="379" y="475" type="qcurve"/>
      <point x="389" y="475"/>
      <point x="408" y="486"/>
      <point x="418" y="494" type="qcurve"/>
      <point x="488" y="545" type="line"/>
      <point x="558" y="452" type="line"/>
      <point x="453" y="372" type="line"/>
      <point x="436" y="358"/>
      <point x="391" y="337"/>
      <point x="364" y="337" type="qcurve"/>
      <point x="329" y="337"/>
      <point x="289" y="361"/>
      <point x="278" y="378" type="qcurve"/>
      <point x="266" y="398"/>
      <point x="250" y="413"/>
      <point x="236" y="413" type="qcurve"/>
      <point x="226" y="413"/>
      <point x="207" y="402"/>
      <point x="197" y="394" type="qcurve"/>
      <point x="127" y="343" type="line"/>
      <point x="57" y="436" type="line"/>
      <point x="162" y="516" type="line"/>
      <point x="179" y="530"/>
      <point x="224" y="551"/>
      <point x="251" y="551" type="qcurve"/>
      <point x="286" y="551"/>
      <point x="326" y="527"/>
    </contour>
    <contour>
      <point x="337" y="284" type="qcurve"/>
      <point x="349" y="264"/>
      <point x="365" y="249"/>
      <point x="379" y="249" type="qcurve"/>
      <point x="389" y="249"/>
      <point x="408" y="260"/>
      <point x="418" y="268" type="qcurve"/>
      <point x="488" y="319" type="line"/>
      <point x="558" y="226" type="line"/>
      <point x="453" y="146" type="line"/>
      <point x="436" y="132"/>
      <point x="391" y="111"/>
      <point x="364" y="111" type="qcurve"/>
      <point x="329" y="111"/>
      <point x="289" y="135"/>
      <point x="278" y="152" type="qcurve"/>
      <point x="266" y="172"/>
      <point x="250" y="187"/>
      <point x="236" y="187" type="qcurve"/>
      <point x="226" y="187"/>
      <point x="207" y="176"/>
      <point x="197" y="168" type="qcurve"/>
      <point x="124" y="115" type="line"/>
      <point x="54" y="208" type="line"/>
      <point x="162" y="290" type="line"/>
      <point x="179" y="304"/>
      <point x="224" y="325"/>
      <point x="251" y="325" type="qcurve"/>
      <point x="286" y="325"/>
      <point x="326" y="301"/>
    </contour>
  </outline>
</glyph>
<glyph name="lessequal" format="1">
  <advance width="612"/>
  <unicode hex="2264"/>
  <outline>
    <contour>
      <point x="97" y="108" type="line"/>
      <point x="515" y="108" type="line"/>
      <point x="515" y="0" type="line"/>
      <point x="97" y="0" type="line"/>
    </contour>
    <contour>
      <point x="97" y="246" type="line"/>
      <point x="97" y="454" type="line"/>
      <point x="515" y="564" type="line"/>
      <point x="515" y="444" type="line"/>
      <point x="175" y="359" type="line"/>
      <point x="175" y="341" type="line"/>
      <point x="515" y="256" type="line"/>
      <point x="515" y="136" type="line"/>
    </contour>
  </outline>
</glyph>
<glyph name="fi" format="1">
  <advance width="612"/>
  <unicode hex="FB01"/>
  <outline>
    <contour>
      <point x="384" y="644" type="qcurve"/>
      <point x="384" y="663"/>
      <point x="399" y="698"/>
      <point x="425" y="723"/>
      <point x="459" y="738"/>
      <point x="479" y="738" type="qcurve"/>
      <point x="518" y="738"/>
      <point x="573" y="683"/>
      <point x="573" y="644" type="qcurve"/>
      <point x="573" y="624"/>
      <point x="558" y="590"/>
      <point x="533" y="564"/>
      <point x="498" y="549"/>
      <point x="479" y="549" type="qcurve"/>
      <point x="459" y="549"/>
      <point x="425" y="564"/>
      <point x="399" y="590"/>
      <point x="384" y="624"/>
    </contour>
    <contour>
      <point x="24" y="496" type="line"/>
      <point x="141" y="496" type="line"/>
      <point x="141" y="598" type="line"/>
      <point x="141" y="641"/>
      <point x="199" y="700"/>
      <point x="242" y="700" type="qcurve"/>
      <point x="336" y="700" type="line"/>
      <point x="336" y="580" type="line"/>
      <point x="294" y="580" type="line"/>
      <point x="267" y="580"/>
      <point x="267" y="550" type="qcurve"/>
      <point x="267" y="496" type="line"/>
      <point x="542" y="496" type="line"/>
      <point x="542" y="0" type="line"/>
      <point x="416" y="0" type="line"/>
      <point x="416" y="376" type="line"/>
      <point x="267" y="376" type="line"/>
      <point x="267" y="0" type="line"/>
      <point x="141" y="0" type="line"/>
      <point x="141" y="376" type="line"/>
      <point x="24" y="376" type="line"/>
    </contour>
  </outline>
</glyph>
<glyph name="B.alt" format="1">
  <advance width="612"/>
  <outline>
    <contour>
      <point x="88" y="700" type="line"/>
      <point x="347" y="700" type="line"/>
      <point x="397" y="700"/>
      <point x="474" y="672"/>
      <point x="527" y="624"/>
      <point x="554" y="557"/>
      <point x="554" y="518" type="qcurve"/>
      <point x="554" y="506" type="line"/>
      <point x="554" y="446"/>
      <point x="487" y="374"/>
      <point x="436" y="360" type="qcurve"/>
      <point x="436" y="342" type="line"/>
      <point x="487" y="328"/>
      <point x="554" y="255"/>
      <point x="554" y="195" type="qcurve"/>
      <point x="554" y="183" type="line"/>
      <point x="554" y="144"/>
      <point x="527" y="77"/>
      <point x="474" y="28"/>
      <point x="397" y="0"/>
      <point x="347" y="0" type="qcurve"/>
      <point x="88" y="0" type="line"/>
    </contour>
    <contour>
      <point x="220" y="126" type="line"/>
      <point x="334" y="126" type="line"/>
      <point x="376" y="126"/>
      <point x="428" y="162"/>
      <point x="428" y="204" type="qcurve"/>
      <point x="428" y="210" type="line"/>
      <point x="428" y="252"/>
      <point x="376" y="288"/>
      <point x="334" y="288" type="qcurve"/>
      <point x="220" y="288" type="line"/>
    </contour>
    <contour>
      <point x="220" y="414" type="line"/>
      <point x="334" y="414" type="line"/>
      <point x="376" y="414"/>
      <point x="428" y="449"/>
      <point x="428" y="491" type="qcurve"/>
      <point x="428" y="497" type="line"/>
      <point x="428" y="539"/>
      <point x="376" y="574"/>
      <point x="334" y="574" type="qcurve"/>
      <point x="220" y="574" type="line"/>
    </contour>
  </outline>
</glyph>
<glyph name="Eth.alt" format="1">
  <advance width="612"/>
  <outline>
    <contour>
      <point x="32" y="410" type="line"/>
      <point x="98" y="410" type="line"/>
      <point x="98" y="700" type="line"/>
      <point x="298" y="700" type="line"/>
      <point x="428" y="700"/>
      <point x="554" y="579"/>
      <point x="554" y="452" type="qcurve"/>
      <point x="554" y="248" type="line"/>
      <point x="554" y="121"/>
      <point x="428" y="0"/>
      <point x="298" y="0" type="qcurve"/>
      <point x="98" y="0" type="line"/>
      <point x="98" y="290" type="line"/>
      <point x="32" y="290" type="line"/>
    </contour>
    <contour>
      <point x="298" y="126" type="line"/>
      <point x="367" y="126"/>
      <point x="422" y="191"/>
      <point x="422" y="260" type="qcurve"/>
      <point x="422" y="452" type="line"/>
      <point x="422" y="512"/>
      <point x="367" y="574"/>
      <point x="298" y="574" type="qcurve"/>
      <point x="230" y="574" type="line"/>
      <point x="230" y="410" type="line"/>
      <point x="328" y="410" type="line"/>
      <point x="328" y="290" type="line"/>
      <point x="230" y="290" type="line"/>
      <point x="230" y="126" type="line"/>
    </contour>
  </outline>
</glyph>
<glyph name="IJ.alt" format="1">
  <advance width="612"/>
  <outline>
    <contour>
      <point x="210" y="700" type="line"/>
      <point x="210" y="342" type="line"/>
      <point x="78" y="342" type="line"/>
      <point x="78" y="700" type="line"/>
    </contour>
    <contour>
      <point x="534" y="210" type="line"/>
      <point x="534" y="101"/>
      <point x="416" y="-14"/>
      <point x="313" y="-14" type="qcurve"/>
      <point x="260" y="-14"/>
      <point x="174" y="15"/>
      <point x="112" y="72"/>
      <point x="78" y="155"/>
      <point x="78" y="210" type="qcurve"/>
      <point x="78" y="276" type="line"/>
      <point x="210" y="276" type="line"/>
      <point x="210" y="210" type="line"/>
      <point x="210" y="163"/>
      <point x="262" y="110"/>
      <point x="309" y="110" type="qcurve"/>
      <point x="353" y="110"/>
      <point x="402" y="162"/>
      <point x="402" y="210" type="qcurve"/>
      <point x="402" y="700" type="line"/>
      <point x="534" y="700" type="line"/>
    </contour>
  </outline>
</glyph>
<glyph name="a.alt" format="1">
  <advance width="612"/>
  <outline>
    <contour>
      <point x="370" y="66" type="line"/>
      <point x="358" y="30"/>
      <point x="297" y="-14"/>
      <point x="240" y="-14" type="qcurve"/>
      <point x="197" y="-14"/>
      <point x="132" y="10"/>
      <point x="88" y="52"/>
      <point x="66" y="109"/>
      <point x="66" y="142" type="qcurve"/>
      <point x="66" y="148" type="line"/>
      <point x="66" y="184"/>
      <point x="93" y="242"/>
      <point x="139" y="284"/>
      <point x="201" y="306"/>
      <point x="236" y="306" type="qcurve"/>
      <point x="370" y="306" type="line"/>
      <point x="370" y="312" type="line"/>
      <point x="370" y="344"/>
      <point x="324" y="390"/>
      <point x="280" y="390" type="qcurve"/>
      <point x="247" y="390"/>
      <point x="197" y="357"/>
      <point x="186" y="330" type="qcurve"/>
      <point x="84" y="392" type="line"/>
      <point x="95" y="414"/>
      <point x="131" y="457"/>
      <point x="182" y="490"/>
      <point x="248" y="510"/>
      <point x="289" y="510" type="qcurve"/>
      <point x="332" y="510"/>
      <point x="408" y="482"/>
      <point x="464" y="431"/>
      <point x="496" y="361"/>
      <point x="496" y="318" type="qcurve"/>
      <point x="496" y="150" type="line"/>
      <point x="496" y="120"/>
      <point x="523" y="120" type="qcurve"/>
      <point x="554" y="120" type="line"/>
      <point x="554" y="0" type="line"/>
      <point x="476" y="0" type="line"/>
      <point x="440" y="0"/>
      <point x="390" y="31"/>
      <point x="388" y="66" type="qcurve"/>
    </contour>
    <contour>
      <point x="264" y="106" type="qcurve"/>
      <point x="314" y="106"/>
      <point x="370" y="159"/>
      <point x="370" y="198" type="qcurve"/>
      <point x="252" y="198" type="line"/>
      <point x="225" y="198"/>
      <point x="198" y="172"/>
      <point x="198" y="154" type="qcurve"/>
      <point x="198" y="133"/>
      <point x="229" y="106"/>
    </contour>
  </outline>
</glyph>
<glyph name="aogonek.alt" format="1">
  <advance width="612"/>
  <outline>
    <contour>
      <point x="370" y="66" type="line"/>
      <point x="358" y="30"/>
      <point x="297" y="-14"/>
      <point x="240" y="-14" type="qcurve"/>
      <point x="197" y="-14"/>
      <point x="132" y="10"/>
      <point x="88" y="52"/>
      <point x="66" y="109"/>
      <point x="66" y="142" type="qcurve"/>
      <point x="66" y="148" type="line"/>
      <point x="66" y="184"/>
      <point x="93" y="242"/>
      <point x="139" y="284"/>
      <point x="201" y="306"/>
      <point x="236" y="306" type="qcurve"/>
      <point x="370" y="306" type="line"/>
      <point x="370" y="312" type="line"/>
      <point x="370" y="344"/>
      <point x="324" y="390"/>
      <point x="280" y="390" type="qcurve"/>
      <point x="247" y="390"/>
      <point x="197" y="357"/>
      <point x="186" y="330" type="qcurve"/>
      <point x="84" y="392" type="line"/>
      <point x="95" y="414"/>
      <point x="131" y="457"/>
      <point x="182" y="490"/>
      <point x="248" y="510"/>
      <point x="289" y="510" type="qcurve"/>
      <point x="332" y="510"/>
      <point x="408" y="482"/>
      <point x="464" y="431"/>
      <point x="496" y="361"/>
      <point x="496" y="318" type="qcurve"/>
      <point x="496" y="150" type="line"/>
      <point x="496" y="120"/>
      <point x="523" y="120" type="qcurve"/>
      <point x="554" y="120" type="line"/>
      <point x="554" y="0" type="line"/>
      <point x="499" y="0" type="line"/>
      <point x="486" y="-56" type="line"/>
      <point x="485" y="-61"/>
      <point x="485" y="-64" type="qcurve"/>
      <point x="485" y="-86"/>
      <point x="508" y="-86" type="qcurve"/>
      <point x="554" y="-86" type="line"/>
      <point x="554" y="-170" type="line"/>
      <point x="474" y="-170" type="line"/>
      <point x="444" y="-170"/>
      <point x="394" y="-132"/>
      <point x="394" y="-95" type="qcurve"/>
      <point x="394" y="-86"/>
      <point x="397" y="-72" type="qcurve"/>
      <point x="416" y="14" type="line"/>
      <point x="389" y="31"/>
      <point x="388" y="66" type="qcurve"/>
    </contour>
    <contour>
      <point x="264" y="106" type="qcurve"/>
      <point x="314" y="106"/>
      <point x="370" y="159"/>
      <point x="370" y="198" type="qcurve"/>
      <point x="252" y="198" type="line"/>
      <point x="225" y="198"/>
      <point x="198" y="172"/>
      <point x="198" y="154" type="qcurve"/>
      <point x="198" y="133"/>
      <point x="229" y="106"/>
    </contour>
  </outline>
</glyph>
<glyph name="copyright.cap" format="1">
  <advance width="612"/>
  <outline>
    <contour>
      <point x="268" y="264" type="line"/>
      <point x="268" y="244"/>
      <point x="285" y="220"/>
      <point x="306" y="220" type="qcurve"/>
      <point x="327" y="220"/>
      <point x="344" y="244"/>
      <point x="344" y="264" type="qcurve"/>
      <point x="344" y="310" type="line"/>
      <point x="440" y="310" type="line"/>
      <point x="440" y="270" type="line"/>
      <point x="440" y="204"/>
      <point x="380" y="130"/>
      <point x="306" y="130" type="qcurve"/>
      <point x="241" y="130"/>
      <point x="172" y="205"/>
      <point x="172" y="280" type="qcurve"/>
      <point x="172" y="420" type="line"/>
      <point x="172" y="495"/>
      <point x="241" y="570"/>
      <point x="306" y="570" type="qcurve"/>
      <point x="380" y="570"/>
      <point x="440" y="496"/>
      <point x="440" y="430" type="qcurve"/>
      <point x="440" y="390" type="line"/>
      <point x="344" y="390" type="line"/>
      <point x="344" y="436" type="line"/>
      <point x="344" y="456"/>
      <point x="327" y="480"/>
      <point x="306" y="480" type="qcurve"/>
      <point x="285" y="480"/>
      <point x="268" y="456"/>
      <point x="268" y="436" type="qcurve"/>
    </contour>
    <contour>
      <point x="30" y="514" type="line"/>
      <point x="30" y="612"/>
      <point x="135" y="714"/>
      <point x="224" y="714" type="qcurve"/>
      <point x="388" y="714" type="line"/>
      <point x="477" y="714"/>
      <point x="582" y="612"/>
      <point x="582" y="514" type="qcurve"/>
      <point x="582" y="186" type="line"/>
      <point x="582" y="88"/>
      <point x="477" y="-14"/>
      <point x="388" y="-14" type="qcurve"/>
      <point x="224" y="-14" type="line"/>
      <point x="135" y="-14"/>
      <point x="30" y="88"/>
      <point x="30" y="186" type="qcurve"/>
    </contour>
    <contour>
      <point x="126" y="206" type="line"/>
      <point x="126" y="146"/>
      <point x="181" y="82"/>
      <point x="240" y="82" type="qcurve"/>
      <point x="372" y="82" type="line"/>
      <point x="431" y="82"/>
      <point x="486" y="146"/>
      <point x="486" y="206" type="qcurve"/>
      <point x="486" y="494" type="line"/>
      <point x="486" y="554"/>
      <point x="431" y="618"/>
      <point x="372" y="618" type="qcurve"/>
      <point x="240" y="618" type="line"/>
      <point x="181" y="618"/>
      <point x="126" y="554"/>
      <point x="126" y="494" type="qcurve"/>
    </contour>
  </outline>
</glyph>
<glyph name="five.tosn" format="1">
  <advance width="612"/>
  <outline>
    <contour>
      <point x="64" y="126" type="line"/>
      <point x="64" y="496" type="line"/>
      <point x="526" y="496" type="line"/>
      <point x="526" y="370" type="line"/>
      <point x="194" y="370" type="line"/>
      <point x="194" y="198" type="line"/>
      <point x="212" y="198" type="line"/>
      <point x="226" y="237"/>
      <point x="305" y="294"/>
      <point x="370" y="294" type="qcurve"/>
      <point x="419" y="294"/>
      <point x="495" y="260"/>
      <point x="547" y="200"/>
      <point x="574" y="116"/>
      <point x="574" y="66" type="qcurve"/>
      <point x="574" y="60" type="line"/>
      <point x="574" y="7"/>
      <point x="542" y="-88"/>
      <point x="479" y="-159"/>
      <point x="384" y="-200"/>
      <point x="320" y="-200" type="qcurve"/>
      <point x="259" y="-200"/>
      <point x="164" y="-167"/>
      <point x="97" y="-109"/>
      <point x="57" y="-29"/>
      <point x="52" y="18" type="qcurve"/>
      <point x="186" y="48" type="line"/>
      <point x="189" y="23"/>
      <point x="207" y="-21"/>
      <point x="239" y="-54"/>
      <point x="287" y="-74"/>
      <point x="320" y="-74" type="qcurve"/>
      <point x="380" y="-74"/>
      <point x="442" y="-5"/>
      <point x="442" y="52" type="qcurve"/>
      <point x="442" y="109"/>
      <point x="392" y="168"/>
      <point x="350" y="168" type="qcurve"/>
      <point x="321" y="168"/>
      <point x="285" y="143"/>
      <point x="280" y="126" type="qcurve"/>
    </contour>
  </outline>
</glyph>
<glyph name="g.alt" format="1">
  <advance width="612"/>
  <outline>
    <contour>
      <point x="374" y="102" type="line"/>
      <point x="412" y="102"/>
      <point x="472" y="78"/>
      <point x="513" y="37"/>
      <point x="535" y="-16"/>
      <point x="535" y="-44" type="qcurve"/>
      <point x="535" y="-50" type="line"/>
      <point x="535" y="-79"/>
      <point x="515" y="-133"/>
      <point x="476" y="-175"/>
      <point x="418" y="-200"/>
      <point x="380" y="-200" type="qcurve"/>
      <point x="232" y="-200" type="line"/>
      <point x="158" y="-200"/>
      <point x="82" y="-131"/>
      <point x="82" y="-74" type="qcurve"/>
      <point x="82" y="-41"/>
      <point x="111" y="8"/>
      <point x="138" y="20" type="qcurve"/>
      <point x="138" y="38" type="line"/>
      <point x="118" y="46"/>
      <point x="90" y="82"/>
      <point x="90" y="114" type="qcurve"/>
      <point x="90" y="144"/>
      <point x="121" y="183"/>
      <point x="141" y="192" type="qcurve"/>
      <point x="141" y="210" type="line"/>
      <point x="128" y="225"/>
      <point x="102" y="281"/>
      <point x="102" y="320" type="qcurve"/>
      <point x="102" y="326" type="line"/>
      <point x="102" y="369"/>
      <point x="132" y="437"/>
      <point x="184" y="485"/>
      <point x="256" y="510"/>
      <point x="298" y="510" type="qcurve"/>
      <point x="318" y="510"/>
      <point x="358" y="502"/>
      <point x="372" y="496" type="qcurve"/>
      <point x="535" y="496" type="line"/>
      <point x="535" y="382" type="line"/>
      <point x="466" y="382" type="line"/>
      <point x="466" y="364" type="line"/>
      <point x="477" y="352"/>
      <point x="488" y="316"/>
      <point x="488" y="296" type="qcurve"/>
      <point x="488" y="264"/>
      <point x="462" y="206"/>
      <point x="413" y="162"/>
      <point x="342" y="136"/>
      <point x="298" y="136" type="qcurve"/>
      <point x="266" y="136"/>
      <point x="232" y="146"/>
      <point x="218" y="152" type="qcurve"/>
      <point x="209" y="150"/>
      <point x="194" y="139"/>
      <point x="194" y="127" type="qcurve"/>
      <point x="194" y="102"/>
      <point x="226" y="102" type="qcurve"/>
    </contour>
    <contour>
      <point x="298" y="390" type="qcurve"/>
      <point x="268" y="390"/>
      <point x="227" y="356"/>
      <point x="227" y="324" type="qcurve"/>
      <point x="227" y="292"/>
      <point x="268" y="258"/>
      <point x="298" y="258" type="qcurve"/>
      <point x="328" y="258"/>
      <point x="369" y="292"/>
      <point x="369" y="324" type="qcurve"/>
      <point x="369" y="356"/>
      <point x="328" y="390"/>
    </contour>
    <contour>
      <point x="366" y="-80" type="line"/>
      <point x="409" y="-80"/>
      <point x="409" y="-46" type="qcurve"/>
      <point x="409" y="-12"/>
      <point x="366" y="-12" type="qcurve"/>
      <point x="251" y="-12" type="line"/>
      <point x="208" y="-12"/>
      <point x="208" y="-46" type="qcurve"/>
      <point x="208" y="-80"/>
      <point x="251" y="-80" type="qcurve"/>
    </contour>
  </outline>
</glyph>
<glyph name="i.alt" format="1">
  <advance width="612"/>
  <outline>
    <contour>
      <point x="301" y="376" type="line"/>
      <point x="127" y="376" type="line"/>
      <point x="127" y="496" type="line"/>
      <point x="427" y="496" type="line"/>
      <point x="427" y="0" type="line"/>
      <point x="301" y="0" type="line"/>
    </contour>
    <contour>
      <point x="458" y="643" type="qcurve"/>
      <point x="458" y="623"/>
      <point x="443" y="588"/>
      <point x="417" y="563"/>
      <point x="382" y="548"/>
      <point x="363" y="548" type="qcurve"/>
      <point x="343" y="548"/>
      <point x="309" y="563"/>
      <point x="283" y="588"/>
      <point x="268" y="623"/>
      <point x="268" y="643" type="qcurve"/>
      <point x="268" y="663"/>
      <point x="283" y="698"/>
      <point x="309" y="723"/>
      <point x="343" y="738"/>
      <point x="363" y="738" type="qcurve"/>
      <point x="382" y="738"/>
      <point x="417" y="723"/>
      <point x="443" y="698"/>
      <point x="458" y="663"/>
    </contour>
  </outline>
</glyph>
<glyph name="imacron.alt" format="1">
  <advance width="612"/>
  <outline>
    <contour>
      <point x="427" y="570" type="line"/>
      <point x="127" y="570" type="line"/>
      <point x="127" y="672" type="line"/>
      <point x="427" y="672" type="line"/>
    </contour>
    <component base="dotlessi.alt"/>
  </outline>
</glyph>
<glyph name="jcircumflex.alt" format="1">
  <advance width="612"/>
  <outline>
    <contour>
      <point x="114" y="496" type="line"/>
      <point x="444" y="496" type="line"/>
      <point x="444" y="-200" type="line"/>
      <point x="318" y="-200" type="line"/>
      <point x="318" y="376" type="line"/>
      <point x="114" y="376" type="line"/>
    </contour>
    <component base="circumflex" xOffset="75"/>
  </outline>
</glyph>
<glyph name="lslash.alt" format="1">
  <advance width="612"/>
  <outline>
    <contour>
      <point x="244" y="0" type="line"/>
      <point x="244" y="235" type="line"/>
      <point x="203" y="215" type="line"/>
      <point x="149" y="322" type="line"/>
      <point x="244" y="370" type="line"/>
      <point x="244" y="580" type="line"/>
      <point x="70" y="580" type="line"/>
      <point x="70" y="700" type="line"/>
      <point x="370" y="700" type="line"/>
      <point x="370" y="433" type="line"/>
      <point x="426" y="462" type="line"/>
      <point x="480" y="355" type="line"/>
      <point x="370" y="299" type="line"/>
      <point x="370" y="0" type="line"/>
    </contour>
  </outline>
</glyph>
<glyph name="numbersign.cap" format="1">
  <advance width="612"/>
  <outline>
    <contour>
      <point x="144" y="0" type="line"/>
      <point x="144" y="188" type="line"/>
      <point x="16" y="188" type="line"/>
      <point x="16" y="296" type="line"/>
      <point x="144" y="296" type="line"/>
      <point x="144" y="404" type="line"/>
      <point x="16" y="404" type="line"/>
      <point x="16" y="512" type="line"/>
      <point x="144" y="512" type="line"/>
      <point x="144" y="700" type="line"/>
      <point x="252" y="700" type="line"/>
      <point x="252" y="512" type="line"/>
      <point x="360" y="512" type="line"/>
      <point x="360" y="700" type="line"/>
      <point x="468" y="700" type="line"/>
      <point x="468" y="512" type="line"/>
      <point x="596" y="512" type="line"/>
      <point x="596" y="404" type="line"/>
      <point x="468" y="404" type="line"/>
      <point x="468" y="296" type="line"/>
      <point x="596" y="296" type="line"/>
      <point x="596" y="188" type="line"/>
      <point x="468" y="188" type="line"/>
      <point x="468" y="0" type="line"/>
      <point x="360" y="0" type="line"/>
      <point x="360" y="188" type="line"/>
      <point x="252" y="188" type="line"/>
      <point x="252" y="0" type="line"/>
    </contour>
    <contour>
      <point x="252" y="296" type="line"/>
      <point x="360" y="296" type="line"/>
      <point x="360" y="404" type="line"/>
      <point x="252" y="404" type="line"/>
    </contour>
  </outline>
</glyph>
<glyph name="paragraph.cap" format="1">
  <advance width="612"/>
  <outline>
    <contour>
      <point x="534" y="700" type="line"/>
      <point x="534" y="0" type="line"/>
      <point x="426" y="0" type="line"/>
      <point x="426" y="598" type="line"/>
      <point x="384" y="598" type="line"/>
      <point x="384" y="0" type="line"/>
      <point x="276" y="0" type="line"/>
      <point x="276" y="284" type="line"/>
      <point x="270" y="284" type="line"/>
      <point x="220" y="284"/>
      <point x="142" y="316"/>
      <point x="87" y="371"/>
      <point x="58" y="445"/>
      <point x="58" y="486" type="qcurve"/>
      <point x="58" y="498" type="line"/>
      <point x="58" y="539"/>
      <point x="88" y="613"/>
      <point x="144" y="668"/>
      <point x="225" y="700"/>
      <point x="276" y="700" type="qcurve"/>
    </contour>
    <contour>
      <point x="166" y="489" type="line"/>
      <point x="166" y="463"/>
      <point x="183" y="424"/>
      <point x="211" y="399"/>
      <point x="246" y="386"/>
      <point x="264" y="386" type="qcurve"/>
      <point x="276" y="386" type="line"/>
      <point x="276" y="598" type="line"/>
      <point x="264" y="598" type="line"/>
      <point x="246" y="598"/>
      <point x="211" y="585"/>
      <point x="183" y="560"/>
      <point x="166" y="521"/>
      <point x="166" y="495" type="qcurve"/>
    </contour>
  </outline>
</glyph>
<glyph name="r.alt" format="1">
  <advance width="612"/>
  <outline>
    <contour>
      <point x="34" y="496" type="line"/>
      <point x="256" y="496" type="line"/>
      <point x="256" y="424" type="line"/>
      <point x="274" y="424" type="line"/>
      <point x="288" y="465"/>
      <point x="355" y="510"/>
      <point x="402" y="510" type="qcurve"/>
      <point x="476" y="510"/>
      <point x="566" y="417"/>
      <point x="566" y="322" type="qcurve"/>
      <point x="566" y="300" type="line"/>
      <point x="436" y="288" type="line"/>
      <point x="436" y="302" type="line"/>
      <point x="436" y="343"/>
      <point x="394" y="392"/>
      <point x="352" y="392" type="qcurve"/>
      <point x="310" y="392"/>
      <point x="262" y="334"/>
      <point x="262" y="280" type="qcurve"/>
      <point x="262" y="0" type="line"/>
      <point x="136" y="0" type="line"/>
      <point x="136" y="376" type="line"/>
      <point x="34" y="376" type="line"/>
    </contour>
  </outline>
</glyph>
<glyph name="section.cap" format="1">
  <advance width="612"/>
  <outline>
    <contour>
      <point x="126" y="390" type="qcurve"/>
      <point x="126" y="414"/>
      <point x="137" y="455"/>
      <point x="147" y="472" type="qcurve"/>
      <point x="126" y="505"/>
      <point x="126" y="550" type="qcurve"/>
      <point x="126" y="556" type="line"/>
      <point x="126" y="594"/>
      <point x="154" y="653"/>
      <point x="202" y="693"/>
      <point x="268" y="714"/>
      <point x="306" y="714" type="qcurve"/>
      <point x="353" y="714"/>
      <point x="426" y="687"/>
      <point x="475" y="642"/>
      <point x="500" y="582"/>
      <point x="500" y="548" type="qcurve"/>
      <point x="500" y="526" type="line"/>
      <point x="392" y="526" type="line"/>
      <point x="392" y="538" type="line"/>
      <point x="392" y="568"/>
      <point x="354" y="612"/>
      <point x="309" y="612" type="qcurve"/>
      <point x="275" y="612"/>
      <point x="236" y="582"/>
      <point x="236" y="556" type="qcurve"/>
      <point x="236" y="545"/>
      <point x="243" y="526"/>
      <point x="265" y="508"/>
      <point x="305" y="493"/>
      <point x="337" y="487" type="qcurve"/>
      <point x="427" y="471"/>
      <point x="508" y="390"/>
      <point x="508" y="324" type="qcurve"/>
      <point x="508" y="274"/>
      <point x="490" y="238" type="qcurve"/>
      <point x="508" y="206"/>
      <point x="508" y="164" type="qcurve"/>
      <point x="508" y="156" type="line"/>
      <point x="508" y="81"/>
      <point x="407" y="-14"/>
      <point x="314" y="-14" type="qcurve"/>
      <point x="262" y="-14"/>
      <point x="184" y="16"/>
      <point x="131" y="69"/>
      <point x="104" y="141"/>
      <point x="104" y="184" type="qcurve"/>
      <point x="104" y="198" type="line"/>
      <point x="212" y="198" type="line"/>
      <point x="212" y="186" type="line"/>
      <point x="212" y="142"/>
      <point x="261" y="88"/>
      <point x="313" y="88" type="qcurve"/>
      <point x="398" y="88"/>
      <point x="398" y="152" type="qcurve"/>
      <point x="398" y="182"/>
      <point x="358" y="215"/>
      <point x="305" y="225" type="qcurve"/>
      <point x="221" y="240"/>
      <point x="126" y="318"/>
    </contour>
    <contour>
      <point x="337" y="323" type="qcurve"/>
      <point x="354" y="320"/>
      <point x="380" y="314"/>
      <point x="394" y="309" type="qcurve"/>
      <point x="395" y="312"/>
      <point x="395" y="320" type="qcurve"/>
      <point x="395" y="346"/>
      <point x="358" y="379"/>
      <point x="305" y="389" type="qcurve"/>
      <point x="271" y="395"/>
      <point x="240" y="406" type="qcurve"/>
      <point x="237" y="400"/>
      <point x="237" y="390" type="qcurve"/>
      <point x="237" y="381"/>
      <point x="243" y="362"/>
      <point x="264" y="344"/>
      <point x="304" y="329"/>
    </contour>
  </outline>
</glyph>
<glyph name="three.tosn" format="1">
  <advance width="612"/>
  <outline>
    <contour>
      <point x="234" y="114" type="line"/>
      <point x="234" y="306" type="line"/>
      <point x="396" y="352" type="line"/>
      <point x="396" y="370" type="line"/>
      <point x="72" y="370" type="line"/>
      <point x="72" y="496" type="line"/>
      <point x="510" y="496" type="line"/>
      <point x="510" y="284" type="line"/>
      <point x="342" y="234" type="line"/>
      <point x="342" y="216" type="line"/>
      <point x="360" y="216" type="line"/>
      <point x="397" y="216"/>
      <point x="465" y="190"/>
      <point x="516" y="140"/>
      <point x="546" y="69"/>
      <point x="546" y="24" type="qcurve"/>
      <point x="546" y="18" type="line"/>
      <point x="546" y="-29"/>
      <point x="514" y="-109"/>
      <point x="454" y="-167"/>
      <point x="365" y="-200"/>
      <point x="308" y="-200" type="qcurve"/>
      <point x="250" y="-200"/>
      <point x="157" y="-165"/>
      <point x="90" y="-102"/>
      <point x="51" y="-13"/>
      <point x="48" y="42" type="qcurve"/>
      <point x="180" y="66" type="line"/>
      <point x="185" y="-2"/>
      <point x="251" y="-74"/>
      <point x="314" y="-74" type="qcurve"/>
      <point x="364" y="-74"/>
      <point x="414" y="-20"/>
      <point x="414" y="24" type="qcurve"/>
      <point x="414" y="71"/>
      <point x="359" y="114"/>
      <point x="312" y="114" type="qcurve"/>
    </contour>
  </outline>
</glyph>
<glyph name="uni0157.alt" format="1">
  <advance width="612"/>
  <outline>
    <contour>
      <point x="286" y="-248" type="line"/>
      <point x="286" y="-286"/>
      <point x="234" y="-338"/>
      <point x="196" y="-338" type="qcurve"/>
      <point x="136" y="-338" type="line"/>
      <point x="136" y="-260" type="line"/>
      <point x="181" y="-260" type="line"/>
      <point x="208" y="-260"/>
      <point x="208" y="-230" type="qcurve"/>
      <point x="208" y="-218" type="line"/>
      <point x="199" y="-218" type="line"/>
      <point x="181" y="-218"/>
      <point x="150" y="-204"/>
      <point x="126" y="-180"/>
      <point x="112" y="-149"/>
      <point x="112" y="-131" type="qcurve"/>
      <point x="112" y="-113"/>
      <point x="126" y="-82"/>
      <point x="150" y="-58"/>
      <point x="181" y="-44"/>
      <point x="199" y="-44" type="qcurve"/>
      <point x="217" y="-44"/>
      <point x="248" y="-58"/>
      <point x="272" y="-82"/>
      <point x="286" y="-113"/>
      <point x="286" y="-131" type="qcurve"/>
    </contour>
    <component base="r.alt"/>
  </outline>
</glyph>
<glyph name="uni20A7.cap" format="1">
  <advance width="612"/>
  <outline>
    <contour>
      <point x="586" y="425" type="line"/>
      <point x="521" y="425" type="line"/>
      <point x="515" y="392"/>
      <point x="482" y="334"/>
      <point x="430" y="290"/>
      <point x="358" y="264"/>
      <point x="312" y="264" type="qcurve"/>
      <point x="212" y="264" type="line"/>
      <point x="212" y="0" type="line"/>
      <point x="86" y="0" type="line"/>
      <point x="86" y="425" type="line"/>
      <point x="26" y="425" type="line"/>
      <point x="26" y="539" type="line"/>
      <point x="86" y="539" type="line"/>
      <point x="86" y="700" type="line"/>
      <point x="312" y="700" type="line"/>
      <point x="358" y="700"/>
      <point x="430" y="674"/>
      <point x="482" y="630"/>
      <point x="515" y="571"/>
      <point x="521" y="539" type="qcurve"/>
      <point x="586" y="539" type="line"/>
    </contour>
    <contour>
      <point x="212" y="539" type="line"/>
      <point x="387" y="539" type="line"/>
      <point x="376" y="558"/>
      <point x="335" y="580"/>
      <point x="306" y="580" type="qcurve"/>
      <point x="212" y="580" type="line"/>
    </contour>
    <contour>
      <point x="306" y="384" type="line"/>
      <point x="335" y="384"/>
      <point x="376" y="406"/>
      <point x="387" y="425" type="qcurve"/>
      <point x="212" y="425" type="line"/>
      <point x="212" y="384" type="line"/>
    </contour>
  </outline>
</glyph>
<glyph name="uni20B1.cap" format="1">
  <advance width="612"/>
  <outline>
    <contour>
      <point x="586" y="270" type="line"/>
      <point x="212" y="270" type="line"/>
      <point x="212" y="0" type="line"/>
      <point x="86" y="0" type="line"/>
      <point x="86" y="270" type="line"/>
      <point x="26" y="270" type="line"/>
      <point x="26" y="384" type="line"/>
      <point x="86" y="384" type="line"/>
      <point x="86" y="425" type="line"/>
      <point x="26" y="425" type="line"/>
      <point x="26" y="539" type="line"/>
      <point x="86" y="539" type="line"/>
      <point x="86" y="700" type="line"/>
      <point x="312" y="700" type="line"/>
      <point x="358" y="700"/>
      <point x="430" y="674"/>
      <point x="483" y="629"/>
      <point x="516" y="571"/>
      <point x="522" y="539" type="qcurve"/>
      <point x="586" y="539" type="line"/>
      <point x="586" y="425" type="line"/>
      <point x="518" y="425" type="line"/>
      <point x="515" y="404"/>
      <point x="498" y="390" type="qcurve"/>
      <point x="498" y="384" type="line"/>
      <point x="586" y="384" type="line"/>
    </contour>
    <contour>
      <point x="310" y="384" type="line"/>
      <point x="338" y="385"/>
      <point x="376" y="407"/>
      <point x="387" y="425" type="qcurve"/>
      <point x="212" y="425" type="line"/>
      <point x="212" y="384" type="line"/>
    </contour>
    <contour>
      <point x="212" y="539" type="line"/>
      <point x="387" y="539" type="line"/>
      <point x="376" y="558"/>
      <point x="335" y="580"/>
      <point x="306" y="580" type="qcurve"/>
      <point x="212" y="580" type="line"/>
    </contour>
  </outline>
</glyph>
<glyph name="uni20B2.cap" format="1">
  <advance width="612"/>
  <outline>
    <contour>
      <point x="362" y="709" type="line"/>
      <point x="409" y="700"/>
      <point x="483" y="655"/>
      <point x="534" y="589"/>
      <point x="560" y="506"/>
      <point x="560" y="460" type="qcurve"/>
      <point x="560" y="448" type="line"/>
      <point x="428" y="448" type="line"/>
      <point x="428" y="460" type="line"/>
      <point x="428" y="505"/>
      <point x="394" y="564"/>
      <point x="362" y="577" type="qcurve"/>
      <point x="362" y="354" type="line"/>
      <point x="560" y="354" type="line"/>
      <point x="560" y="0" type="line"/>
      <point x="440" y="0" type="line"/>
      <point x="440" y="78" type="line"/>
      <point x="422" y="78" type="line"/>
      <point x="414" y="55"/>
      <point x="386" y="16"/>
      <point x="362" y="4" type="qcurve"/>
      <point x="362" y="-92" type="line"/>
      <point x="248" y="-92" type="line"/>
      <point x="248" y="-13" type="line"/>
      <point x="204" y="-9"/>
      <point x="130" y="31"/>
      <point x="75" y="102"/>
      <point x="44" y="203"/>
      <point x="44" y="268" type="qcurve"/>
      <point x="44" y="432" type="line"/>
      <point x="44" y="551"/>
      <point x="155" y="692"/>
      <point x="248" y="709" type="qcurve"/>
      <point x="248" y="792" type="line"/>
      <point x="362" y="792" type="line"/>
    </contour>
    <contour>
      <point x="176" y="274" type="line"/>
      <point x="176" y="154"/>
      <point x="248" y="123" type="qcurve"/>
      <point x="248" y="577" type="line"/>
      <point x="215" y="563"/>
      <point x="176" y="488"/>
      <point x="176" y="422" type="qcurve"/>
    </contour>
    <contour>
      <point x="362" y="228" type="line"/>
      <point x="362" y="121" type="line"/>
      <point x="394" y="133"/>
      <point x="428" y="189"/>
      <point x="428" y="228" type="qcurve"/>
    </contour>
  </outline>
</glyph>
